STARTFONT 2.1
FONT -Kadoma-k12x8-Regular-R-Normal--8-80-75-75-C-120-ISO10646-1
SIZE 8 75 75
FONTBOUNDINGBOX 12 8 0 -1
STARTPROPERTIES 19
FONTNAME_REGISTRY ""
FOUNDRY "Kadoma"
FAMILY_NAME "k12x8"
WEIGHT_NAME "Regular"
SLANT "R"
SETWIDTH_NAME "Normal"
ADD_STYLE_NAME ""
PIXEL_SIZE 8
POINT_SIZE 80
RESOLUTION_X 75
RESOLUTION_Y 75
SPACING "C"
AVERAGE_WIDTH 120
CHARSET_REGISTRY "ISO10646"
CHARSET_ENCODING "1"
DEFAULT_CHAR 3000
FONT_DESCENT 1
FONT_ASCENT 7
COPYRIGHT "Copyright (C) 2021 Num Kadoma"
ENDPROPERTIES
CHARS 3781
STARTCHAR space
ENCODING 32
SWIDTH 750 0
DWIDTH 6 0
BBX 0 0 0 0
BITMAP
ENDCHAR
STARTCHAR exclam
ENCODING 33
SWIDTH 750 0
DWIDTH 6 0
BBX 1 7 2 0
BITMAP
80
80
80
80
80
00
80
ENDCHAR
STARTCHAR quotedbl
ENCODING 34
SWIDTH 750 0
DWIDTH 6 0
BBX 3 2 1 5
BITMAP
A0
A0
ENDCHAR
STARTCHAR numbersign
ENCODING 35
SWIDTH 750 0
DWIDTH 6 0
BBX 5 7 0 0
BITMAP
50
F8
50
50
50
F8
50
ENDCHAR
STARTCHAR dollar
ENCODING 36
SWIDTH 750 0
DWIDTH 6 0
BBX 5 7 0 0
BITMAP
20
78
A0
70
28
F0
20
ENDCHAR
STARTCHAR percent
ENCODING 37
SWIDTH 750 0
DWIDTH 6 0
BBX 5 7 0 0
BITMAP
C0
C8
10
20
40
98
18
ENDCHAR
STARTCHAR ampersand
ENCODING 38
SWIDTH 750 0
DWIDTH 6 0
BBX 5 7 0 0
BITMAP
60
90
A0
40
A8
90
68
ENDCHAR
STARTCHAR quotesingle
ENCODING 39
SWIDTH 750 0
DWIDTH 6 0
BBX 2 3 1 4
BITMAP
C0
40
80
ENDCHAR
STARTCHAR parenleft
ENCODING 40
SWIDTH 750 0
DWIDTH 6 0
BBX 3 7 1 0
BITMAP
20
40
80
80
80
40
20
ENDCHAR
STARTCHAR parenright
ENCODING 41
SWIDTH 750 0
DWIDTH 6 0
BBX 3 7 1 0
BITMAP
80
40
20
20
20
40
80
ENDCHAR
STARTCHAR asterisk
ENCODING 42
SWIDTH 750 0
DWIDTH 6 0
BBX 5 5 0 1
BITMAP
20
A8
70
A8
20
ENDCHAR
STARTCHAR plus
ENCODING 43
SWIDTH 750 0
DWIDTH 6 0
BBX 5 5 0 1
BITMAP
20
20
F8
20
20
ENDCHAR
STARTCHAR comma
ENCODING 44
SWIDTH 750 0
DWIDTH 6 0
BBX 2 3 1 0
BITMAP
C0
40
80
ENDCHAR
STARTCHAR hyphen
ENCODING 45
SWIDTH 750 0
DWIDTH 6 0
BBX 5 1 0 3
BITMAP
F8
ENDCHAR
STARTCHAR period
ENCODING 46
SWIDTH 750 0
DWIDTH 6 0
BBX 2 2 1 0
BITMAP
C0
C0
ENDCHAR
STARTCHAR slash
ENCODING 47
SWIDTH 750 0
DWIDTH 6 0
BBX 5 5 0 1
BITMAP
08
10
20
40
80
ENDCHAR
STARTCHAR zero
ENCODING 48
SWIDTH 750 0
DWIDTH 6 0
BBX 5 7 0 0
BITMAP
70
88
98
A8
C8
88
70
ENDCHAR
STARTCHAR one
ENCODING 49
SWIDTH 750 0
DWIDTH 6 0
BBX 3 7 1 0
BITMAP
40
C0
40
40
40
40
E0
ENDCHAR
STARTCHAR two
ENCODING 50
SWIDTH 750 0
DWIDTH 6 0
BBX 5 7 0 0
BITMAP
70
88
08
10
20
40
F8
ENDCHAR
STARTCHAR three
ENCODING 51
SWIDTH 750 0
DWIDTH 6 0
BBX 5 7 0 0
BITMAP
70
88
08
30
08
88
70
ENDCHAR
STARTCHAR four
ENCODING 52
SWIDTH 750 0
DWIDTH 6 0
BBX 5 7 0 0
BITMAP
10
30
50
90
F8
10
10
ENDCHAR
STARTCHAR five
ENCODING 53
SWIDTH 750 0
DWIDTH 6 0
BBX 5 7 0 0
BITMAP
F8
80
F0
88
08
88
70
ENDCHAR
STARTCHAR six
ENCODING 54
SWIDTH 750 0
DWIDTH 6 0
BBX 5 7 0 0
BITMAP
30
40
80
F0
88
88
70
ENDCHAR
STARTCHAR seven
ENCODING 55
SWIDTH 750 0
DWIDTH 6 0
BBX 5 7 0 0
BITMAP
F8
08
10
20
20
20
20
ENDCHAR
STARTCHAR eight
ENCODING 56
SWIDTH 750 0
DWIDTH 6 0
BBX 5 7 0 0
BITMAP
70
88
88
70
88
88
70
ENDCHAR
STARTCHAR nine
ENCODING 57
SWIDTH 750 0
DWIDTH 6 0
BBX 5 7 0 0
BITMAP
70
88
88
78
08
10
60
ENDCHAR
STARTCHAR colon
ENCODING 58
SWIDTH 750 0
DWIDTH 6 0
BBX 2 6 1 0
BITMAP
C0
C0
00
00
C0
C0
ENDCHAR
STARTCHAR semicolon
ENCODING 59
SWIDTH 750 0
DWIDTH 6 0
BBX 2 6 1 0
BITMAP
C0
C0
00
C0
40
80
ENDCHAR
STARTCHAR less
ENCODING 60
SWIDTH 750 0
DWIDTH 6 0
BBX 4 7 0 0
BITMAP
10
20
40
80
40
20
10
ENDCHAR
STARTCHAR equal
ENCODING 61
SWIDTH 750 0
DWIDTH 6 0
BBX 5 3 0 2
BITMAP
F8
00
F8
ENDCHAR
STARTCHAR greater
ENCODING 62
SWIDTH 750 0
DWIDTH 6 0
BBX 4 7 1 0
BITMAP
80
40
20
10
20
40
80
ENDCHAR
STARTCHAR question
ENCODING 63
SWIDTH 750 0
DWIDTH 6 0
BBX 5 7 0 0
BITMAP
70
88
08
10
20
00
20
ENDCHAR
STARTCHAR at
ENCODING 64
SWIDTH 750 0
DWIDTH 6 0
BBX 5 7 0 0
BITMAP
70
88
B8
A8
B8
80
70
ENDCHAR
STARTCHAR A
ENCODING 65
SWIDTH 750 0
DWIDTH 6 0
BBX 5 7 0 0
BITMAP
20
50
88
88
F8
88
88
ENDCHAR
STARTCHAR B
ENCODING 66
SWIDTH 750 0
DWIDTH 6 0
BBX 5 7 0 0
BITMAP
F0
88
88
F0
88
88
F0
ENDCHAR
STARTCHAR C
ENCODING 67
SWIDTH 750 0
DWIDTH 6 0
BBX 5 7 0 0
BITMAP
70
88
80
80
80
88
70
ENDCHAR
STARTCHAR D
ENCODING 68
SWIDTH 750 0
DWIDTH 6 0
BBX 5 7 0 0
BITMAP
E0
90
88
88
88
90
E0
ENDCHAR
STARTCHAR E
ENCODING 69
SWIDTH 750 0
DWIDTH 6 0
BBX 5 7 0 0
BITMAP
F8
80
80
F0
80
80
F8
ENDCHAR
STARTCHAR F
ENCODING 70
SWIDTH 750 0
DWIDTH 6 0
BBX 5 7 0 0
BITMAP
F8
80
80
F0
80
80
80
ENDCHAR
STARTCHAR G
ENCODING 71
SWIDTH 750 0
DWIDTH 6 0
BBX 5 7 0 0
BITMAP
70
88
80
98
88
88
70
ENDCHAR
STARTCHAR H
ENCODING 72
SWIDTH 750 0
DWIDTH 6 0
BBX 5 7 0 0
BITMAP
88
88
88
F8
88
88
88
ENDCHAR
STARTCHAR I
ENCODING 73
SWIDTH 750 0
DWIDTH 6 0
BBX 3 7 1 0
BITMAP
E0
40
40
40
40
40
E0
ENDCHAR
STARTCHAR J
ENCODING 74
SWIDTH 750 0
DWIDTH 6 0
BBX 5 7 0 0
BITMAP
08
08
08
08
08
88
70
ENDCHAR
STARTCHAR K
ENCODING 75
SWIDTH 750 0
DWIDTH 6 0
BBX 5 7 0 0
BITMAP
88
90
A0
C0
A0
90
88
ENDCHAR
STARTCHAR L
ENCODING 76
SWIDTH 750 0
DWIDTH 6 0
BBX 5 7 0 0
BITMAP
80
80
80
80
80
80
F8
ENDCHAR
STARTCHAR M
ENCODING 77
SWIDTH 750 0
DWIDTH 6 0
BBX 5 7 0 0
BITMAP
88
D8
A8
A8
88
88
88
ENDCHAR
STARTCHAR N
ENCODING 78
SWIDTH 750 0
DWIDTH 6 0
BBX 5 7 0 0
BITMAP
88
88
C8
A8
98
88
88
ENDCHAR
STARTCHAR O
ENCODING 79
SWIDTH 750 0
DWIDTH 6 0
BBX 5 7 0 0
BITMAP
70
88
88
88
88
88
70
ENDCHAR
STARTCHAR P
ENCODING 80
SWIDTH 750 0
DWIDTH 6 0
BBX 5 7 0 0
BITMAP
F0
88
88
F0
80
80
80
ENDCHAR
STARTCHAR Q
ENCODING 81
SWIDTH 750 0
DWIDTH 6 0
BBX 5 7 0 0
BITMAP
70
88
88
88
A8
90
68
ENDCHAR
STARTCHAR R
ENCODING 82
SWIDTH 750 0
DWIDTH 6 0
BBX 5 7 0 0
BITMAP
F0
88
88
F0
A0
90
88
ENDCHAR
STARTCHAR S
ENCODING 83
SWIDTH 750 0
DWIDTH 6 0
BBX 5 7 0 0
BITMAP
70
88
80
70
08
88
70
ENDCHAR
STARTCHAR T
ENCODING 84
SWIDTH 750 0
DWIDTH 6 0
BBX 5 7 0 0
BITMAP
F8
20
20
20
20
20
20
ENDCHAR
STARTCHAR U
ENCODING 85
SWIDTH 750 0
DWIDTH 6 0
BBX 5 7 0 0
BITMAP
88
88
88
88
88
88
70
ENDCHAR
STARTCHAR V
ENCODING 86
SWIDTH 750 0
DWIDTH 6 0
BBX 5 7 0 0
BITMAP
88
88
88
50
50
20
20
ENDCHAR
STARTCHAR W
ENCODING 87
SWIDTH 750 0
DWIDTH 6 0
BBX 5 7 0 0
BITMAP
88
88
A8
A8
A8
50
50
ENDCHAR
STARTCHAR X
ENCODING 88
SWIDTH 750 0
DWIDTH 6 0
BBX 5 7 0 0
BITMAP
88
88
50
20
50
88
88
ENDCHAR
STARTCHAR Y
ENCODING 89
SWIDTH 750 0
DWIDTH 6 0
BBX 5 7 0 0
BITMAP
88
88
50
20
20
20
20
ENDCHAR
STARTCHAR Z
ENCODING 90
SWIDTH 750 0
DWIDTH 6 0
BBX 5 7 0 0
BITMAP
F8
08
10
20
40
80
F8
ENDCHAR
STARTCHAR bracketleft
ENCODING 91
SWIDTH 750 0
DWIDTH 6 0
BBX 3 7 1 0
BITMAP
E0
80
80
80
80
80
E0
ENDCHAR
STARTCHAR backslash
ENCODING 92
SWIDTH 750 0
DWIDTH 6 0
BBX 5 5 0 1
BITMAP
80
40
20
10
08
ENDCHAR
STARTCHAR bracketright
ENCODING 93
SWIDTH 750 0
DWIDTH 6 0
BBX 3 7 1 0
BITMAP
E0
20
20
20
20
20
E0
ENDCHAR
STARTCHAR asciicircum
ENCODING 94
SWIDTH 750 0
DWIDTH 6 0
BBX 5 3 0 4
BITMAP
20
50
88
ENDCHAR
STARTCHAR underscore
ENCODING 95
SWIDTH 750 0
DWIDTH 6 0
BBX 5 1 0 0
BITMAP
F8
ENDCHAR
STARTCHAR grave
ENCODING 96
SWIDTH 750 0
DWIDTH 6 0
BBX 2 3 2 4
BITMAP
C0
80
40
ENDCHAR
STARTCHAR a
ENCODING 97
SWIDTH 750 0
DWIDTH 6 0
BBX 5 5 0 0
BITMAP
70
08
78
88
78
ENDCHAR
STARTCHAR b
ENCODING 98
SWIDTH 750 0
DWIDTH 6 0
BBX 5 7 0 0
BITMAP
80
80
B0
C8
88
88
F0
ENDCHAR
STARTCHAR c
ENCODING 99
SWIDTH 750 0
DWIDTH 6 0
BBX 5 5 0 0
BITMAP
70
80
80
88
70
ENDCHAR
STARTCHAR d
ENCODING 100
SWIDTH 750 0
DWIDTH 6 0
BBX 5 7 0 0
BITMAP
08
08
68
98
88
88
78
ENDCHAR
STARTCHAR e
ENCODING 101
SWIDTH 750 0
DWIDTH 6 0
BBX 5 5 0 0
BITMAP
70
88
F8
80
70
ENDCHAR
STARTCHAR f
ENCODING 102
SWIDTH 750 0
DWIDTH 6 0
BBX 4 7 1 0
BITMAP
30
40
F0
40
40
40
40
ENDCHAR
STARTCHAR g
ENCODING 103
SWIDTH 750 0
DWIDTH 6 0
BBX 5 5 0 0
BITMAP
78
88
78
08
70
ENDCHAR
STARTCHAR h
ENCODING 104
SWIDTH 750 0
DWIDTH 6 0
BBX 5 7 0 0
BITMAP
80
80
B0
C8
88
88
88
ENDCHAR
STARTCHAR i
ENCODING 105
SWIDTH 750 0
DWIDTH 6 0
BBX 1 7 2 0
BITMAP
80
00
80
80
80
80
80
ENDCHAR
STARTCHAR j
ENCODING 106
SWIDTH 750 0
DWIDTH 6 0
BBX 5 7 0 0
BITMAP
08
00
08
08
08
88
70
ENDCHAR
STARTCHAR k
ENCODING 107
SWIDTH 750 0
DWIDTH 6 0
BBX 5 7 0 0
BITMAP
80
80
88
90
E0
90
88
ENDCHAR
STARTCHAR l
ENCODING 108
SWIDTH 750 0
DWIDTH 6 0
BBX 2 7 1 0
BITMAP
C0
40
40
40
40
40
40
ENDCHAR
STARTCHAR m
ENCODING 109
SWIDTH 750 0
DWIDTH 6 0
BBX 5 5 0 0
BITMAP
D0
A8
A8
A8
88
ENDCHAR
STARTCHAR n
ENCODING 110
SWIDTH 750 0
DWIDTH 6 0
BBX 5 5 0 0
BITMAP
B0
C8
88
88
88
ENDCHAR
STARTCHAR o
ENCODING 111
SWIDTH 750 0
DWIDTH 6 0
BBX 5 5 0 0
BITMAP
70
88
88
88
70
ENDCHAR
STARTCHAR p
ENCODING 112
SWIDTH 750 0
DWIDTH 6 0
BBX 5 5 0 0
BITMAP
F0
88
88
F0
80
ENDCHAR
STARTCHAR q
ENCODING 113
SWIDTH 750 0
DWIDTH 6 0
BBX 5 5 0 0
BITMAP
78
88
98
68
08
ENDCHAR
STARTCHAR r
ENCODING 114
SWIDTH 750 0
DWIDTH 6 0
BBX 5 5 0 0
BITMAP
B0
C8
80
80
80
ENDCHAR
STARTCHAR s
ENCODING 115
SWIDTH 750 0
DWIDTH 6 0
BBX 5 5 0 0
BITMAP
70
80
70
08
F0
ENDCHAR
STARTCHAR t
ENCODING 116
SWIDTH 750 0
DWIDTH 6 0
BBX 5 6 0 0
BITMAP
40
F0
40
40
48
30
ENDCHAR
STARTCHAR u
ENCODING 117
SWIDTH 750 0
DWIDTH 6 0
BBX 5 5 0 0
BITMAP
88
88
88
98
68
ENDCHAR
STARTCHAR v
ENCODING 118
SWIDTH 750 0
DWIDTH 6 0
BBX 5 5 0 0
BITMAP
88
88
50
50
20
ENDCHAR
STARTCHAR w
ENCODING 119
SWIDTH 750 0
DWIDTH 6 0
BBX 5 5 0 0
BITMAP
88
A8
A8
A8
50
ENDCHAR
STARTCHAR x
ENCODING 120
SWIDTH 750 0
DWIDTH 6 0
BBX 5 5 0 0
BITMAP
88
50
20
50
88
ENDCHAR
STARTCHAR y
ENCODING 121
SWIDTH 750 0
DWIDTH 6 0
BBX 5 5 0 0
BITMAP
88
88
78
08
70
ENDCHAR
STARTCHAR z
ENCODING 122
SWIDTH 750 0
DWIDTH 6 0
BBX 5 5 0 0
BITMAP
F8
10
20
40
F8
ENDCHAR
STARTCHAR braceleft
ENCODING 123
SWIDTH 750 0
DWIDTH 6 0
BBX 4 7 0 0
BITMAP
30
40
40
80
40
40
30
ENDCHAR
STARTCHAR bar
ENCODING 124
SWIDTH 750 0
DWIDTH 6 0
BBX 1 7 2 0
BITMAP
80
80
80
80
80
80
80
ENDCHAR
STARTCHAR braceright
ENCODING 125
SWIDTH 750 0
DWIDTH 6 0
BBX 4 7 1 0
BITMAP
C0
20
20
10
20
20
C0
ENDCHAR
STARTCHAR asciitilde
ENCODING 126
SWIDTH 750 0
DWIDTH 6 0
BBX 5 3 0 2
BITMAP
40
A8
10
ENDCHAR
STARTCHAR cent
ENCODING 162
SWIDTH 750 0
DWIDTH 6 0
BBX 5 7 0 0
BITMAP
20
20
70
A0
A8
70
20
ENDCHAR
STARTCHAR sterling
ENCODING 163
SWIDTH 750 0
DWIDTH 6 0
BBX 5 7 0 0
BITMAP
30
40
F0
40
40
80
F8
ENDCHAR
STARTCHAR yen
ENCODING 165
SWIDTH 750 0
DWIDTH 6 0
BBX 5 7 0 0
BITMAP
88
50
F8
20
F8
20
20
ENDCHAR
STARTCHAR brokenbar
ENCODING 166
SWIDTH 750 0
DWIDTH 6 0
BBX 1 7 2 0
BITMAP
80
80
80
00
80
80
80
ENDCHAR
STARTCHAR section
ENCODING 167
SWIDTH 1500 0
DWIDTH 12 0
BBX 5 7 3 0
BITMAP
78
80
70
88
70
08
F0
ENDCHAR
STARTCHAR dieresis
ENCODING 168
SWIDTH 1500 0
DWIDTH 12 0
BBX 5 1 3 6
BITMAP
88
ENDCHAR
STARTCHAR logicalnot
ENCODING 172
SWIDTH 750 0
DWIDTH 6 0
BBX 5 3 0 1
BITMAP
F8
08
08
ENDCHAR
STARTCHAR uni00AD
ENCODING 173
SWIDTH 1500 0
DWIDTH 12 0
BBX 2 1 5 3
BITMAP
C0
ENDCHAR
STARTCHAR macron
ENCODING 175
SWIDTH 750 0
DWIDTH 6 0
BBX 5 1 0 6
BITMAP
F8
ENDCHAR
STARTCHAR degree
ENCODING 176
SWIDTH 1500 0
DWIDTH 12 0
BBX 4 4 1 3
BITMAP
60
90
90
60
ENDCHAR
STARTCHAR plusminus
ENCODING 177
SWIDTH 1500 0
DWIDTH 12 0
BBX 9 7 1 0
BITMAP
0800
0800
FF80
0800
0800
0000
FF80
ENDCHAR
STARTCHAR acute
ENCODING 180
SWIDTH 1500 0
DWIDTH 12 0
BBX 2 2 4 5
BITMAP
80
40
ENDCHAR
STARTCHAR paragraph
ENCODING 182
SWIDTH 1500 0
DWIDTH 12 0
BBX 7 7 2 0
BITMAP
7E
F2
F2
72
12
12
12
ENDCHAR
STARTCHAR multiply
ENCODING 215
SWIDTH 1500 0
DWIDTH 12 0
BBX 7 7 2 0
BITMAP
82
44
28
10
28
44
82
ENDCHAR
STARTCHAR divide
ENCODING 247
SWIDTH 1500 0
DWIDTH 12 0
BBX 9 5 1 1
BITMAP
0800
0000
FF80
0000
0800
ENDCHAR
STARTCHAR Alpha
ENCODING 913
SWIDTH 1500 0
DWIDTH 12 0
BBX 9 7 1 0
BITMAP
0800
1400
2200
2200
7F00
8080
8080
ENDCHAR
STARTCHAR Beta
ENCODING 914
SWIDTH 1500 0
DWIDTH 12 0
BBX 9 7 1 0
BITMAP
FF00
8080
8080
FF00
8080
8080
FF00
ENDCHAR
STARTCHAR Gamma
ENCODING 915
SWIDTH 1500 0
DWIDTH 12 0
BBX 9 7 1 0
BITMAP
FF80
8000
8000
8000
8000
8000
8000
ENDCHAR
STARTCHAR uni0394
ENCODING 916
SWIDTH 1500 0
DWIDTH 12 0
BBX 9 7 1 0
BITMAP
0800
1400
2200
2200
4100
8080
FF80
ENDCHAR
STARTCHAR Epsilon
ENCODING 917
SWIDTH 1500 0
DWIDTH 12 0
BBX 9 7 1 0
BITMAP
FF80
8000
8000
FE00
8000
8000
FF80
ENDCHAR
STARTCHAR Zeta
ENCODING 918
SWIDTH 1500 0
DWIDTH 12 0
BBX 9 7 1 0
BITMAP
FF80
0100
0600
0800
3000
4000
FF80
ENDCHAR
STARTCHAR Eta
ENCODING 919
SWIDTH 1500 0
DWIDTH 12 0
BBX 9 7 1 0
BITMAP
8080
8080
8080
FF80
8080
8080
8080
ENDCHAR
STARTCHAR Theta
ENCODING 920
SWIDTH 1500 0
DWIDTH 12 0
BBX 9 7 1 0
BITMAP
3E00
4100
8080
9C80
8080
4100
3E00
ENDCHAR
STARTCHAR Iota
ENCODING 921
SWIDTH 1500 0
DWIDTH 12 0
BBX 5 7 3 0
BITMAP
F8
20
20
20
20
20
F8
ENDCHAR
STARTCHAR Kappa
ENCODING 922
SWIDTH 1500 0
DWIDTH 12 0
BBX 9 7 1 0
BITMAP
8080
8300
8C00
B000
CC00
8300
8080
ENDCHAR
STARTCHAR Lambda
ENCODING 923
SWIDTH 1500 0
DWIDTH 12 0
BBX 9 7 1 0
BITMAP
0800
1400
2200
2200
4100
8080
8080
ENDCHAR
STARTCHAR Mu
ENCODING 924
SWIDTH 1500 0
DWIDTH 12 0
BBX 11 7 0 0
BITMAP
8020
C060
A0A0
9120
8A20
8420
8020
ENDCHAR
STARTCHAR Nu
ENCODING 925
SWIDTH 1500 0
DWIDTH 12 0
BBX 9 7 1 0
BITMAP
C080
A080
9080
8880
8480
8280
8180
ENDCHAR
STARTCHAR Xi
ENCODING 926
SWIDTH 1500 0
DWIDTH 12 0
BBX 9 7 1 0
BITMAP
FF80
0000
0000
7F00
0000
0000
FF80
ENDCHAR
STARTCHAR Omicron
ENCODING 927
SWIDTH 1500 0
DWIDTH 12 0
BBX 9 7 1 0
BITMAP
3E00
4100
8080
8080
8080
4100
3E00
ENDCHAR
STARTCHAR Pi
ENCODING 928
SWIDTH 1500 0
DWIDTH 12 0
BBX 9 7 1 0
BITMAP
FF80
8080
8080
8080
8080
8080
8080
ENDCHAR
STARTCHAR Rho
ENCODING 929
SWIDTH 1500 0
DWIDTH 12 0
BBX 9 7 1 0
BITMAP
FF00
8080
8080
FF00
8000
8000
8000
ENDCHAR
STARTCHAR Sigma
ENCODING 931
SWIDTH 1500 0
DWIDTH 12 0
BBX 9 7 1 0
BITMAP
FF80
4000
3000
0C00
3000
4000
FF80
ENDCHAR
STARTCHAR Tau
ENCODING 932
SWIDTH 1500 0
DWIDTH 12 0
BBX 9 7 1 0
BITMAP
FF80
0800
0800
0800
0800
0800
0800
ENDCHAR
STARTCHAR Upsilon
ENCODING 933
SWIDTH 1500 0
DWIDTH 12 0
BBX 9 7 1 0
BITMAP
8080
4100
2200
1400
0800
0800
0800
ENDCHAR
STARTCHAR Phi
ENCODING 934
SWIDTH 1500 0
DWIDTH 12 0
BBX 9 7 1 0
BITMAP
0800
7F00
8880
8880
8880
7F00
0800
ENDCHAR
STARTCHAR Chi
ENCODING 935
SWIDTH 1500 0
DWIDTH 12 0
BBX 9 7 1 0
BITMAP
8080
4100
2200
1C00
2200
4100
8080
ENDCHAR
STARTCHAR Psi
ENCODING 936
SWIDTH 1500 0
DWIDTH 12 0
BBX 9 7 1 0
BITMAP
8880
4900
4900
3E00
0800
0800
0800
ENDCHAR
STARTCHAR uni03A9
ENCODING 937
SWIDTH 1500 0
DWIDTH 12 0
BBX 9 7 1 0
BITMAP
3E00
4100
8080
8080
4100
2200
E380
ENDCHAR
STARTCHAR alpha
ENCODING 945
SWIDTH 1500 0
DWIDTH 12 0
BBX 7 5 2 0
BITMAP
3A
4C
88
9A
6C
ENDCHAR
STARTCHAR beta
ENCODING 946
SWIDTH 1500 0
DWIDTH 12 0
BBX 7 7 2 0
BITMAP
1C
22
2C
42
42
BC
80
ENDCHAR
STARTCHAR gamma
ENCODING 947
SWIDTH 1500 0
DWIDTH 12 0
BBX 7 5 2 0
BITMAP
66
98
10
20
20
ENDCHAR
STARTCHAR delta
ENCODING 948
SWIDTH 1500 0
DWIDTH 12 0
BBX 7 7 2 0
BITMAP
1C
22
30
48
88
88
70
ENDCHAR
STARTCHAR epsilon
ENCODING 949
SWIDTH 1500 0
DWIDTH 12 0
BBX 7 5 2 0
BITMAP
3C
42
70
82
7C
ENDCHAR
STARTCHAR zeta
ENCODING 950
SWIDTH 1500 0
DWIDTH 12 0
BBX 6 7 3 0
BITMAP
4C
30
40
80
60
10
E0
ENDCHAR
STARTCHAR eta
ENCODING 951
SWIDTH 1500 0
DWIDTH 12 0
BBX 7 5 2 0
BITMAP
6C
B2
22
44
04
ENDCHAR
STARTCHAR theta
ENCODING 952
SWIDTH 1500 0
DWIDTH 12 0
BBX 7 7 2 0
BITMAP
1C
22
42
7C
84
88
70
ENDCHAR
STARTCHAR iota
ENCODING 953
SWIDTH 1500 0
DWIDTH 12 0
BBX 5 5 3 0
BITMAP
40
40
88
90
60
ENDCHAR
STARTCHAR kappa
ENCODING 954
SWIDTH 1500 0
DWIDTH 12 0
BBX 7 5 2 0
BITMAP
46
48
70
90
8E
ENDCHAR
STARTCHAR lambda
ENCODING 955
SWIDTH 1500 0
DWIDTH 12 0
BBX 7 7 2 0
BITMAP
30
08
08
18
28
48
86
ENDCHAR
STARTCHAR uni03BC
ENCODING 956
SWIDTH 1500 0
DWIDTH 12 0
BBX 7 5 2 0
BITMAP
22
22
64
5A
80
ENDCHAR
STARTCHAR nu
ENCODING 957
SWIDTH 1500 0
DWIDTH 12 0
BBX 7 5 2 0
BITMAP
82
44
48
50
60
ENDCHAR
STARTCHAR xi
ENCODING 958
SWIDTH 1500 0
DWIDTH 12 0
BBX 6 7 3 0
BITMAP
3C
40
78
80
60
10
E0
ENDCHAR
STARTCHAR omicron
ENCODING 959
SWIDTH 1500 0
DWIDTH 12 0
BBX 7 5 2 0
BITMAP
3C
42
82
84
78
ENDCHAR
STARTCHAR pi
ENCODING 960
SWIDTH 1500 0
DWIDTH 12 0
BBX 7 5 2 0
BITMAP
7E
A8
28
48
8E
ENDCHAR
STARTCHAR rho
ENCODING 961
SWIDTH 1500 0
DWIDTH 12 0
BBX 8 5 2 0
BITMAP
1E
21
21
5E
80
ENDCHAR
STARTCHAR sigma
ENCODING 963
SWIDTH 1500 0
DWIDTH 12 0
BBX 8 5 2 0
BITMAP
3F
44
84
88
70
ENDCHAR
STARTCHAR tau
ENCODING 964
SWIDTH 1500 0
DWIDTH 12 0
BBX 7 5 2 0
BITMAP
7E
90
20
28
10
ENDCHAR
STARTCHAR upsilon
ENCODING 965
SWIDTH 1500 0
DWIDTH 12 0
BBX 7 5 2 0
BITMAP
62
92
22
24
18
ENDCHAR
STARTCHAR phi
ENCODING 966
SWIDTH 1500 0
DWIDTH 12 0
BBX 7 7 2 0
BITMAP
08
08
7C
92
92
7C
20
ENDCHAR
STARTCHAR chi
ENCODING 967
SWIDTH 1500 0
DWIDTH 12 0
BBX 7 5 2 0
BITMAP
66
18
10
30
CE
ENDCHAR
STARTCHAR psi
ENCODING 968
SWIDTH 1500 0
DWIDTH 12 0
BBX 8 7 1 0
BITMAP
04
04
C9
49
49
3E
10
ENDCHAR
STARTCHAR omega
ENCODING 969
SWIDTH 1500 0
DWIDTH 12 0
BBX 7 5 2 0
BITMAP
42
82
92
92
6C
ENDCHAR
STARTCHAR afii10023
ENCODING 1025
SWIDTH 1500 0
DWIDTH 12 0
BBX 9 7 1 0
BITMAP
2200
FF80
8000
FE00
8000
8000
FF80
ENDCHAR
STARTCHAR afii10017
ENCODING 1040
SWIDTH 1500 0
DWIDTH 12 0
BBX 9 7 1 0
BITMAP
0800
1400
2200
2200
7F00
8080
8080
ENDCHAR
STARTCHAR afii10018
ENCODING 1041
SWIDTH 1500 0
DWIDTH 12 0
BBX 9 7 1 0
BITMAP
FF00
8000
8000
FF00
8080
8080
FF00
ENDCHAR
STARTCHAR afii10019
ENCODING 1042
SWIDTH 1500 0
DWIDTH 12 0
BBX 9 7 1 0
BITMAP
FF00
8080
8080
FF00
8080
8080
FF00
ENDCHAR
STARTCHAR afii10020
ENCODING 1043
SWIDTH 1500 0
DWIDTH 12 0
BBX 9 7 1 0
BITMAP
FF80
8000
8000
8000
8000
8000
8000
ENDCHAR
STARTCHAR afii10021
ENCODING 1044
SWIDTH 1500 0
DWIDTH 12 0
BBX 9 7 1 0
BITMAP
3F00
2100
2100
2100
4100
FF80
8080
ENDCHAR
STARTCHAR afii10022
ENCODING 1045
SWIDTH 1500 0
DWIDTH 12 0
BBX 9 7 1 0
BITMAP
FF80
8000
8000
FE00
8000
8000
FF80
ENDCHAR
STARTCHAR afii10024
ENCODING 1046
SWIDTH 1500 0
DWIDTH 12 0
BBX 11 7 0 0
BITMAP
C460
2480
2480
1F00
2480
4440
8420
ENDCHAR
STARTCHAR afii10025
ENCODING 1047
SWIDTH 1500 0
DWIDTH 12 0
BBX 9 7 1 0
BITMAP
3F00
C080
0080
1F00
0080
C080
3F00
ENDCHAR
STARTCHAR afii10026
ENCODING 1048
SWIDTH 1500 0
DWIDTH 12 0
BBX 9 7 1 0
BITMAP
8180
8280
8480
8880
9080
A080
C080
ENDCHAR
STARTCHAR afii10027
ENCODING 1049
SWIDTH 1500 0
DWIDTH 12 0
BBX 9 7 1 0
BITMAP
2200
9C80
8180
8680
8880
B080
C080
ENDCHAR
STARTCHAR afii10028
ENCODING 1050
SWIDTH 1500 0
DWIDTH 12 0
BBX 9 7 1 0
BITMAP
8380
8400
8800
F000
8C00
8300
8080
ENDCHAR
STARTCHAR afii10029
ENCODING 1051
SWIDTH 1500 0
DWIDTH 12 0
BBX 10 7 0 0
BITMAP
1FC0
1040
1040
1040
1040
2040
C040
ENDCHAR
STARTCHAR afii10030
ENCODING 1052
SWIDTH 1500 0
DWIDTH 12 0
BBX 11 7 0 0
BITMAP
2080
5140
5140
4A40
8420
8420
8020
ENDCHAR
STARTCHAR afii10031
ENCODING 1053
SWIDTH 1500 0
DWIDTH 12 0
BBX 9 7 1 0
BITMAP
8080
8080
8080
FF80
8080
8080
8080
ENDCHAR
STARTCHAR afii10032
ENCODING 1054
SWIDTH 1500 0
DWIDTH 12 0
BBX 9 7 1 0
BITMAP
3E00
4100
8080
8080
8080
4100
3E00
ENDCHAR
STARTCHAR afii10033
ENCODING 1055
SWIDTH 1500 0
DWIDTH 12 0
BBX 9 7 1 0
BITMAP
FF80
8080
8080
8080
8080
8080
8080
ENDCHAR
STARTCHAR afii10034
ENCODING 1056
SWIDTH 1500 0
DWIDTH 12 0
BBX 9 7 1 0
BITMAP
FF00
8080
8080
FF00
8000
8000
8000
ENDCHAR
STARTCHAR afii10035
ENCODING 1057
SWIDTH 1500 0
DWIDTH 12 0
BBX 9 7 1 0
BITMAP
3F00
4080
8000
8000
8000
4080
3F00
ENDCHAR
STARTCHAR afii10036
ENCODING 1058
SWIDTH 1500 0
DWIDTH 12 0
BBX 9 7 1 0
BITMAP
FF80
0800
0800
0800
0800
0800
0800
ENDCHAR
STARTCHAR afii10037
ENCODING 1059
SWIDTH 1500 0
DWIDTH 12 0
BBX 9 7 1 0
BITMAP
8080
4100
2200
1400
0800
1000
6000
ENDCHAR
STARTCHAR afii10038
ENCODING 1060
SWIDTH 1500 0
DWIDTH 12 0
BBX 9 7 1 0
BITMAP
0800
7F00
8880
8880
8880
7F00
0800
ENDCHAR
STARTCHAR afii10039
ENCODING 1061
SWIDTH 1500 0
DWIDTH 12 0
BBX 9 7 1 0
BITMAP
8080
4100
2200
1C00
2200
4100
8080
ENDCHAR
STARTCHAR afii10040
ENCODING 1062
SWIDTH 1500 0
DWIDTH 12 0
BBX 9 7 1 0
BITMAP
8200
8200
8200
8200
8200
FF80
0080
ENDCHAR
STARTCHAR afii10041
ENCODING 1063
SWIDTH 1500 0
DWIDTH 12 0
BBX 9 7 1 0
BITMAP
8080
8080
8080
4180
3E80
0080
0080
ENDCHAR
STARTCHAR afii10042
ENCODING 1064
SWIDTH 1500 0
DWIDTH 12 0
BBX 9 7 1 0
BITMAP
8880
8880
8880
8880
8880
8880
FF80
ENDCHAR
STARTCHAR afii10043
ENCODING 1065
SWIDTH 1500 0
DWIDTH 12 0
BBX 10 7 1 0
BITMAP
8880
8880
8880
8880
8880
FFC0
0040
ENDCHAR
STARTCHAR afii10044
ENCODING 1066
SWIDTH 1500 0
DWIDTH 12 0
BBX 8 7 1 0
BITMAP
C0
40
7E
41
41
41
7E
ENDCHAR
STARTCHAR afii10045
ENCODING 1067
SWIDTH 1500 0
DWIDTH 12 0
BBX 9 7 1 0
BITMAP
8080
8080
FC80
8280
8280
8280
FC80
ENDCHAR
STARTCHAR afii10046
ENCODING 1068
SWIDTH 1500 0
DWIDTH 12 0
BBX 7 7 2 0
BITMAP
80
80
FC
82
82
82
FC
ENDCHAR
STARTCHAR afii10047
ENCODING 1069
SWIDTH 1500 0
DWIDTH 12 0
BBX 9 7 1 0
BITMAP
7E00
8100
0080
3F80
0080
8100
7E00
ENDCHAR
STARTCHAR afii10048
ENCODING 1070
SWIDTH 1500 0
DWIDTH 12 0
BBX 10 7 1 0
BITMAP
8700
8880
9040
F040
9040
8880
8700
ENDCHAR
STARTCHAR afii10049
ENCODING 1071
SWIDTH 1500 0
DWIDTH 12 0
BBX 9 7 1 0
BITMAP
7F80
8080
8080
7F80
1080
6080
8080
ENDCHAR
STARTCHAR afii10065
ENCODING 1072
SWIDTH 1500 0
DWIDTH 12 0
BBX 7 5 2 0
BITMAP
7C
02
7E
82
7E
ENDCHAR
STARTCHAR afii10066
ENCODING 1073
SWIDTH 1500 0
DWIDTH 12 0
BBX 7 7 2 0
BITMAP
3C
40
BC
C2
82
82
7C
ENDCHAR
STARTCHAR afii10067
ENCODING 1074
SWIDTH 1500 0
DWIDTH 12 0
BBX 7 5 2 0
BITMAP
FC
82
FC
82
FC
ENDCHAR
STARTCHAR afii10068
ENCODING 1075
SWIDTH 1500 0
DWIDTH 12 0
BBX 7 5 2 0
BITMAP
FE
80
80
80
80
ENDCHAR
STARTCHAR afii10069
ENCODING 1076
SWIDTH 1500 0
DWIDTH 12 0
BBX 7 5 2 0
BITMAP
3C
24
44
FE
82
ENDCHAR
STARTCHAR afii10070
ENCODING 1077
SWIDTH 1500 0
DWIDTH 12 0
BBX 7 5 2 0
BITMAP
7C
82
FE
80
7C
ENDCHAR
STARTCHAR afii10072
ENCODING 1078
SWIDTH 1500 0
DWIDTH 12 0
BBX 9 5 1 0
BITMAP
C980
2A00
3E00
4900
8880
ENDCHAR
STARTCHAR afii10073
ENCODING 1079
SWIDTH 1500 0
DWIDTH 12 0
BBX 7 5 2 0
BITMAP
FC
02
3C
02
FC
ENDCHAR
STARTCHAR afii10074
ENCODING 1080
SWIDTH 1500 0
DWIDTH 12 0
BBX 7 5 2 0
BITMAP
86
8A
92
A2
C2
ENDCHAR
STARTCHAR afii10075
ENCODING 1081
SWIDTH 1500 0
DWIDTH 12 0
BBX 7 7 2 0
BITMAP
44
38
86
8A
92
A2
C2
ENDCHAR
STARTCHAR afii10076
ENCODING 1082
SWIDTH 1500 0
DWIDTH 12 0
BBX 7 5 2 0
BITMAP
8E
90
E0
98
86
ENDCHAR
STARTCHAR afii10077
ENCODING 1083
SWIDTH 1500 0
DWIDTH 12 0
BBX 8 5 1 0
BITMAP
3F
21
21
21
C1
ENDCHAR
STARTCHAR afii10078
ENCODING 1084
SWIDTH 1500 0
DWIDTH 12 0
BBX 7 5 2 0
BITMAP
82
C6
AA
92
82
ENDCHAR
STARTCHAR afii10079
ENCODING 1085
SWIDTH 1500 0
DWIDTH 12 0
BBX 7 5 2 0
BITMAP
82
82
FE
82
82
ENDCHAR
STARTCHAR afii10080
ENCODING 1086
SWIDTH 1500 0
DWIDTH 12 0
BBX 7 5 2 0
BITMAP
7C
82
82
82
7C
ENDCHAR
STARTCHAR afii10081
ENCODING 1087
SWIDTH 1500 0
DWIDTH 12 0
BBX 7 5 2 0
BITMAP
FE
82
82
82
82
ENDCHAR
STARTCHAR afii10082
ENCODING 1088
SWIDTH 1500 0
DWIDTH 12 0
BBX 7 5 2 0
BITMAP
FC
82
FC
80
80
ENDCHAR
STARTCHAR afii10083
ENCODING 1089
SWIDTH 1500 0
DWIDTH 12 0
BBX 7 5 2 0
BITMAP
7C
82
80
82
7C
ENDCHAR
STARTCHAR afii10084
ENCODING 1090
SWIDTH 1500 0
DWIDTH 12 0
BBX 7 5 2 0
BITMAP
FE
10
10
10
10
ENDCHAR
STARTCHAR afii10085
ENCODING 1091
SWIDTH 1500 0
DWIDTH 12 0
BBX 7 5 2 0
BITMAP
82
44
28
10
E0
ENDCHAR
STARTCHAR afii10086
ENCODING 1092
SWIDTH 1500 0
DWIDTH 12 0
BBX 7 7 2 0
BITMAP
10
10
7C
92
92
7C
10
ENDCHAR
STARTCHAR afii10087
ENCODING 1093
SWIDTH 1500 0
DWIDTH 12 0
BBX 7 5 2 0
BITMAP
82
44
38
44
82
ENDCHAR
STARTCHAR afii10088
ENCODING 1094
SWIDTH 1500 0
DWIDTH 12 0
BBX 7 5 2 0
BITMAP
84
84
84
FE
02
ENDCHAR
STARTCHAR afii10089
ENCODING 1095
SWIDTH 1500 0
DWIDTH 12 0
BBX 7 5 2 0
BITMAP
82
82
86
7A
02
ENDCHAR
STARTCHAR afii10090
ENCODING 1096
SWIDTH 1500 0
DWIDTH 12 0
BBX 7 5 2 0
BITMAP
92
92
92
92
FE
ENDCHAR
STARTCHAR afii10091
ENCODING 1097
SWIDTH 1500 0
DWIDTH 12 0
BBX 8 5 2 0
BITMAP
92
92
92
FF
01
ENDCHAR
STARTCHAR afii10092
ENCODING 1098
SWIDTH 1500 0
DWIDTH 12 0
BBX 8 5 1 0
BITMAP
C0
40
7E
41
7E
ENDCHAR
STARTCHAR afii10093
ENCODING 1099
SWIDTH 1500 0
DWIDTH 12 0
BBX 7 5 2 0
BITMAP
82
82
F2
8A
F2
ENDCHAR
STARTCHAR afii10094
ENCODING 1100
SWIDTH 1500 0
DWIDTH 12 0
BBX 7 5 2 0
BITMAP
80
80
FC
82
FC
ENDCHAR
STARTCHAR afii10095
ENCODING 1101
SWIDTH 1500 0
DWIDTH 12 0
BBX 7 5 2 0
BITMAP
7C
82
1E
82
7C
ENDCHAR
STARTCHAR afii10096
ENCODING 1102
SWIDTH 1500 0
DWIDTH 12 0
BBX 7 5 2 0
BITMAP
9C
A2
E2
A2
9C
ENDCHAR
STARTCHAR afii10097
ENCODING 1103
SWIDTH 1500 0
DWIDTH 12 0
BBX 7 5 2 0
BITMAP
7E
82
7E
22
C2
ENDCHAR
STARTCHAR afii10071
ENCODING 1105
SWIDTH 1500 0
DWIDTH 12 0
BBX 7 7 2 0
BITMAP
44
00
7C
82
FE
80
7C
ENDCHAR
STARTCHAR uni2010
ENCODING 8208
SWIDTH 1500 0
DWIDTH 12 0
BBX 3 1 4 3
BITMAP
E0
ENDCHAR
STARTCHAR uni2011
ENCODING 8209
SWIDTH 750 0
DWIDTH 6 0
BBX 4 1 1 3
BITMAP
F0
ENDCHAR
STARTCHAR figuredash
ENCODING 8210
SWIDTH 750 0
DWIDTH 6 0
BBX 5 1 0 3
BITMAP
F8
ENDCHAR
STARTCHAR endash
ENCODING 8211
SWIDTH 1500 0
DWIDTH 12 0
BBX 6 1 3 3
BITMAP
FC
ENDCHAR
STARTCHAR emdash
ENCODING 8212
SWIDTH 1500 0
DWIDTH 12 0
BBX 11 1 0 3
BITMAP
FFE0
ENDCHAR
STARTCHAR afii00208
ENCODING 8213
SWIDTH 1500 0
DWIDTH 12 0
BBX 11 1 0 3
BITMAP
FFE0
ENDCHAR
STARTCHAR uni2016
ENCODING 8214
SWIDTH 1500 0
DWIDTH 12 0
BBX 5 7 3 0
BITMAP
88
88
88
88
88
88
88
ENDCHAR
STARTCHAR quoteleft
ENCODING 8216
SWIDTH 1500 0
DWIDTH 12 0
BBX 2 3 6 4
BITMAP
40
80
C0
ENDCHAR
STARTCHAR quoteright
ENCODING 8217
SWIDTH 1500 0
DWIDTH 12 0
BBX 2 3 3 4
BITMAP
C0
40
80
ENDCHAR
STARTCHAR quotedblleft
ENCODING 8220
SWIDTH 1500 0
DWIDTH 12 0
BBX 5 3 4 4
BITMAP
48
90
D8
ENDCHAR
STARTCHAR quotedblright
ENCODING 8221
SWIDTH 1500 0
DWIDTH 12 0
BBX 5 3 2 4
BITMAP
D8
48
90
ENDCHAR
STARTCHAR dagger
ENCODING 8224
SWIDTH 1500 0
DWIDTH 12 0
BBX 5 7 3 0
BITMAP
20
F8
20
20
20
20
20
ENDCHAR
STARTCHAR daggerdbl
ENCODING 8225
SWIDTH 1500 0
DWIDTH 12 0
BBX 5 7 3 0
BITMAP
20
F8
20
20
20
F8
20
ENDCHAR
STARTCHAR twodotenleader
ENCODING 8229
SWIDTH 1500 0
DWIDTH 12 0
BBX 7 1 2 3
BITMAP
82
ENDCHAR
STARTCHAR ellipsis
ENCODING 8230
SWIDTH 1500 0
DWIDTH 12 0
BBX 9 1 1 3
BITMAP
8880
ENDCHAR
STARTCHAR perthousand
ENCODING 8240
SWIDTH 1500 0
DWIDTH 12 0
BBX 10 7 1 0
BITMAP
6200
9400
6800
1000
2D80
5240
8D80
ENDCHAR
STARTCHAR minute
ENCODING 8242
SWIDTH 1500 0
DWIDTH 12 0
BBX 2 3 1 4
BITMAP
40
40
80
ENDCHAR
STARTCHAR second
ENCODING 8243
SWIDTH 1500 0
DWIDTH 12 0
BBX 5 3 1 4
BITMAP
48
48
90
ENDCHAR
STARTCHAR uni203B
ENCODING 8251
SWIDTH 1500 0
DWIDTH 12 0
BBX 9 7 1 0
BITMAP
4900
2200
1400
8880
1400
2200
4900
ENDCHAR
STARTCHAR uni203E
ENCODING 8254
SWIDTH 1500 0
DWIDTH 12 0
BBX 11 1 0 6
BITMAP
FFE0
ENDCHAR
STARTCHAR uni2103
ENCODING 8451
SWIDTH 1500 0
DWIDTH 12 0
BBX 9 7 1 0
BITMAP
4700
A880
5000
1000
1000
0880
0700
ENDCHAR
STARTCHAR afii61352
ENCODING 8470
SWIDTH 1500 0
DWIDTH 12 0
BBX 9 7 1 0
BITMAP
9000
9300
D480
B480
9300
9000
9780
ENDCHAR
STARTCHAR uni2121
ENCODING 8481
SWIDTH 1500 0
DWIDTH 12 0
BBX 11 7 0 0
BITMAP
F800
2000
2E80
2880
2E80
2880
2EE0
ENDCHAR
STARTCHAR uni212B
ENCODING 8491
SWIDTH 1500 0
DWIDTH 12 0
BBX 9 7 1 0
BITMAP
1C00
2200
1C00
2200
4100
7F00
8080
ENDCHAR
STARTCHAR uni2160
ENCODING 8544
SWIDTH 1500 0
DWIDTH 12 0
BBX 5 7 3 0
BITMAP
F8
20
20
20
20
20
F8
ENDCHAR
STARTCHAR uni2161
ENCODING 8545
SWIDTH 1500 0
DWIDTH 12 0
BBX 9 7 1 0
BITMAP
FF80
2200
2200
2200
2200
2200
FF80
ENDCHAR
STARTCHAR uni2162
ENCODING 8546
SWIDTH 1500 0
DWIDTH 12 0
BBX 9 7 1 0
BITMAP
FF80
4900
4900
4900
4900
4900
FF80
ENDCHAR
STARTCHAR uni2163
ENCODING 8547
SWIDTH 1500 0
DWIDTH 12 0
BBX 10 7 1 0
BITMAP
FDC0
4880
4880
4500
4500
4200
E200
ENDCHAR
STARTCHAR uni2164
ENCODING 8548
SWIDTH 1500 0
DWIDTH 12 0
BBX 9 7 1 0
BITMAP
E380
4100
2200
2200
1400
1400
0800
ENDCHAR
STARTCHAR uni2165
ENCODING 8549
SWIDTH 1500 0
DWIDTH 12 0
BBX 10 7 0 0
BITMAP
EFC0
4480
4480
2880
2880
1080
11C0
ENDCHAR
STARTCHAR uni2166
ENCODING 8550
SWIDTH 1500 0
DWIDTH 12 0
BBX 11 7 0 0
BITMAP
EFE0
4540
4540
2940
2940
1140
13E0
ENDCHAR
STARTCHAR uni2167
ENCODING 8551
SWIDTH 1500 0
DWIDTH 12 0
BBX 11 7 0 0
BITMAP
DFE0
8D40
5540
5540
5540
2540
2FE0
ENDCHAR
STARTCHAR uni2168
ENCODING 8552
SWIDTH 1500 0
DWIDTH 12 0
BBX 10 7 1 0
BITMAP
FDC0
4880
4500
4200
4500
4880
FDC0
ENDCHAR
STARTCHAR uni2169
ENCODING 8553
SWIDTH 1500 0
DWIDTH 12 0
BBX 9 7 1 0
BITMAP
F780
2200
1400
0800
1400
2200
F780
ENDCHAR
STARTCHAR arrowleft
ENCODING 8592
SWIDTH 1500 0
DWIDTH 12 0
BBX 9 5 1 1
BITMAP
2000
4000
FF80
4000
2000
ENDCHAR
STARTCHAR arrowup
ENCODING 8593
SWIDTH 1500 0
DWIDTH 12 0
BBX 5 7 3 0
BITMAP
20
70
A8
20
20
20
20
ENDCHAR
STARTCHAR arrowright
ENCODING 8594
SWIDTH 1500 0
DWIDTH 12 0
BBX 9 5 1 1
BITMAP
0200
0100
FF80
0100
0200
ENDCHAR
STARTCHAR arrowdown
ENCODING 8595
SWIDTH 1500 0
DWIDTH 12 0
BBX 5 7 3 0
BITMAP
20
20
20
20
A8
70
20
ENDCHAR
STARTCHAR arrowdblright
ENCODING 8658
SWIDTH 1500 0
DWIDTH 12 0
BBX 9 7 1 0
BITMAP
0400
0200
FF00
0080
FF00
0200
0400
ENDCHAR
STARTCHAR arrowdblboth
ENCODING 8660
SWIDTH 1500 0
DWIDTH 12 0
BBX 11 7 0 0
BITMAP
1100
2080
7FC0
8020
7FC0
2080
1100
ENDCHAR
STARTCHAR universal
ENCODING 8704
SWIDTH 1500 0
DWIDTH 12 0
BBX 9 7 1 0
BITMAP
8080
4100
7F00
2200
1400
1400
0800
ENDCHAR
STARTCHAR partialdiff
ENCODING 8706
SWIDTH 1500 0
DWIDTH 12 0
BBX 7 7 2 0
BITMAP
1C
22
02
74
8C
88
70
ENDCHAR
STARTCHAR existential
ENCODING 8707
SWIDTH 1500 0
DWIDTH 12 0
BBX 9 7 1 0
BITMAP
FF80
0080
0080
FF80
0080
0080
FF80
ENDCHAR
STARTCHAR gradient
ENCODING 8711
SWIDTH 1500 0
DWIDTH 12 0
BBX 9 7 1 0
BITMAP
FF80
8080
4100
2200
2200
1400
0800
ENDCHAR
STARTCHAR element
ENCODING 8712
SWIDTH 1500 0
DWIDTH 12 0
BBX 9 5 1 1
BITMAP
7F80
8000
FF80
8000
7F80
ENDCHAR
STARTCHAR suchthat
ENCODING 8715
SWIDTH 1500 0
DWIDTH 12 0
BBX 9 5 1 1
BITMAP
FF00
0080
FF80
0080
FF00
ENDCHAR
STARTCHAR summation
ENCODING 8721
SWIDTH 1500 0
DWIDTH 12 0
BBX 9 7 1 0
BITMAP
FF80
4000
3000
0C00
3000
4000
FF80
ENDCHAR
STARTCHAR minus
ENCODING 8722
SWIDTH 750 0
DWIDTH 6 0
BBX 5 1 0 3
BITMAP
F8
ENDCHAR
STARTCHAR radical
ENCODING 8730
SWIDTH 1500 0
DWIDTH 12 0
BBX 11 7 0 0
BITMAP
0FE0
0800
1000
1000
D000
2000
2000
ENDCHAR
STARTCHAR proportional
ENCODING 8733
SWIDTH 1500 0
DWIDTH 12 0
BBX 9 5 1 1
BITMAP
6300
9480
8800
9480
6300
ENDCHAR
STARTCHAR infinity
ENCODING 8734
SWIDTH 1500 0
DWIDTH 12 0
BBX 9 5 1 1
BITMAP
6300
9480
8880
9480
6300
ENDCHAR
STARTCHAR orthogonal
ENCODING 8735
SWIDTH 1500 0
DWIDTH 12 0
BBX 8 7 2 0
BITMAP
80
80
80
80
80
80
FF
ENDCHAR
STARTCHAR angle
ENCODING 8736
SWIDTH 1500 0
DWIDTH 12 0
BBX 8 7 1 0
BITMAP
02
04
08
10
20
40
FF
ENDCHAR
STARTCHAR uni2225
ENCODING 8741
SWIDTH 1500 0
DWIDTH 12 0
BBX 7 7 2 0
BITMAP
22
22
44
44
44
88
88
ENDCHAR
STARTCHAR logicaland
ENCODING 8743
SWIDTH 1500 0
DWIDTH 12 0
BBX 9 7 1 0
BITMAP
0800
1400
1400
2200
4100
4100
8080
ENDCHAR
STARTCHAR logicalor
ENCODING 8744
SWIDTH 1500 0
DWIDTH 12 0
BBX 9 7 1 0
BITMAP
8080
4100
4100
2200
1400
1400
0800
ENDCHAR
STARTCHAR intersection
ENCODING 8745
SWIDTH 1500 0
DWIDTH 12 0
BBX 7 7 2 0
BITMAP
38
44
82
82
82
82
82
ENDCHAR
STARTCHAR union
ENCODING 8746
SWIDTH 1500 0
DWIDTH 12 0
BBX 7 7 2 0
BITMAP
82
82
82
82
82
44
38
ENDCHAR
STARTCHAR integral
ENCODING 8747
SWIDTH 1500 0
DWIDTH 12 0
BBX 7 7 2 0
BITMAP
0E
10
10
10
10
10
E0
ENDCHAR
STARTCHAR uni222C
ENCODING 8748
SWIDTH 1500 0
DWIDTH 12 0
BBX 9 7 1 0
BITMAP
1980
2200
2200
2200
2200
2200
CC00
ENDCHAR
STARTCHAR uni222E
ENCODING 8750
SWIDTH 1500 0
DWIDTH 12 0
BBX 7 7 2 0
BITMAP
0E
10
7C
92
7C
10
E0
ENDCHAR
STARTCHAR therefore
ENCODING 8756
SWIDTH 1500 0
DWIDTH 12 0
BBX 7 5 2 1
BITMAP
10
00
00
00
82
ENDCHAR
STARTCHAR uni2235
ENCODING 8757
SWIDTH 1500 0
DWIDTH 12 0
BBX 7 5 2 1
BITMAP
82
00
00
00
10
ENDCHAR
STARTCHAR uni223D
ENCODING 8765
SWIDTH 1500 0
DWIDTH 12 0
BBX 9 5 1 1
BITMAP
6300
8480
8880
9080
6300
ENDCHAR
STARTCHAR uni2252
ENCODING 8786
SWIDTH 1500 0
DWIDTH 12 0
BBX 9 7 1 0
BITMAP
2000
0000
FF80
0000
FF80
0000
0200
ENDCHAR
STARTCHAR notequal
ENCODING 8800
SWIDTH 1500 0
DWIDTH 12 0
BBX 9 7 1 0
BITMAP
0100
0200
FF80
0800
FF80
2000
4000
ENDCHAR
STARTCHAR equivalence
ENCODING 8801
SWIDTH 1500 0
DWIDTH 12 0
BBX 9 5 1 1
BITMAP
FF80
0000
FF80
0000
FF80
ENDCHAR
STARTCHAR uni2266
ENCODING 8806
SWIDTH 1500 0
DWIDTH 12 0
BBX 9 7 1 0
BITMAP
0380
3C00
C000
3C00
0380
0000
FF80
ENDCHAR
STARTCHAR uni2267
ENCODING 8807
SWIDTH 1500 0
DWIDTH 12 0
BBX 9 7 1 0
BITMAP
E000
1E00
0180
1E00
E000
0000
FF80
ENDCHAR
STARTCHAR uni226A
ENCODING 8810
SWIDTH 1500 0
DWIDTH 12 0
BBX 10 5 0 1
BITMAP
18C0
6300
8400
6300
18C0
ENDCHAR
STARTCHAR uni226B
ENCODING 8811
SWIDTH 1500 0
DWIDTH 12 0
BBX 10 5 1 1
BITMAP
C600
3180
0840
3180
C600
ENDCHAR
STARTCHAR propersubset
ENCODING 8834
SWIDTH 1500 0
DWIDTH 12 0
BBX 9 5 1 1
BITMAP
7F80
8000
8000
8000
7F80
ENDCHAR
STARTCHAR propersuperset
ENCODING 8835
SWIDTH 1500 0
DWIDTH 12 0
BBX 9 5 1 1
BITMAP
FF00
0080
0080
0080
FF00
ENDCHAR
STARTCHAR reflexsubset
ENCODING 8838
SWIDTH 1500 0
DWIDTH 12 0
BBX 9 7 1 0
BITMAP
7F80
8000
8000
8000
7F80
0000
FF80
ENDCHAR
STARTCHAR reflexsuperset
ENCODING 8839
SWIDTH 1500 0
DWIDTH 12 0
BBX 9 7 1 0
BITMAP
FF00
0080
0080
0080
FF00
0000
FF80
ENDCHAR
STARTCHAR perpendicular
ENCODING 8869
SWIDTH 1500 0
DWIDTH 12 0
BBX 9 7 1 0
BITMAP
0800
0800
0800
0800
0800
0800
FF80
ENDCHAR
STARTCHAR uni22BF
ENCODING 8895
SWIDTH 1500 0
DWIDTH 12 0
BBX 8 7 1 0
BITMAP
03
05
09
11
21
41
FF
ENDCHAR
STARTCHAR uni2312
ENCODING 8978
SWIDTH 1500 0
DWIDTH 12 0
BBX 9 3 1 4
BITMAP
1C00
6300
8080
ENDCHAR
STARTCHAR uni2423
ENCODING 9251
SWIDTH 750 0
DWIDTH 6 0
BBX 5 2 0 0
BITMAP
88
F8
ENDCHAR
STARTCHAR uni2460
ENCODING 9312
SWIDTH 1500 0
DWIDTH 12 0
BBX 11 7 0 0
BITMAP
7FC0
8420
8C20
8420
8420
8420
7FC0
ENDCHAR
STARTCHAR uni2461
ENCODING 9313
SWIDTH 1500 0
DWIDTH 12 0
BBX 11 7 0 0
BITMAP
7FC0
9E20
8120
8E20
9020
9F20
7FC0
ENDCHAR
STARTCHAR uni2462
ENCODING 9314
SWIDTH 1500 0
DWIDTH 12 0
BBX 11 7 0 0
BITMAP
7FC0
9E20
8120
8E20
8120
9E20
7FC0
ENDCHAR
STARTCHAR uni2463
ENCODING 9315
SWIDTH 1500 0
DWIDTH 12 0
BBX 11 7 0 0
BITMAP
7FC0
8620
8A20
9220
9F20
8220
7FC0
ENDCHAR
STARTCHAR uni2464
ENCODING 9316
SWIDTH 1500 0
DWIDTH 12 0
BBX 11 7 0 0
BITMAP
7FC0
9F20
9020
9E20
8120
9E20
7FC0
ENDCHAR
STARTCHAR uni2465
ENCODING 9317
SWIDTH 1500 0
DWIDTH 12 0
BBX 11 7 0 0
BITMAP
7FC0
8620
8820
9E20
9120
8E20
7FC0
ENDCHAR
STARTCHAR uni2466
ENCODING 9318
SWIDTH 1500 0
DWIDTH 12 0
BBX 11 7 0 0
BITMAP
7FC0
9F20
8120
8220
8420
8420
7FC0
ENDCHAR
STARTCHAR uni2467
ENCODING 9319
SWIDTH 1500 0
DWIDTH 12 0
BBX 11 7 0 0
BITMAP
7FC0
8E20
9120
8E20
9120
8E20
7FC0
ENDCHAR
STARTCHAR uni2468
ENCODING 9320
SWIDTH 1500 0
DWIDTH 12 0
BBX 11 7 0 0
BITMAP
7FC0
8E20
9120
8F20
8220
8C20
7FC0
ENDCHAR
STARTCHAR uni2469
ENCODING 9321
SWIDTH 1500 0
DWIDTH 12 0
BBX 11 7 0 0
BITMAP
7FC0
9120
B2A0
92A0
92A0
9120
7FC0
ENDCHAR
STARTCHAR uni246A
ENCODING 9322
SWIDTH 1500 0
DWIDTH 12 0
BBX 11 7 0 0
BITMAP
7FC0
9120
B320
9120
9120
9120
7FC0
ENDCHAR
STARTCHAR uni246B
ENCODING 9323
SWIDTH 1500 0
DWIDTH 12 0
BBX 11 7 0 0
BITMAP
7FC0
9320
B0A0
9120
9220
93A0
7FC0
ENDCHAR
STARTCHAR uni246C
ENCODING 9324
SWIDTH 1500 0
DWIDTH 12 0
BBX 11 7 0 0
BITMAP
7FC0
9320
B0A0
9120
90A0
9320
7FC0
ENDCHAR
STARTCHAR uni246D
ENCODING 9325
SWIDTH 1500 0
DWIDTH 12 0
BBX 11 7 0 0
BITMAP
7FC0
90A0
B1A0
92A0
93A0
90A0
7FC0
ENDCHAR
STARTCHAR uni246E
ENCODING 9326
SWIDTH 1500 0
DWIDTH 12 0
BBX 11 7 0 0
BITMAP
7FC0
93A0
B220
9320
90A0
9320
7FC0
ENDCHAR
STARTCHAR uni246F
ENCODING 9327
SWIDTH 1500 0
DWIDTH 12 0
BBX 11 7 0 0
BITMAP
7FC0
91A0
B220
9320
92A0
9120
7FC0
ENDCHAR
STARTCHAR uni2470
ENCODING 9328
SWIDTH 1500 0
DWIDTH 12 0
BBX 11 7 0 0
BITMAP
7FC0
93A0
B0A0
9120
9120
9120
7FC0
ENDCHAR
STARTCHAR uni2471
ENCODING 9329
SWIDTH 1500 0
DWIDTH 12 0
BBX 11 7 0 0
BITMAP
7FC0
9120
B2A0
9120
92A0
9120
7FC0
ENDCHAR
STARTCHAR uni2472
ENCODING 9330
SWIDTH 1500 0
DWIDTH 12 0
BBX 11 7 0 0
BITMAP
7FC0
9120
B2A0
91A0
90A0
9320
7FC0
ENDCHAR
STARTCHAR uni2473
ENCODING 9331
SWIDTH 1500 0
DWIDTH 12 0
BBX 11 7 0 0
BITMAP
7FC0
B120
8AA0
92A0
A2A0
B920
7FC0
ENDCHAR
STARTCHAR SF100000
ENCODING 9472
SWIDTH 1500 0
DWIDTH 12 0
BBX 12 1 0 3
BITMAP
FFF0
ENDCHAR
STARTCHAR uni2501
ENCODING 9473
SWIDTH 1500 0
DWIDTH 12 0
BBX 12 2 0 2
BITMAP
FFF0
FFF0
ENDCHAR
STARTCHAR SF110000
ENCODING 9474
SWIDTH 1500 0
DWIDTH 12 0
BBX 1 8 5 -1
BITMAP
80
80
80
80
80
80
80
80
ENDCHAR
STARTCHAR uni2503
ENCODING 9475
SWIDTH 1500 0
DWIDTH 12 0
BBX 2 8 5 -1
BITMAP
C0
C0
C0
C0
C0
C0
C0
C0
ENDCHAR
STARTCHAR SF010000
ENCODING 9484
SWIDTH 1500 0
DWIDTH 12 0
BBX 7 5 5 -1
BITMAP
FE
80
80
80
80
ENDCHAR
STARTCHAR uni250F
ENCODING 9487
SWIDTH 1500 0
DWIDTH 12 0
BBX 7 5 5 -1
BITMAP
FE
FE
C0
C0
C0
ENDCHAR
STARTCHAR SF030000
ENCODING 9488
SWIDTH 1500 0
DWIDTH 12 0
BBX 6 5 0 -1
BITMAP
FC
04
04
04
04
ENDCHAR
STARTCHAR uni2513
ENCODING 9491
SWIDTH 1500 0
DWIDTH 12 0
BBX 7 5 0 -1
BITMAP
FE
FE
06
06
06
ENDCHAR
STARTCHAR SF020000
ENCODING 9492
SWIDTH 1500 0
DWIDTH 12 0
BBX 7 4 5 3
BITMAP
80
80
80
FE
ENDCHAR
STARTCHAR uni2517
ENCODING 9495
SWIDTH 1500 0
DWIDTH 12 0
BBX 7 5 5 2
BITMAP
C0
C0
C0
FE
FE
ENDCHAR
STARTCHAR SF040000
ENCODING 9496
SWIDTH 1500 0
DWIDTH 12 0
BBX 6 4 0 3
BITMAP
04
04
04
FC
ENDCHAR
STARTCHAR uni251B
ENCODING 9499
SWIDTH 1500 0
DWIDTH 12 0
BBX 7 5 0 2
BITMAP
06
06
06
FE
FE
ENDCHAR
STARTCHAR SF080000
ENCODING 9500
SWIDTH 1500 0
DWIDTH 12 0
BBX 7 8 5 -1
BITMAP
80
80
80
FE
80
80
80
80
ENDCHAR
STARTCHAR uni251D
ENCODING 9501
SWIDTH 1500 0
DWIDTH 12 0
BBX 7 8 5 -1
BITMAP
80
80
80
FE
FE
80
80
80
ENDCHAR
STARTCHAR uni2520
ENCODING 9504
SWIDTH 1500 0
DWIDTH 12 0
BBX 7 8 5 -1
BITMAP
C0
C0
C0
FE
C0
C0
C0
C0
ENDCHAR
STARTCHAR uni2523
ENCODING 9507
SWIDTH 1500 0
DWIDTH 12 0
BBX 7 8 5 -1
BITMAP
C0
C0
C0
FE
FE
C0
C0
C0
ENDCHAR
STARTCHAR SF090000
ENCODING 9508
SWIDTH 1500 0
DWIDTH 12 0
BBX 6 8 0 -1
BITMAP
04
04
04
FC
04
04
04
04
ENDCHAR
STARTCHAR uni2525
ENCODING 9509
SWIDTH 1500 0
DWIDTH 12 0
BBX 6 8 0 -1
BITMAP
04
04
04
FC
FC
04
04
04
ENDCHAR
STARTCHAR uni2528
ENCODING 9512
SWIDTH 1500 0
DWIDTH 12 0
BBX 7 8 0 -1
BITMAP
06
06
06
FE
06
06
06
06
ENDCHAR
STARTCHAR uni252B
ENCODING 9515
SWIDTH 1500 0
DWIDTH 12 0
BBX 7 8 0 -1
BITMAP
06
06
06
FE
FE
06
06
06
ENDCHAR
STARTCHAR SF060000
ENCODING 9516
SWIDTH 1500 0
DWIDTH 12 0
BBX 12 5 0 -1
BITMAP
FFF0
0400
0400
0400
0400
ENDCHAR
STARTCHAR uni252F
ENCODING 9519
SWIDTH 1500 0
DWIDTH 12 0
BBX 12 5 0 -1
BITMAP
FFF0
FFF0
0400
0400
0400
ENDCHAR
STARTCHAR uni2530
ENCODING 9520
SWIDTH 1500 0
DWIDTH 12 0
BBX 12 5 0 -1
BITMAP
FFF0
0600
0600
0600
0600
ENDCHAR
STARTCHAR uni2533
ENCODING 9523
SWIDTH 1500 0
DWIDTH 12 0
BBX 12 5 0 -1
BITMAP
FFF0
FFF0
0600
0600
0600
ENDCHAR
STARTCHAR SF070000
ENCODING 9524
SWIDTH 1500 0
DWIDTH 12 0
BBX 12 4 0 3
BITMAP
0400
0400
0400
FFF0
ENDCHAR
STARTCHAR uni2537
ENCODING 9527
SWIDTH 1500 0
DWIDTH 12 0
BBX 12 5 0 2
BITMAP
0400
0400
0400
FFF0
FFF0
ENDCHAR
STARTCHAR uni2538
ENCODING 9528
SWIDTH 1500 0
DWIDTH 12 0
BBX 12 4 0 3
BITMAP
0600
0600
0600
FFF0
ENDCHAR
STARTCHAR uni253B
ENCODING 9531
SWIDTH 1500 0
DWIDTH 12 0
BBX 12 5 0 2
BITMAP
0600
0600
0600
FFF0
FFF0
ENDCHAR
STARTCHAR SF050000
ENCODING 9532
SWIDTH 1500 0
DWIDTH 12 0
BBX 12 8 0 -1
BITMAP
0400
0400
0400
FFF0
0400
0400
0400
0400
ENDCHAR
STARTCHAR uni253F
ENCODING 9535
SWIDTH 1500 0
DWIDTH 12 0
BBX 12 8 0 -1
BITMAP
0400
0400
0400
FFF0
FFF0
0400
0400
0400
ENDCHAR
STARTCHAR uni2542
ENCODING 9538
SWIDTH 1500 0
DWIDTH 12 0
BBX 12 8 0 -1
BITMAP
0600
0600
0600
FFF0
0600
0600
0600
0600
ENDCHAR
STARTCHAR uni254B
ENCODING 9547
SWIDTH 1500 0
DWIDTH 12 0
BBX 12 8 0 -1
BITMAP
0600
0600
0600
FFF0
FFF0
0600
0600
0600
ENDCHAR
STARTCHAR SF430000
ENCODING 9552
SWIDTH 1500 0
DWIDTH 12 0
BBX 12 3 0 2
BITMAP
FFF0
0000
FFF0
ENDCHAR
STARTCHAR SF360000
ENCODING 9566
SWIDTH 1500 0
DWIDTH 12 0
BBX 7 8 5 -1
BITMAP
80
80
FE
80
FE
80
80
80
ENDCHAR
STARTCHAR SF190000
ENCODING 9569
SWIDTH 1500 0
DWIDTH 12 0
BBX 6 8 0 -1
BITMAP
04
04
FC
04
FC
04
04
04
ENDCHAR
STARTCHAR SF540000
ENCODING 9578
SWIDTH 1500 0
DWIDTH 12 0
BBX 12 8 0 -1
BITMAP
0400
0400
FFF0
0400
FFF0
0400
0400
0400
ENDCHAR
STARTCHAR uni256D
ENCODING 9581
SWIDTH 1500 0
DWIDTH 12 0
BBX 7 5 5 -1
BITMAP
3E
40
80
80
80
ENDCHAR
STARTCHAR uni256E
ENCODING 9582
SWIDTH 1500 0
DWIDTH 12 0
BBX 6 5 0 -1
BITMAP
F0
08
04
04
04
ENDCHAR
STARTCHAR uni256F
ENCODING 9583
SWIDTH 1500 0
DWIDTH 12 0
BBX 6 4 0 3
BITMAP
04
04
08
F0
ENDCHAR
STARTCHAR uni2570
ENCODING 9584
SWIDTH 1500 0
DWIDTH 12 0
BBX 7 4 5 3
BITMAP
80
80
40
3E
ENDCHAR
STARTCHAR uni2571
ENCODING 9585
SWIDTH 1500 0
DWIDTH 12 0
BBX 12 8 0 -1
BITMAP
0010
0060
0080
0300
0C00
1000
6000
8000
ENDCHAR
STARTCHAR uni2572
ENCODING 9586
SWIDTH 1500 0
DWIDTH 12 0
BBX 12 8 0 -1
BITMAP
8000
6000
1000
0C00
0300
0080
0060
0010
ENDCHAR
STARTCHAR uni2573
ENCODING 9587
SWIDTH 1500 0
DWIDTH 12 0
BBX 12 8 0 -1
BITMAP
8010
6060
1080
0F00
0F00
1080
6060
8010
ENDCHAR
STARTCHAR uni2581
ENCODING 9601
SWIDTH 1500 0
DWIDTH 12 0
BBX 12 1 0 -1
BITMAP
FFF0
ENDCHAR
STARTCHAR uni2582
ENCODING 9602
SWIDTH 1500 0
DWIDTH 12 0
BBX 12 2 0 -1
BITMAP
FFF0
FFF0
ENDCHAR
STARTCHAR uni2583
ENCODING 9603
SWIDTH 1500 0
DWIDTH 12 0
BBX 12 3 0 -1
BITMAP
FFF0
FFF0
FFF0
ENDCHAR
STARTCHAR dnblock
ENCODING 9604
SWIDTH 1500 0
DWIDTH 12 0
BBX 12 4 0 -1
BITMAP
FFF0
FFF0
FFF0
FFF0
ENDCHAR
STARTCHAR uni2585
ENCODING 9605
SWIDTH 1500 0
DWIDTH 12 0
BBX 12 5 0 -1
BITMAP
FFF0
FFF0
FFF0
FFF0
FFF0
ENDCHAR
STARTCHAR uni2586
ENCODING 9606
SWIDTH 1500 0
DWIDTH 12 0
BBX 12 6 0 -1
BITMAP
FFF0
FFF0
FFF0
FFF0
FFF0
FFF0
ENDCHAR
STARTCHAR uni2587
ENCODING 9607
SWIDTH 1500 0
DWIDTH 12 0
BBX 12 7 0 -1
BITMAP
FFF0
FFF0
FFF0
FFF0
FFF0
FFF0
FFF0
ENDCHAR
STARTCHAR block
ENCODING 9608
SWIDTH 1500 0
DWIDTH 12 0
BBX 12 8 0 -1
BITMAP
FFF0
FFF0
FFF0
FFF0
FFF0
FFF0
FFF0
FFF0
ENDCHAR
STARTCHAR uni2589
ENCODING 9609
SWIDTH 1500 0
DWIDTH 12 0
BBX 11 8 0 -1
BITMAP
FFE0
FFE0
FFE0
FFE0
FFE0
FFE0
FFE0
FFE0
ENDCHAR
STARTCHAR uni258A
ENCODING 9610
SWIDTH 1500 0
DWIDTH 12 0
BBX 9 8 0 -1
BITMAP
FF80
FF80
FF80
FF80
FF80
FF80
FF80
FF80
ENDCHAR
STARTCHAR uni258B
ENCODING 9611
SWIDTH 1500 0
DWIDTH 12 0
BBX 8 8 0 -1
BITMAP
FF
FF
FF
FF
FF
FF
FF
FF
ENDCHAR
STARTCHAR lfblock
ENCODING 9612
SWIDTH 1500 0
DWIDTH 12 0
BBX 6 8 0 -1
BITMAP
FC
FC
FC
FC
FC
FC
FC
FC
ENDCHAR
STARTCHAR uni258D
ENCODING 9613
SWIDTH 1500 0
DWIDTH 12 0
BBX 4 8 0 -1
BITMAP
F0
F0
F0
F0
F0
F0
F0
F0
ENDCHAR
STARTCHAR uni258E
ENCODING 9614
SWIDTH 1500 0
DWIDTH 12 0
BBX 3 8 0 -1
BITMAP
E0
E0
E0
E0
E0
E0
E0
E0
ENDCHAR
STARTCHAR uni258F
ENCODING 9615
SWIDTH 1500 0
DWIDTH 12 0
BBX 1 8 0 -1
BITMAP
80
80
80
80
80
80
80
80
ENDCHAR
STARTCHAR uni2594
ENCODING 9620
SWIDTH 1500 0
DWIDTH 12 0
BBX 12 1 0 6
BITMAP
FFF0
ENDCHAR
STARTCHAR uni2595
ENCODING 9621
SWIDTH 1500 0
DWIDTH 12 0
BBX 1 8 11 -1
BITMAP
80
80
80
80
80
80
80
80
ENDCHAR
STARTCHAR filledbox
ENCODING 9632
SWIDTH 1500 0
DWIDTH 12 0
BBX 9 7 1 0
BITMAP
FF80
FF80
FF80
FF80
FF80
FF80
FF80
ENDCHAR
STARTCHAR H22073
ENCODING 9633
SWIDTH 1500 0
DWIDTH 12 0
BBX 9 7 1 0
BITMAP
FF80
8080
8080
8080
8080
8080
FF80
ENDCHAR
STARTCHAR triagup
ENCODING 9650
SWIDTH 1500 0
DWIDTH 12 0
BBX 9 7 1 0
BITMAP
0800
1C00
1C00
3E00
7F00
7F00
FF80
ENDCHAR
STARTCHAR uni25B3
ENCODING 9651
SWIDTH 1500 0
DWIDTH 12 0
BBX 9 7 1 0
BITMAP
0800
1400
1400
2200
4100
4100
FF80
ENDCHAR
STARTCHAR triagdn
ENCODING 9660
SWIDTH 1500 0
DWIDTH 12 0
BBX 9 7 1 0
BITMAP
FF80
7F00
7F00
3E00
1C00
1C00
0800
ENDCHAR
STARTCHAR uni25BD
ENCODING 9661
SWIDTH 1500 0
DWIDTH 12 0
BBX 9 7 1 0
BITMAP
FF80
4100
4100
2200
1400
1400
0800
ENDCHAR
STARTCHAR uni25C6
ENCODING 9670
SWIDTH 1500 0
DWIDTH 12 0
BBX 11 7 0 0
BITMAP
0400
1F00
7FC0
FFE0
7FC0
1F00
0400
ENDCHAR
STARTCHAR uni25C7
ENCODING 9671
SWIDTH 1500 0
DWIDTH 12 0
BBX 11 7 0 0
BITMAP
0400
1B00
60C0
8020
60C0
1B00
0400
ENDCHAR
STARTCHAR circle
ENCODING 9675
SWIDTH 1500 0
DWIDTH 12 0
BBX 11 7 0 0
BITMAP
1F00
60C0
8020
8020
8020
60C0
1F00
ENDCHAR
STARTCHAR uni25CE
ENCODING 9678
SWIDTH 1500 0
DWIDTH 12 0
BBX 11 7 0 0
BITMAP
1F00
60C0
8E20
9120
8E20
60C0
1F00
ENDCHAR
STARTCHAR H18533
ENCODING 9679
SWIDTH 1500 0
DWIDTH 12 0
BBX 11 7 0 0
BITMAP
1F00
7FC0
FFE0
FFE0
FFE0
7FC0
1F00
ENDCHAR
STARTCHAR uni25E2
ENCODING 9698
SWIDTH 1500 0
DWIDTH 12 0
BBX 12 8 0 -1
BITMAP
0010
0070
00F0
03F0
0FF0
1FF0
7FF0
FFF0
ENDCHAR
STARTCHAR uni25E3
ENCODING 9699
SWIDTH 1500 0
DWIDTH 12 0
BBX 12 8 0 -1
BITMAP
8000
E000
F000
FC00
FF00
FF80
FFE0
FFF0
ENDCHAR
STARTCHAR uni25E4
ENCODING 9700
SWIDTH 1500 0
DWIDTH 12 0
BBX 12 8 0 -1
BITMAP
FFF0
FFE0
FF80
FF00
FC00
F000
E000
8000
ENDCHAR
STARTCHAR uni25E5
ENCODING 9701
SWIDTH 1500 0
DWIDTH 12 0
BBX 12 8 0 -1
BITMAP
FFF0
7FF0
1FF0
0FF0
03F0
00F0
0070
0010
ENDCHAR
STARTCHAR uni25EF
ENCODING 9711
SWIDTH 1500 0
DWIDTH 12 0
BBX 11 7 0 0
BITMAP
7FC0
8020
8020
8020
8020
8020
7FC0
ENDCHAR
STARTCHAR uni2605
ENCODING 9733
SWIDTH 1500 0
DWIDTH 12 0
BBX 11 7 0 0
BITMAP
0400
0400
FFE0
3F80
1F00
3B80
60C0
ENDCHAR
STARTCHAR uni2606
ENCODING 9734
SWIDTH 1500 0
DWIDTH 12 0
BBX 11 7 0 0
BITMAP
0400
0400
FBE0
2080
1500
3B80
60C0
ENDCHAR
STARTCHAR female
ENCODING 9792
SWIDTH 1500 0
DWIDTH 12 0
BBX 7 7 2 0
BITMAP
7C
82
82
7C
10
FE
10
ENDCHAR
STARTCHAR male
ENCODING 9794
SWIDTH 1500 0
DWIDTH 12 0
BBX 9 7 1 0
BITMAP
0780
0180
0680
7880
8800
8800
7000
ENDCHAR
STARTCHAR spade
ENCODING 9824
SWIDTH 1500 0
DWIDTH 12 0
BBX 11 7 0 0
BITMAP
0400
1F00
7FC0
FFE0
F5E0
0400
1F00
ENDCHAR
STARTCHAR uni2661
ENCODING 9825
SWIDTH 1500 0
DWIDTH 12 0
BBX 11 6 0 0
BITMAP
7BC0
8420
8020
60C0
1B00
0400
ENDCHAR
STARTCHAR uni2662
ENCODING 9826
SWIDTH 1500 0
DWIDTH 12 0
BBX 11 7 0 0
BITMAP
0400
0A00
3180
C060
3180
0A00
0400
ENDCHAR
STARTCHAR club
ENCODING 9827
SWIDTH 1500 0
DWIDTH 12 0
BBX 11 7 0 0
BITMAP
1F00
1F00
7FC0
FFE0
75C0
0400
1F00
ENDCHAR
STARTCHAR uni2664
ENCODING 9828
SWIDTH 1500 0
DWIDTH 12 0
BBX 11 7 0 0
BITMAP
0400
1B00
60C0
8A20
F5E0
0400
1F00
ENDCHAR
STARTCHAR heart
ENCODING 9829
SWIDTH 1500 0
DWIDTH 12 0
BBX 11 6 0 0
BITMAP
7BC0
FFE0
FFE0
7FC0
1F00
0400
ENDCHAR
STARTCHAR diamond
ENCODING 9830
SWIDTH 1500 0
DWIDTH 12 0
BBX 11 7 0 0
BITMAP
0400
0E00
3F80
FFE0
3F80
0E00
0400
ENDCHAR
STARTCHAR uni2667
ENCODING 9831
SWIDTH 1500 0
DWIDTH 12 0
BBX 11 7 0 0
BITMAP
1F00
1100
71C0
8E20
75C0
0400
1F00
ENDCHAR
STARTCHAR musicalnote
ENCODING 9834
SWIDTH 1500 0
DWIDTH 12 0
BBX 9 7 1 0
BITMAP
0800
0E00
0980
0980
7A00
F800
7000
ENDCHAR
STARTCHAR uni266D
ENCODING 9837
SWIDTH 1500 0
DWIDTH 12 0
BBX 7 7 3 0
BITMAP
80
80
BC
C6
86
98
E0
ENDCHAR
STARTCHAR uni266F
ENCODING 9839
SWIDTH 1500 0
DWIDTH 12 0
BBX 9 7 1 0
BITMAP
0200
2380
3E00
E380
3E00
E200
2000
ENDCHAR
STARTCHAR uni3000
ENCODING 12288
SWIDTH 1500 0
DWIDTH 12 0
BBX 0 0 0 0
BITMAP
ENDCHAR
STARTCHAR uni3001
ENCODING 12289
SWIDTH 1500 0
DWIDTH 12 0
BBX 3 2 1 0
BITMAP
C0
20
ENDCHAR
STARTCHAR uni3002
ENCODING 12290
SWIDTH 1500 0
DWIDTH 12 0
BBX 4 3 1 0
BITMAP
60
90
60
ENDCHAR
STARTCHAR uni3003
ENCODING 12291
SWIDTH 1500 0
DWIDTH 12 0
BBX 7 5 2 1
BITMAP
22
22
22
44
88
ENDCHAR
STARTCHAR uni3005
ENCODING 12293
SWIDTH 1500 0
DWIDTH 12 0
BBX 7 6 2 0
BITMAP
20
3E
42
84
38
04
ENDCHAR
STARTCHAR uni3006
ENCODING 12294
SWIDTH 1500 0
DWIDTH 12 0
BBX 10 7 1 0
BITMAP
0040
1880
2500
4200
4D00
B080
C000
ENDCHAR
STARTCHAR uni3007
ENCODING 12295
SWIDTH 1500 0
DWIDTH 12 0
BBX 9 6 1 0
BITMAP
3E00
4100
8080
8080
4100
3E00
ENDCHAR
STARTCHAR uni3008
ENCODING 12296
SWIDTH 1500 0
DWIDTH 12 0
BBX 4 7 5 0
BITMAP
10
20
40
80
40
20
10
ENDCHAR
STARTCHAR uni3009
ENCODING 12297
SWIDTH 1500 0
DWIDTH 12 0
BBX 4 7 2 0
BITMAP
80
40
20
10
20
40
80
ENDCHAR
STARTCHAR uni300A
ENCODING 12298
SWIDTH 1500 0
DWIDTH 12 0
BBX 7 7 2 0
BITMAP
12
24
48
90
48
24
12
ENDCHAR
STARTCHAR uni300B
ENCODING 12299
SWIDTH 1500 0
DWIDTH 12 0
BBX 7 7 2 0
BITMAP
90
48
24
12
24
48
90
ENDCHAR
STARTCHAR uni300C
ENCODING 12300
SWIDTH 1500 0
DWIDTH 12 0
BBX 5 6 5 1
BITMAP
F8
80
80
80
80
80
ENDCHAR
STARTCHAR uni300D
ENCODING 12301
SWIDTH 1500 0
DWIDTH 12 0
BBX 5 6 1 0
BITMAP
08
08
08
08
08
F8
ENDCHAR
STARTCHAR uni300E
ENCODING 12302
SWIDTH 1500 0
DWIDTH 12 0
BBX 6 6 4 1
BITMAP
FC
84
BC
A0
A0
E0
ENDCHAR
STARTCHAR uni300F
ENCODING 12303
SWIDTH 1500 0
DWIDTH 12 0
BBX 6 6 1 0
BITMAP
1C
14
14
F4
84
FC
ENDCHAR
STARTCHAR uni3010
ENCODING 12304
SWIDTH 1500 0
DWIDTH 12 0
BBX 4 7 5 0
BITMAP
F0
C0
80
80
80
C0
F0
ENDCHAR
STARTCHAR uni3011
ENCODING 12305
SWIDTH 1500 0
DWIDTH 12 0
BBX 4 7 2 0
BITMAP
F0
30
10
10
10
30
F0
ENDCHAR
STARTCHAR uni3012
ENCODING 12306
SWIDTH 1500 0
DWIDTH 12 0
BBX 9 7 1 0
BITMAP
FF80
0000
FF80
0800
0800
0800
0800
ENDCHAR
STARTCHAR uni3013
ENCODING 12307
SWIDTH 1500 0
DWIDTH 12 0
BBX 9 5 1 1
BITMAP
FF80
FF80
0000
FF80
FF80
ENDCHAR
STARTCHAR uni3014
ENCODING 12308
SWIDTH 1500 0
DWIDTH 12 0
BBX 4 7 5 0
BITMAP
30
C0
80
80
80
C0
30
ENDCHAR
STARTCHAR uni3015
ENCODING 12309
SWIDTH 1500 0
DWIDTH 12 0
BBX 4 7 2 0
BITMAP
C0
30
10
10
10
30
C0
ENDCHAR
STARTCHAR uni301C
ENCODING 12316
SWIDTH 1500 0
DWIDTH 12 0
BBX 9 3 1 2
BITMAP
7000
8880
0700
ENDCHAR
STARTCHAR uni301D
ENCODING 12317
SWIDTH 1500 0
DWIDTH 12 0
BBX 5 3 5 4
BITMAP
A0
50
28
ENDCHAR
STARTCHAR uni301F
ENCODING 12319
SWIDTH 1500 0
DWIDTH 12 0
BBX 5 3 1 0
BITMAP
A0
50
28
ENDCHAR
STARTCHAR uni3041
ENCODING 12353
SWIDTH 1500 0
DWIDTH 12 0
BBX 8 6 1 0
BITMAP
10
7E
10
7E
A9
72
ENDCHAR
STARTCHAR uni3042
ENCODING 12354
SWIDTH 1500 0
DWIDTH 12 0
BBX 9 7 1 0
BITMAP
1000
7F00
1000
3F00
5480
9880
7300
ENDCHAR
STARTCHAR uni3043
ENCODING 12355
SWIDTH 1500 0
DWIDTH 12 0
BBX 8 5 1 0
BITMAP
84
82
81
A1
40
ENDCHAR
STARTCHAR uni3044
ENCODING 12356
SWIDTH 1500 0
DWIDTH 12 0
BBX 9 6 1 0
BITMAP
8200
8100
8080
8080
9000
6000
ENDCHAR
STARTCHAR uni3045
ENCODING 12357
SWIDTH 1500 0
DWIDTH 12 0
BBX 8 6 1 0
BITMAP
3C
00
7E
81
02
3C
ENDCHAR
STARTCHAR uni3046
ENCODING 12358
SWIDTH 1500 0
DWIDTH 12 0
BBX 9 7 1 0
BITMAP
3E00
0000
7F00
8080
0080
0300
3C00
ENDCHAR
STARTCHAR uni3047
ENCODING 12359
SWIDTH 1500 0
DWIDTH 12 0
BBX 8 6 1 0
BITMAP
3C
00
7C
08
34
C7
ENDCHAR
STARTCHAR uni3048
ENCODING 12360
SWIDTH 1500 0
DWIDTH 12 0
BBX 9 7 1 0
BITMAP
3E00
0000
7E00
0400
1800
6400
8380
ENDCHAR
STARTCHAR uni3049
ENCODING 12361
SWIDTH 1500 0
DWIDTH 12 0
BBX 8 6 1 0
BITMAP
10
FB
10
7E
91
76
ENDCHAR
STARTCHAR uni304A
ENCODING 12362
SWIDTH 1500 0
DWIDTH 12 0
BBX 9 7 1 0
BITMAP
1000
FB80
1000
1F00
7080
9080
7300
ENDCHAR
STARTCHAR uni304B
ENCODING 12363
SWIDTH 1500 0
DWIDTH 12 0
BBX 9 7 1 0
BITMAP
2000
F900
2480
4480
4480
8400
B800
ENDCHAR
STARTCHAR uni304C
ENCODING 12364
SWIDTH 1500 0
DWIDTH 12 0
BBX 10 7 1 0
BITMAP
2280
F940
2400
4480
4480
8400
B800
ENDCHAR
STARTCHAR uni304D
ENCODING 12365
SWIDTH 1500 0
DWIDTH 12 0
BBX 9 7 1 0
BITMAP
0800
7F00
0400
FF80
2200
4000
3F00
ENDCHAR
STARTCHAR uni304E
ENCODING 12366
SWIDTH 1500 0
DWIDTH 12 0
BBX 10 7 1 0
BITMAP
0A80
7D40
0400
FF80
2200
4000
3F00
ENDCHAR
STARTCHAR uni304F
ENCODING 12367
SWIDTH 1500 0
DWIDTH 12 0
BBX 7 7 2 0
BITMAP
06
18
60
80
60
18
06
ENDCHAR
STARTCHAR uni3050
ENCODING 12368
SWIDTH 1500 0
DWIDTH 12 0
BBX 9 7 2 0
BITMAP
0600
1800
6500
8280
6000
1800
0600
ENDCHAR
STARTCHAR uni3051
ENCODING 12369
SWIDTH 1500 0
DWIDTH 12 0
BBX 9 7 1 0
BITMAP
8200
9F80
8200
8200
8200
8200
0C00
ENDCHAR
STARTCHAR uni3052
ENCODING 12370
SWIDTH 1500 0
DWIDTH 12 0
BBX 10 7 1 0
BITMAP
8280
9F40
8200
8200
8200
8200
0C00
ENDCHAR
STARTCHAR uni3053
ENCODING 12371
SWIDTH 1500 0
DWIDTH 12 0
BBX 9 6 1 0
BITMAP
7F00
0000
0000
4000
8000
7F80
ENDCHAR
STARTCHAR uni3054
ENCODING 12372
SWIDTH 1500 0
DWIDTH 12 0
BBX 10 7 1 0
BITMAP
0280
7D40
0000
0000
4000
8000
7F80
ENDCHAR
STARTCHAR uni3055
ENCODING 12373
SWIDTH 1500 0
DWIDTH 12 0
BBX 9 7 1 0
BITMAP
0400
FF80
0200
3E00
4100
4000
3E00
ENDCHAR
STARTCHAR uni3056
ENCODING 12374
SWIDTH 1500 0
DWIDTH 12 0
BBX 10 7 1 0
BITMAP
0480
FF40
0200
3E00
4100
4000
3E00
ENDCHAR
STARTCHAR uni3057
ENCODING 12375
SWIDTH 1500 0
DWIDTH 12 0
BBX 8 7 2 0
BITMAP
80
80
80
80
81
82
7C
ENDCHAR
STARTCHAR uni3058
ENCODING 12376
SWIDTH 1500 0
DWIDTH 12 0
BBX 8 7 2 0
BITMAP
8A
85
80
80
81
82
7C
ENDCHAR
STARTCHAR uni3059
ENCODING 12377
SWIDTH 1500 0
DWIDTH 12 0
BBX 9 7 1 0
BITMAP
0200
FF80
1200
2200
1E00
0200
1C00
ENDCHAR
STARTCHAR uni305A
ENCODING 12378
SWIDTH 1500 0
DWIDTH 12 0
BBX 10 7 1 0
BITMAP
0280
FF40
1200
2200
1E00
0200
1C00
ENDCHAR
STARTCHAR uni305B
ENCODING 12379
SWIDTH 1500 0
DWIDTH 12 0
BBX 9 7 1 0
BITMAP
2200
FF80
2200
2200
2600
2000
1F00
ENDCHAR
STARTCHAR uni305C
ENCODING 12380
SWIDTH 1500 0
DWIDTH 12 0
BBX 10 7 1 0
BITMAP
2280
FF40
2200
2200
2600
2000
1F00
ENDCHAR
STARTCHAR uni305D
ENCODING 12381
SWIDTH 1500 0
DWIDTH 12 0
BBX 9 7 1 0
BITMAP
7E00
0800
1000
FF80
1000
2000
1E00
ENDCHAR
STARTCHAR uni305E
ENCODING 12382
SWIDTH 1500 0
DWIDTH 12 0
BBX 10 7 1 0
BITMAP
7E80
0940
1000
FF80
1000
2000
1E00
ENDCHAR
STARTCHAR uni305F
ENCODING 12383
SWIDTH 1500 0
DWIDTH 12 0
BBX 9 7 1 0
BITMAP
2000
F800
2700
4000
4800
9000
8F80
ENDCHAR
STARTCHAR uni3060
ENCODING 12384
SWIDTH 1500 0
DWIDTH 12 0
BBX 10 7 1 0
BITMAP
2280
F940
2700
4000
4800
9000
8F80
ENDCHAR
STARTCHAR uni3061
ENCODING 12385
SWIDTH 1500 0
DWIDTH 12 0
BBX 9 7 1 0
BITMAP
1000
FF80
2000
3E00
4100
0100
3E00
ENDCHAR
STARTCHAR uni3062
ENCODING 12386
SWIDTH 1500 0
DWIDTH 12 0
BBX 10 7 1 0
BITMAP
1280
FF40
2000
3E00
4100
0100
3E00
ENDCHAR
STARTCHAR uni3063
ENCODING 12387
SWIDTH 1500 0
DWIDTH 12 0
BBX 8 5 1 0
BITMAP
3E
C1
01
06
38
ENDCHAR
STARTCHAR uni3064
ENCODING 12388
SWIDTH 1500 0
DWIDTH 12 0
BBX 9 6 1 0
BITMAP
3F00
C080
0080
0080
0300
3C00
ENDCHAR
STARTCHAR uni3065
ENCODING 12389
SWIDTH 1500 0
DWIDTH 12 0
BBX 10 7 1 0
BITMAP
0280
3D40
C000
0080
0080
0300
3C00
ENDCHAR
STARTCHAR uni3066
ENCODING 12390
SWIDTH 1500 0
DWIDTH 12 0
BBX 9 7 1 0
BITMAP
FF80
0800
1000
1000
1000
0800
0600
ENDCHAR
STARTCHAR uni3067
ENCODING 12391
SWIDTH 1500 0
DWIDTH 12 0
BBX 10 7 1 0
BITMAP
FF80
0800
1280
1140
1000
0800
0600
ENDCHAR
STARTCHAR uni3068
ENCODING 12392
SWIDTH 1500 0
DWIDTH 12 0
BBX 9 7 1 0
BITMAP
2000
2000
2700
3800
4000
8000
7F80
ENDCHAR
STARTCHAR uni3069
ENCODING 12393
SWIDTH 1500 0
DWIDTH 12 0
BBX 10 7 1 0
BITMAP
2280
2140
2600
3800
4000
8000
7F80
ENDCHAR
STARTCHAR uni306A
ENCODING 12394
SWIDTH 1500 0
DWIDTH 12 0
BBX 9 7 1 0
BITMAP
1000
FB80
2200
4200
9E00
2300
1C80
ENDCHAR
STARTCHAR uni306B
ENCODING 12395
SWIDTH 1500 0
DWIDTH 12 0
BBX 9 7 1 0
BITMAP
8000
9F00
8000
8000
9000
A000
9F80
ENDCHAR
STARTCHAR uni306C
ENCODING 12396
SWIDTH 1500 0
DWIDTH 12 0
BBX 9 7 1 0
BITMAP
4200
5F00
6480
A880
9380
A480
4380
ENDCHAR
STARTCHAR uni306D
ENCODING 12397
SWIDTH 1500 0
DWIDTH 12 0
BBX 9 7 1 0
BITMAP
2000
EF00
3080
2080
6380
A480
2380
ENDCHAR
STARTCHAR uni306E
ENCODING 12398
SWIDTH 1500 0
DWIDTH 12 0
BBX 9 7 1 0
BITMAP
3E00
4900
8880
8880
9080
6100
0E00
ENDCHAR
STARTCHAR uni306F
ENCODING 12399
SWIDTH 1500 0
DWIDTH 12 0
BBX 9 7 1 0
BITMAP
8200
BF80
8200
8200
9E00
A300
9C80
ENDCHAR
STARTCHAR uni3070
ENCODING 12400
SWIDTH 1500 0
DWIDTH 12 0
BBX 10 7 1 0
BITMAP
8280
BF40
8200
8200
9E00
A300
9C80
ENDCHAR
STARTCHAR uni3071
ENCODING 12401
SWIDTH 1500 0
DWIDTH 12 0
BBX 10 7 1 0
BITMAP
8380
BE40
8380
8200
9E00
A300
9C80
ENDCHAR
STARTCHAR uni3072
ENCODING 12402
SWIDTH 1500 0
DWIDTH 12 0
BBX 9 7 1 0
BITMAP
F000
1380
2200
4200
4200
4200
3C00
ENDCHAR
STARTCHAR uni3073
ENCODING 12403
SWIDTH 1500 0
DWIDTH 12 0
BBX 10 7 1 0
BITMAP
F000
1280
2140
4200
4200
4200
3C00
ENDCHAR
STARTCHAR uni3074
ENCODING 12404
SWIDTH 1500 0
DWIDTH 12 0
BBX 10 7 1 0
BITMAP
F180
1240
2180
4200
4200
4200
3C00
ENDCHAR
STARTCHAR uni3075
ENCODING 12405
SWIDTH 1500 0
DWIDTH 12 0
BBX 9 7 1 0
BITMAP
3E00
0400
0800
0400
4300
6280
9C80
ENDCHAR
STARTCHAR uni3076
ENCODING 12406
SWIDTH 1500 0
DWIDTH 12 0
BBX 10 7 1 0
BITMAP
3E80
0540
0800
0400
4300
6280
9C80
ENDCHAR
STARTCHAR uni3077
ENCODING 12407
SWIDTH 1500 0
DWIDTH 12 0
BBX 10 7 1 0
BITMAP
3D80
0640
0980
0400
4300
6280
9C80
ENDCHAR
STARTCHAR uni3078
ENCODING 12408
SWIDTH 1500 0
DWIDTH 12 0
BBX 9 5 1 1
BITMAP
3000
4800
8400
0200
0180
ENDCHAR
STARTCHAR uni3079
ENCODING 12409
SWIDTH 1500 0
DWIDTH 12 0
BBX 10 6 1 1
BITMAP
0280
3140
4800
8400
0200
0180
ENDCHAR
STARTCHAR uni307A
ENCODING 12410
SWIDTH 1500 0
DWIDTH 12 0
BBX 10 6 1 1
BITMAP
0180
3240
4980
8400
0200
0180
ENDCHAR
STARTCHAR uni307B
ENCODING 12411
SWIDTH 1500 0
DWIDTH 12 0
BBX 9 7 1 0
BITMAP
9F80
8200
9F80
8200
9E00
A300
9C80
ENDCHAR
STARTCHAR uni307C
ENCODING 12412
SWIDTH 1500 0
DWIDTH 12 0
BBX 10 7 1 0
BITMAP
9E80
8340
9E00
8200
9E00
A300
9C80
ENDCHAR
STARTCHAR uni307D
ENCODING 12413
SWIDTH 1500 0
DWIDTH 12 0
BBX 10 7 1 0
BITMAP
9D80
8240
9F80
8200
9E00
A300
9C80
ENDCHAR
STARTCHAR uni307E
ENCODING 12414
SWIDTH 1500 0
DWIDTH 12 0
BBX 9 7 1 0
BITMAP
0800
FF80
0800
FF80
4800
8E00
7180
ENDCHAR
STARTCHAR uni307F
ENCODING 12415
SWIDTH 1500 0
DWIDTH 12 0
BBX 9 7 1 0
BITMAP
7800
0800
1100
7F00
9180
A100
4600
ENDCHAR
STARTCHAR uni3080
ENCODING 12416
SWIDTH 1500 0
DWIDTH 12 0
BBX 9 7 1 0
BITMAP
1000
FB80
1000
7100
9080
6080
3F00
ENDCHAR
STARTCHAR uni3081
ENCODING 12417
SWIDTH 1500 0
DWIDTH 12 0
BBX 9 7 1 0
BITMAP
4200
5F00
6480
A880
9080
A880
4300
ENDCHAR
STARTCHAR uni3082
ENCODING 12418
SWIDTH 1500 0
DWIDTH 12 0
BBX 9 7 1 0
BITMAP
1000
FE00
1000
FE00
2080
2080
1F00
ENDCHAR
STARTCHAR uni3083
ENCODING 12419
SWIDTH 1500 0
DWIDTH 12 0
BBX 8 6 1 0
BITMAP
48
5E
E9
22
10
10
ENDCHAR
STARTCHAR uni3084
ENCODING 12420
SWIDTH 1500 0
DWIDTH 12 0
BBX 9 7 1 0
BITMAP
4400
5F00
E480
2080
2300
1000
1000
ENDCHAR
STARTCHAR uni3085
ENCODING 12421
SWIDTH 1500 0
DWIDTH 12 0
BBX 8 6 1 0
BITMAP
10
BE
C9
A9
9E
30
ENDCHAR
STARTCHAR uni3086
ENCODING 12422
SWIDTH 1500 0
DWIDTH 12 0
BBX 9 7 1 0
BITMAP
0800
BF00
C480
8480
9480
8F00
3800
ENDCHAR
STARTCHAR uni3087
ENCODING 12423
SWIDTH 1500 0
DWIDTH 12 0
BBX 8 6 1 0
BITMAP
08
0E
08
78
8C
73
ENDCHAR
STARTCHAR uni3088
ENCODING 12424
SWIDTH 1500 0
DWIDTH 12 0
BBX 9 7 1 0
BITMAP
0800
0F00
0800
0800
7800
8E00
7180
ENDCHAR
STARTCHAR uni3089
ENCODING 12425
SWIDTH 1500 0
DWIDTH 12 0
BBX 9 7 1 0
BITMAP
7000
0E00
4000
BF00
C080
0100
3E00
ENDCHAR
STARTCHAR uni308A
ENCODING 12426
SWIDTH 1500 0
DWIDTH 12 0
BBX 7 7 2 0
BITMAP
9C
A2
C2
82
82
04
38
ENDCHAR
STARTCHAR uni308B
ENCODING 12427
SWIDTH 1500 0
DWIDTH 12 0
BBX 9 7 1 0
BITMAP
7F00
1000
3F00
4080
9880
2480
1F00
ENDCHAR
STARTCHAR uni308C
ENCODING 12428
SWIDTH 1500 0
DWIDTH 12 0
BBX 9 7 1 0
BITMAP
2000
EE00
3100
2100
6200
A280
2100
ENDCHAR
STARTCHAR uni308D
ENCODING 12429
SWIDTH 1500 0
DWIDTH 12 0
BBX 9 7 1 0
BITMAP
7F00
1000
2000
7F00
8080
0080
3F00
ENDCHAR
STARTCHAR uni308E
ENCODING 12430
SWIDTH 1500 0
DWIDTH 12 0
BBX 8 6 1 0
BITMAP
20
EE
31
61
A2
2C
ENDCHAR
STARTCHAR uni308F
ENCODING 12431
SWIDTH 1500 0
DWIDTH 12 0
BBX 9 7 1 0
BITMAP
2000
EF00
3080
2080
6080
A100
2600
ENDCHAR
STARTCHAR uni3090
ENCODING 12432
SWIDTH 1500 0
DWIDTH 12 0
BBX 9 7 1 0
BITMAP
7800
0800
3F00
5080
9380
A480
4380
ENDCHAR
STARTCHAR uni3091
ENCODING 12433
SWIDTH 1500 0
DWIDTH 12 0
BBX 9 7 1 0
BITMAP
3E00
1000
3C00
4200
1C00
6300
9C80
ENDCHAR
STARTCHAR uni3092
ENCODING 12434
SWIDTH 1500 0
DWIDTH 12 0
BBX 9 7 1 0
BITMAP
0800
FE00
2180
7600
9800
2400
1F80
ENDCHAR
STARTCHAR uni3093
ENCODING 12435
SWIDTH 1500 0
DWIDTH 12 0
BBX 9 7 1 0
BITMAP
1000
1000
2000
3800
4480
4480
8300
ENDCHAR
STARTCHAR uni309B
ENCODING 12443
SWIDTH 1500 0
DWIDTH 12 0
BBX 5 2 0 5
BITMAP
90
48
ENDCHAR
STARTCHAR uni309C
ENCODING 12444
SWIDTH 1500 0
DWIDTH 12 0
BBX 4 3 0 4
BITMAP
60
90
60
ENDCHAR
STARTCHAR uni309D
ENCODING 12445
SWIDTH 1500 0
DWIDTH 12 0
BBX 7 5 2 1
BITMAP
E0
18
04
02
3C
ENDCHAR
STARTCHAR uni309E
ENCODING 12446
SWIDTH 1500 0
DWIDTH 12 0
BBX 9 6 2 1
BITMAP
0500
E280
1800
0400
0200
3C00
ENDCHAR
STARTCHAR uni30A1
ENCODING 12449
SWIDTH 1500 0
DWIDTH 12 0
BBX 8 5 1 0
BITMAP
FF
09
0E
08
30
ENDCHAR
STARTCHAR uni30A2
ENCODING 12450
SWIDTH 1500 0
DWIDTH 12 0
BBX 9 7 1 0
BITMAP
FF80
0080
0900
0E00
0800
0800
3000
ENDCHAR
STARTCHAR uni30A3
ENCODING 12451
SWIDTH 1500 0
DWIDTH 12 0
BBX 8 6 1 0
BITMAP
03
0C
38
C8
08
08
ENDCHAR
STARTCHAR uni30A4
ENCODING 12452
SWIDTH 1500 0
DWIDTH 12 0
BBX 9 7 1 0
BITMAP
0080
0300
0C00
3400
C400
0400
0400
ENDCHAR
STARTCHAR uni30A5
ENCODING 12453
SWIDTH 1500 0
DWIDTH 12 0
BBX 8 6 1 0
BITMAP
10
FF
81
81
06
38
ENDCHAR
STARTCHAR uni30A6
ENCODING 12454
SWIDTH 1500 0
DWIDTH 12 0
BBX 9 7 1 0
BITMAP
0800
FF80
8080
8080
0100
0600
3800
ENDCHAR
STARTCHAR uni30A7
ENCODING 12455
SWIDTH 1500 0
DWIDTH 12 0
BBX 7 5 1 0
BITMAP
FE
10
10
10
FE
ENDCHAR
STARTCHAR uni30A8
ENCODING 12456
SWIDTH 1500 0
DWIDTH 12 0
BBX 9 6 1 0
BITMAP
FF80
0800
0800
0800
0800
FF80
ENDCHAR
STARTCHAR uni30A9
ENCODING 12457
SWIDTH 1500 0
DWIDTH 12 0
BBX 8 6 1 0
BITMAP
04
FF
0C
34
C4
1C
ENDCHAR
STARTCHAR uni30AA
ENCODING 12458
SWIDTH 1500 0
DWIDTH 12 0
BBX 9 7 1 0
BITMAP
0200
FF80
0600
0A00
3200
C200
0E00
ENDCHAR
STARTCHAR uni30AB
ENCODING 12459
SWIDTH 1500 0
DWIDTH 12 0
BBX 9 7 1 0
BITMAP
1000
FF80
1080
2080
2080
4080
8700
ENDCHAR
STARTCHAR uni30AC
ENCODING 12460
SWIDTH 1500 0
DWIDTH 12 0
BBX 10 7 1 0
BITMAP
1280
FD40
1000
2080
2080
4080
8700
ENDCHAR
STARTCHAR uni30AD
ENCODING 12461
SWIDTH 1500 0
DWIDTH 12 0
BBX 9 7 1 0
BITMAP
0800
FF80
0800
0800
FF80
0400
0400
ENDCHAR
STARTCHAR uni30AE
ENCODING 12462
SWIDTH 1500 0
DWIDTH 12 0
BBX 10 7 1 0
BITMAP
0A80
FD40
0800
0800
FF80
0400
0400
ENDCHAR
STARTCHAR uni30AF
ENCODING 12463
SWIDTH 1500 0
DWIDTH 12 0
BBX 9 7 1 0
BITMAP
1000
1F80
2080
C080
0100
0600
7800
ENDCHAR
STARTCHAR uni30B0
ENCODING 12464
SWIDTH 1500 0
DWIDTH 12 0
BBX 10 7 1 0
BITMAP
1280
1D40
2000
C080
0100
0600
7800
ENDCHAR
STARTCHAR uni30B1
ENCODING 12465
SWIDTH 1500 0
DWIDTH 12 0
BBX 9 7 1 0
BITMAP
4000
7F80
4400
8400
0400
0800
3000
ENDCHAR
STARTCHAR uni30B2
ENCODING 12466
SWIDTH 1500 0
DWIDTH 12 0
BBX 10 7 1 0
BITMAP
4280
7F40
4400
8400
0400
0800
3000
ENDCHAR
STARTCHAR uni30B3
ENCODING 12467
SWIDTH 1500 0
DWIDTH 12 0
BBX 9 6 1 0
BITMAP
FF80
0080
0080
0080
0080
FF80
ENDCHAR
STARTCHAR uni30B4
ENCODING 12468
SWIDTH 1500 0
DWIDTH 12 0
BBX 10 7 1 0
BITMAP
0280
FD40
0000
0080
0080
0080
FF80
ENDCHAR
STARTCHAR uni30B5
ENCODING 12469
SWIDTH 1500 0
DWIDTH 12 0
BBX 9 7 1 0
BITMAP
2200
FF80
2200
2200
0200
0400
3800
ENDCHAR
STARTCHAR uni30B6
ENCODING 12470
SWIDTH 1500 0
DWIDTH 12 0
BBX 10 7 1 0
BITMAP
2280
FF40
2200
2200
0200
0400
3800
ENDCHAR
STARTCHAR uni30B7
ENCODING 12471
SWIDTH 1500 0
DWIDTH 12 0
BBX 9 7 1 0
BITMAP
6000
1800
C000
3080
0100
0600
7800
ENDCHAR
STARTCHAR uni30B8
ENCODING 12472
SWIDTH 1500 0
DWIDTH 12 0
BBX 10 7 1 0
BITMAP
6280
1940
C000
3080
0100
0600
7800
ENDCHAR
STARTCHAR uni30B9
ENCODING 12473
SWIDTH 1500 0
DWIDTH 12 0
BBX 9 7 1 0
BITMAP
7F00
0100
0200
0400
0A00
3100
C080
ENDCHAR
STARTCHAR uni30BA
ENCODING 12474
SWIDTH 1500 0
DWIDTH 12 0
BBX 10 7 1 0
BITMAP
7E80
0140
0200
0400
0A00
3100
C080
ENDCHAR
STARTCHAR uni30BB
ENCODING 12475
SWIDTH 1500 0
DWIDTH 12 0
BBX 9 7 1 0
BITMAP
2000
FF80
2080
2100
2200
2000
1F80
ENDCHAR
STARTCHAR uni30BC
ENCODING 12476
SWIDTH 1500 0
DWIDTH 12 0
BBX 10 7 1 0
BITMAP
2280
FD40
2000
2100
2200
2000
1F80
ENDCHAR
STARTCHAR uni30BD
ENCODING 12477
SWIDTH 1500 0
DWIDTH 12 0
BBX 9 7 1 0
BITMAP
8080
4080
2100
2100
0200
0C00
3000
ENDCHAR
STARTCHAR uni30BE
ENCODING 12478
SWIDTH 1500 0
DWIDTH 12 0
BBX 10 7 1 0
BITMAP
8280
4140
2000
2100
0200
0C00
3000
ENDCHAR
STARTCHAR uni30BF
ENCODING 12479
SWIDTH 1500 0
DWIDTH 12 0
BBX 9 7 1 0
BITMAP
1000
1F80
2080
D880
0500
0600
7800
ENDCHAR
STARTCHAR uni30C0
ENCODING 12480
SWIDTH 1500 0
DWIDTH 12 0
BBX 10 7 1 0
BITMAP
1280
1D40
2000
D880
0500
0600
7800
ENDCHAR
STARTCHAR uni30C1
ENCODING 12481
SWIDTH 1500 0
DWIDTH 12 0
BBX 9 7 1 0
BITMAP
0700
7800
0800
FF80
0800
0800
3000
ENDCHAR
STARTCHAR uni30C2
ENCODING 12482
SWIDTH 1500 0
DWIDTH 12 0
BBX 10 7 1 0
BITMAP
0680
7940
0800
FF80
0800
0800
3000
ENDCHAR
STARTCHAR uni30C3
ENCODING 12483
SWIDTH 1500 0
DWIDTH 12 0
BBX 8 5 1 0
BITMAP
91
49
49
02
3C
ENDCHAR
STARTCHAR uni30C4
ENCODING 12484
SWIDTH 1500 0
DWIDTH 12 0
BBX 9 6 1 0
BITMAP
9080
4880
4880
0100
0600
3800
ENDCHAR
STARTCHAR uni30C5
ENCODING 12485
SWIDTH 1500 0
DWIDTH 12 0
BBX 10 7 1 0
BITMAP
0280
9140
4800
4880
0100
0600
3800
ENDCHAR
STARTCHAR uni30C6
ENCODING 12486
SWIDTH 1500 0
DWIDTH 12 0
BBX 9 7 1 0
BITMAP
7F00
0000
FF80
0800
0800
0800
3000
ENDCHAR
STARTCHAR uni30C7
ENCODING 12487
SWIDTH 1500 0
DWIDTH 12 0
BBX 10 7 1 0
BITMAP
7A80
0140
FE00
0800
0800
0800
3000
ENDCHAR
STARTCHAR uni30C8
ENCODING 12488
SWIDTH 1500 0
DWIDTH 12 0
BBX 7 7 3 0
BITMAP
80
80
80
F0
8E
80
80
ENDCHAR
STARTCHAR uni30C9
ENCODING 12489
SWIDTH 1500 0
DWIDTH 12 0
BBX 7 7 3 0
BITMAP
94
8A
80
F0
8E
80
80
ENDCHAR
STARTCHAR uni30CA
ENCODING 12490
SWIDTH 1500 0
DWIDTH 12 0
BBX 9 7 1 0
BITMAP
0800
0800
FF80
0800
0800
1000
6000
ENDCHAR
STARTCHAR uni30CB
ENCODING 12491
SWIDTH 1500 0
DWIDTH 12 0
BBX 9 6 1 0
BITMAP
7F00
0000
0000
0000
0000
FF80
ENDCHAR
STARTCHAR uni30CC
ENCODING 12492
SWIDTH 1500 0
DWIDTH 12 0
BBX 9 7 1 0
BITMAP
7F00
0100
3200
0C00
0600
1980
E000
ENDCHAR
STARTCHAR uni30CD
ENCODING 12493
SWIDTH 1500 0
DWIDTH 12 0
BBX 9 7 1 0
BITMAP
0800
FF00
0200
0400
1900
E880
0800
ENDCHAR
STARTCHAR uni30CE
ENCODING 12494
SWIDTH 1500 0
DWIDTH 12 0
BBX 8 7 2 0
BITMAP
01
01
02
02
04
18
E0
ENDCHAR
STARTCHAR uni30CF
ENCODING 12495
SWIDTH 1500 0
DWIDTH 12 0
BBX 9 7 1 0
BITMAP
2200
2200
2100
4100
4100
4080
8080
ENDCHAR
STARTCHAR uni30D0
ENCODING 12496
SWIDTH 1500 0
DWIDTH 12 0
BBX 10 7 1 0
BITMAP
2280
2140
2000
4100
4100
4080
8080
ENDCHAR
STARTCHAR uni30D1
ENCODING 12497
SWIDTH 1500 0
DWIDTH 12 0
BBX 9 7 1 0
BITMAP
2300
2480
2300
4100
4100
4080
8080
ENDCHAR
STARTCHAR uni30D2
ENCODING 12498
SWIDTH 1500 0
DWIDTH 12 0
BBX 8 7 2 0
BITMAP
80
83
9C
E0
80
80
7F
ENDCHAR
STARTCHAR uni30D3
ENCODING 12499
SWIDTH 1500 0
DWIDTH 12 0
BBX 9 7 2 0
BITMAP
8500
8280
9C00
E000
8000
8000
7F00
ENDCHAR
STARTCHAR uni30D4
ENCODING 12500
SWIDTH 1500 0
DWIDTH 12 0
BBX 9 7 2 0
BITMAP
8300
8480
9B00
E000
8000
8000
7F00
ENDCHAR
STARTCHAR uni30D5
ENCODING 12501
SWIDTH 1500 0
DWIDTH 12 0
BBX 9 6 1 0
BITMAP
FF80
0080
0080
0100
0600
3800
ENDCHAR
STARTCHAR uni30D6
ENCODING 12502
SWIDTH 1500 0
DWIDTH 12 0
BBX 10 7 1 0
BITMAP
0280
FD40
0000
0080
0100
0600
3800
ENDCHAR
STARTCHAR uni30D7
ENCODING 12503
SWIDTH 1500 0
DWIDTH 12 0
BBX 10 7 1 0
BITMAP
0180
FE40
0180
0080
0100
0600
3800
ENDCHAR
STARTCHAR uni30D8
ENCODING 12504
SWIDTH 1500 0
DWIDTH 12 0
BBX 9 6 1 0
BITMAP
1000
2800
4400
8200
0100
0080
ENDCHAR
STARTCHAR uni30D9
ENCODING 12505
SWIDTH 1500 0
DWIDTH 12 0
BBX 10 7 1 0
BITMAP
0280
1140
2800
4400
8200
0100
0080
ENDCHAR
STARTCHAR uni30DA
ENCODING 12506
SWIDTH 1500 0
DWIDTH 12 0
BBX 10 7 1 0
BITMAP
0180
1240
2980
4400
8200
0100
0080
ENDCHAR
STARTCHAR uni30DB
ENCODING 12507
SWIDTH 1500 0
DWIDTH 12 0
BBX 9 7 1 0
BITMAP
0800
FF80
0800
4900
4880
8880
3800
ENDCHAR
STARTCHAR uni30DC
ENCODING 12508
SWIDTH 1500 0
DWIDTH 12 0
BBX 10 7 1 0
BITMAP
0A80
FD40
0800
4900
4880
8880
3800
ENDCHAR
STARTCHAR uni30DD
ENCODING 12509
SWIDTH 1500 0
DWIDTH 12 0
BBX 10 7 1 0
BITMAP
0980
FE40
0980
4800
4900
8880
3800
ENDCHAR
STARTCHAR uni30DE
ENCODING 12510
SWIDTH 1500 0
DWIDTH 12 0
BBX 9 6 1 0
BITMAP
FF80
0080
0100
3600
0800
0400
ENDCHAR
STARTCHAR uni30DF
ENCODING 12511
SWIDTH 1500 0
DWIDTH 12 0
BBX 9 7 1 0
BITMAP
7800
0700
7000
0F00
0000
FC00
0380
ENDCHAR
STARTCHAR uni30E0
ENCODING 12512
SWIDTH 1500 0
DWIDTH 12 0
BBX 9 7 1 0
BITMAP
1000
1000
2000
2100
4100
4780
F880
ENDCHAR
STARTCHAR uni30E1
ENCODING 12513
SWIDTH 1500 0
DWIDTH 12 0
BBX 9 7 1 0
BITMAP
0080
3080
0D00
0200
0500
1880
E000
ENDCHAR
STARTCHAR uni30E2
ENCODING 12514
SWIDTH 1500 0
DWIDTH 12 0
BBX 9 7 1 0
BITMAP
7F00
1000
1000
FF80
1000
1000
0F80
ENDCHAR
STARTCHAR uni30E3
ENCODING 12515
SWIDTH 1500 0
DWIDTH 12 0
BBX 7 6 1 0
BITMAP
20
3E
E2
24
10
10
ENDCHAR
STARTCHAR uni30E4
ENCODING 12516
SWIDTH 1500 0
DWIDTH 12 0
BBX 9 7 1 0
BITMAP
2000
2F80
F080
1300
1000
0800
0800
ENDCHAR
STARTCHAR uni30E5
ENCODING 12517
SWIDTH 1500 0
DWIDTH 12 0
BBX 8 5 1 0
BITMAP
7E
02
04
04
FF
ENDCHAR
STARTCHAR uni30E6
ENCODING 12518
SWIDTH 1500 0
DWIDTH 12 0
BBX 9 6 1 0
BITMAP
7F00
0100
0100
0200
0200
FF80
ENDCHAR
STARTCHAR uni30E7
ENCODING 12519
SWIDTH 1500 0
DWIDTH 12 0
BBX 7 5 1 0
BITMAP
FE
02
7E
02
FE
ENDCHAR
STARTCHAR uni30E8
ENCODING 12520
SWIDTH 1500 0
DWIDTH 12 0
BBX 9 6 1 0
BITMAP
FF80
0080
7F80
0080
0080
FF80
ENDCHAR
STARTCHAR uni30E9
ENCODING 12521
SWIDTH 1500 0
DWIDTH 12 0
BBX 9 7 1 0
BITMAP
7F00
0000
FF80
0080
0100
0600
3800
ENDCHAR
STARTCHAR uni30EA
ENCODING 12522
SWIDTH 1500 0
DWIDTH 12 0
BBX 7 7 2 0
BITMAP
82
82
82
82
02
04
38
ENDCHAR
STARTCHAR uni30EB
ENCODING 12523
SWIDTH 1500 0
DWIDTH 12 0
BBX 9 7 1 0
BITMAP
2400
2400
2400
2480
2480
4500
8600
ENDCHAR
STARTCHAR uni30EC
ENCODING 12524
SWIDTH 1500 0
DWIDTH 12 0
BBX 8 7 2 0
BITMAP
80
80
80
81
82
8C
F0
ENDCHAR
STARTCHAR uni30ED
ENCODING 12525
SWIDTH 1500 0
DWIDTH 12 0
BBX 9 6 1 0
BITMAP
FF80
8080
8080
8080
8080
FF80
ENDCHAR
STARTCHAR uni30EE
ENCODING 12526
SWIDTH 1500 0
DWIDTH 12 0
BBX 8 5 1 0
BITMAP
FF
81
81
06
38
ENDCHAR
STARTCHAR uni30EF
ENCODING 12527
SWIDTH 1500 0
DWIDTH 12 0
BBX 9 6 1 0
BITMAP
FF80
8080
8080
0100
0600
3800
ENDCHAR
STARTCHAR uni30F0
ENCODING 12528
SWIDTH 1500 0
DWIDTH 12 0
BBX 9 7 1 0
BITMAP
0200
FF80
2200
2200
2200
FF80
0200
ENDCHAR
STARTCHAR uni30F1
ENCODING 12529
SWIDTH 1500 0
DWIDTH 12 0
BBX 9 6 1 0
BITMAP
FF80
0880
0900
0800
0800
FF80
ENDCHAR
STARTCHAR uni30F2
ENCODING 12530
SWIDTH 1500 0
DWIDTH 12 0
BBX 9 7 1 0
BITMAP
FF80
0080
7F00
0100
0200
0C00
7000
ENDCHAR
STARTCHAR uni30F3
ENCODING 12531
SWIDTH 1500 0
DWIDTH 12 0
BBX 9 7 1 0
BITMAP
C000
2000
0080
0100
0200
0C00
7000
ENDCHAR
STARTCHAR uni30F4
ENCODING 12532
SWIDTH 1500 0
DWIDTH 12 0
BBX 10 7 1 0
BITMAP
1280
FD40
8000
8080
0100
0600
3800
ENDCHAR
STARTCHAR uni30F5
ENCODING 12533
SWIDTH 1500 0
DWIDTH 12 0
BBX 8 6 1 0
BITMAP
10
FF
21
21
41
8E
ENDCHAR
STARTCHAR uni30F6
ENCODING 12534
SWIDTH 1500 0
DWIDTH 12 0
BBX 8 6 1 0
BITMAP
40
7F
48
88
08
30
ENDCHAR
STARTCHAR uni30FB
ENCODING 12539
SWIDTH 1500 0
DWIDTH 12 0
BBX 2 2 4 2
BITMAP
C0
C0
ENDCHAR
STARTCHAR uni30FC
ENCODING 12540
SWIDTH 1500 0
DWIDTH 12 0
BBX 9 2 1 3
BITMAP
8000
7F80
ENDCHAR
STARTCHAR uni30FD
ENCODING 12541
SWIDTH 1500 0
DWIDTH 12 0
BBX 7 5 2 1
BITMAP
E0
18
04
02
02
ENDCHAR
STARTCHAR uni30FE
ENCODING 12542
SWIDTH 1500 0
DWIDTH 12 0
BBX 9 6 2 1
BITMAP
0500
E280
1800
0400
0200
0200
ENDCHAR
STARTCHAR uni3231
ENCODING 12849
SWIDTH 1500 0
DWIDTH 12 0
BBX 11 7 0 0
BITMAP
5640
B720
9A20
BFA0
B720
9AA0
5240
ENDCHAR
STARTCHAR uni3232
ENCODING 12850
SWIDTH 1500 0
DWIDTH 12 0
BBX 11 7 0 0
BITMAP
4840
9F20
8820
9F20
A920
8F20
4940
ENDCHAR
STARTCHAR uni3239
ENCODING 12857
SWIDTH 1500 0
DWIDTH 12 0
BBX 11 7 0 0
BITMAP
4B40
9220
B7A0
9220
9220
9120
50C0
ENDCHAR
STARTCHAR uni32A4
ENCODING 12964
SWIDTH 1500 0
DWIDTH 12 0
BBX 11 7 0 0
BITMAP
7FC0
8420
8620
8420
8420
9F20
7FC0
ENDCHAR
STARTCHAR uni32A5
ENCODING 12965
SWIDTH 1500 0
DWIDTH 12 0
BBX 11 7 0 0
BITMAP
7FC0
8420
9F20
9520
9F20
8420
7FC0
ENDCHAR
STARTCHAR uni32A6
ENCODING 12966
SWIDTH 1500 0
DWIDTH 12 0
BBX 11 7 0 0
BITMAP
7FC0
9F20
8420
8620
8420
8420
7FC0
ENDCHAR
STARTCHAR uni32A7
ENCODING 12967
SWIDTH 1500 0
DWIDTH 12 0
BBX 11 7 0 0
BITMAP
7FC0
9F20
8820
9720
8220
8F20
7FC0
ENDCHAR
STARTCHAR uni32A8
ENCODING 12968
SWIDTH 1500 0
DWIDTH 12 0
BBX 11 7 0 0
BITMAP
7FC0
8820
9F20
8820
9720
8720
7FC0
ENDCHAR
STARTCHAR uni32FF
ENCODING 13055
SWIDTH 1500 0
DWIDTH 12 0
BBX 11 7 0 0
BITMAP
2380
5160
BBE0
0160
FBE0
2B60
2100
ENDCHAR
STARTCHAR uni3303
ENCODING 13059
SWIDTH 1500 0
DWIDTH 12 0
BBX 9 7 1 0
BITMAP
F000
5780
6000
8000
2000
A800
B000
ENDCHAR
STARTCHAR uni330D
ENCODING 13069
SWIDTH 1500 0
DWIDTH 12 0
BBX 9 7 1 0
BITMAP
2780
F480
5780
0000
9000
9780
2000
ENDCHAR
STARTCHAR uni3314
ENCODING 13076
SWIDTH 1500 0
DWIDTH 12 0
BBX 9 7 1 0
BITMAP
4000
F000
4000
F780
2480
0480
0780
ENDCHAR
STARTCHAR uni3318
ENCODING 13080
SWIDTH 1500 0
DWIDTH 12 0
BBX 9 7 1 0
BITMAP
6B80
A000
2380
C080
2300
4800
F800
ENDCHAR
STARTCHAR uni3322
ENCODING 13090
SWIDTH 1500 0
DWIDTH 12 0
BBX 10 7 1 0
BITMAP
4300
F840
4880
7300
2000
F800
2000
ENDCHAR
STARTCHAR uni3323
ENCODING 13091
SWIDTH 1500 0
DWIDTH 12 0
BBX 10 7 1 0
BITMAP
4300
F840
4840
7380
2000
3800
2000
ENDCHAR
STARTCHAR uni3326
ENCODING 13094
SWIDTH 1500 0
DWIDTH 12 0
BBX 9 7 2 0
BITMAP
A800
8000
E000
8000
0A00
0A80
0B00
ENDCHAR
STARTCHAR uni3327
ENCODING 13095
SWIDTH 1500 0
DWIDTH 12 0
BBX 9 7 1 0
BITMAP
8000
8000
F000
8600
0080
0080
0700
ENDCHAR
STARTCHAR uni332B
ENCODING 13099
SWIDTH 1500 0
DWIDTH 12 0
BBX 10 7 1 0
BITMAP
B800
9B80
9000
0000
EA80
A2C0
CC80
ENDCHAR
STARTCHAR uni3336
ENCODING 13110
SWIDTH 1500 0
DWIDTH 12 0
BBX 11 7 0 0
BITMAP
21C0
5240
0880
6000
A140
6D40
C160
ENDCHAR
STARTCHAR uni333B
ENCODING 13115
SWIDTH 1500 0
DWIDTH 12 0
BBX 10 7 1 0
BITMAP
4C00
ADC0
1000
C000
D400
2000
C000
ENDCHAR
STARTCHAR uni3349
ENCODING 13129
SWIDTH 1500 0
DWIDTH 12 0
BBX 9 7 1 0
BITMAP
E000
0000
6000
0480
7480
0080
0300
ENDCHAR
STARTCHAR uni334A
ENCODING 13130
SWIDTH 1500 0
DWIDTH 12 0
BBX 11 7 0 0
BITMAP
7240
3240
3880
0000
A940
9740
9160
ENDCHAR
STARTCHAR uni334D
ENCODING 13133
SWIDTH 1500 0
DWIDTH 12 0
BBX 10 7 1 0
BITMAP
5000
2780
D000
0000
4500
7540
4580
ENDCHAR
STARTCHAR uni3351
ENCODING 13137
SWIDTH 1500 0
DWIDTH 12 0
BBX 10 7 1 0
BITMAP
9000
9580
2080
0000
4500
7540
4580
ENDCHAR
STARTCHAR uni3357
ENCODING 13143
SWIDTH 1500 0
DWIDTH 12 0
BBX 9 7 1 0
BITMAP
F000
9580
2080
0000
4000
7000
4000
ENDCHAR
STARTCHAR uni337B
ENCODING 13179
SWIDTH 1500 0
DWIDTH 12 0
BBX 11 7 0 0
BITMAP
F840
23E0
AA40
23C0
FAE0
2340
22A0
ENDCHAR
STARTCHAR uni337C
ENCODING 13180
SWIDTH 1500 0
DWIDTH 12 0
BBX 11 7 0 0
BITMAP
3B80
D960
ABE0
C160
BBE0
EB60
3900
ENDCHAR
STARTCHAR uni337D
ENCODING 13181
SWIDTH 1500 0
DWIDTH 12 0
BBX 11 7 0 0
BITMAP
23E0
2040
F840
2160
2140
5140
8BE0
ENDCHAR
STARTCHAR uni337E
ENCODING 13182
SWIDTH 1500 0
DWIDTH 12 0
BBX 11 7 0 0
BITMAP
FA40
A880
FAA0
A8E0
FA00
2AE0
5AE0
ENDCHAR
STARTCHAR uni338E
ENCODING 13198
SWIDTH 1500 0
DWIDTH 12 0
BBX 11 5 0 0
BITMAP
D1E0
AA20
A9E0
A820
89C0
ENDCHAR
STARTCHAR uni338F
ENCODING 13199
SWIDTH 1500 0
DWIDTH 12 0
BBX 10 7 1 0
BITMAP
8000
8000
93C0
A440
C3C0
A040
9380
ENDCHAR
STARTCHAR uni339C
ENCODING 13212
SWIDTH 1500 0
DWIDTH 12 0
BBX 11 5 0 0
BITMAP
D340
AAA0
AAA0
AAA0
8A20
ENDCHAR
STARTCHAR uni339D
ENCODING 13213
SWIDTH 1500 0
DWIDTH 12 0
BBX 10 5 1 0
BITMAP
7680
8540
8540
8540
7440
ENDCHAR
STARTCHAR uni339E
ENCODING 13214
SWIDTH 1500 0
DWIDTH 12 0
BBX 10 7 1 0
BITMAP
8000
8000
9680
A540
C540
A540
9440
ENDCHAR
STARTCHAR uni33A1
ENCODING 13217
SWIDTH 1500 0
DWIDTH 12 0
BBX 9 7 1 0
BITMAP
0300
0080
D100
AB80
A800
A800
8800
ENDCHAR
STARTCHAR uni33C4
ENCODING 13252
SWIDTH 1500 0
DWIDTH 12 0
BBX 9 5 1 0
BITMAP
7380
8400
8400
8400
7380
ENDCHAR
STARTCHAR uni33CD
ENCODING 13261
SWIDTH 1500 0
DWIDTH 12 0
BBX 11 7 0 0
BITMAP
A280
A280
C300
C300
A280
A280
AAA0
ENDCHAR
STARTCHAR uni4E00
ENCODING 19968
SWIDTH 1500 0
DWIDTH 12 0
BBX 11 2 0 3
BITMAP
0040
FFE0
ENDCHAR
STARTCHAR uni4E01
ENCODING 19969
SWIDTH 1500 0
DWIDTH 12 0
BBX 11 7 0 0
BITMAP
FFE0
0400
0400
0400
0400
0400
1C00
ENDCHAR
STARTCHAR uni4E03
ENCODING 19971
SWIDTH 1500 0
DWIDTH 12 0
BBX 11 7 0 0
BITMAP
1000
10E0
1F00
F000
1000
1040
0FC0
ENDCHAR
STARTCHAR uni4E07
ENCODING 19975
SWIDTH 1500 0
DWIDTH 12 0
BBX 11 7 0 0
BITMAP
FFE0
0800
0FC0
0840
1040
2040
C1C0
ENDCHAR
STARTCHAR uni4E08
ENCODING 19976
SWIDTH 1500 0
DWIDTH 12 0
BBX 11 7 0 0
BITMAP
0400
FFE0
0400
1400
0800
1600
E1E0
ENDCHAR
STARTCHAR uni4E09
ENCODING 19977
SWIDTH 1500 0
DWIDTH 12 0
BBX 11 7 0 0
BITMAP
3F80
0000
0000
1F00
0000
0000
FFE0
ENDCHAR
STARTCHAR uni4E0A
ENCODING 19978
SWIDTH 1500 0
DWIDTH 12 0
BBX 11 7 0 0
BITMAP
0400
0400
07C0
0400
0400
0400
FFE0
ENDCHAR
STARTCHAR uni4E0B
ENCODING 19979
SWIDTH 1500 0
DWIDTH 12 0
BBX 11 7 0 0
BITMAP
FFE0
0400
0600
0500
0480
0400
0400
ENDCHAR
STARTCHAR uni4E0D
ENCODING 19981
SWIDTH 1500 0
DWIDTH 12 0
BBX 11 7 0 0
BITMAP
7FC0
0200
0400
1D80
E460
0400
0400
ENDCHAR
STARTCHAR uni4E0E
ENCODING 19982
SWIDTH 1500 0
DWIDTH 12 0
BBX 11 7 0 0
BITMAP
1000
1F80
1000
1F00
FFE0
0100
0E00
ENDCHAR
STARTCHAR uni4E11
ENCODING 19985
SWIDTH 1500 0
DWIDTH 12 0
BBX 11 7 0 0
BITMAP
3F80
0880
0880
FFE0
1080
1080
7FC0
ENDCHAR
STARTCHAR uni4E14
ENCODING 19988
SWIDTH 1500 0
DWIDTH 12 0
BBX 11 7 0 0
BITMAP
3F80
2080
3F80
2080
3F80
2080
FFE0
ENDCHAR
STARTCHAR uni4E16
ENCODING 19990
SWIDTH 1500 0
DWIDTH 12 0
BBX 11 7 0 0
BITMAP
2480
2480
FFE0
2480
2780
2000
3FC0
ENDCHAR
STARTCHAR uni4E18
ENCODING 19992
SWIDTH 1500 0
DWIDTH 12 0
BBX 11 7 0 0
BITMAP
0180
3E00
2000
3FC0
2100
2100
FFE0
ENDCHAR
STARTCHAR uni4E19
ENCODING 19993
SWIDTH 1500 0
DWIDTH 12 0
BBX 11 7 0 0
BITMAP
FFE0
0400
7FC0
4440
4A40
5140
40C0
ENDCHAR
STARTCHAR uni4E1E
ENCODING 19998
SWIDTH 1500 0
DWIDTH 12 0
BBX 11 7 0 0
BITMAP
3F80
0100
F660
2580
C460
0C00
FFE0
ENDCHAR
STARTCHAR uni4E21
ENCODING 20001
SWIDTH 1500 0
DWIDTH 12 0
BBX 11 7 0 0
BITMAP
FFE0
0400
7FC0
4440
5540
5F40
40C0
ENDCHAR
STARTCHAR uni4E26
ENCODING 20006
SWIDTH 1500 0
DWIDTH 12 0
BBX 11 7 0 0
BITMAP
2080
FFE0
0A00
4A40
2A80
0A00
FFE0
ENDCHAR
STARTCHAR uni4E2D
ENCODING 20013
SWIDTH 1500 0
DWIDTH 12 0
BBX 9 7 1 0
BITMAP
0800
FF80
8880
8880
FF80
0800
0800
ENDCHAR
STARTCHAR uni4E32
ENCODING 20018
SWIDTH 1500 0
DWIDTH 12 0
BBX 11 7 0 0
BITMAP
0400
3F80
2480
FFE0
8420
FFE0
0400
ENDCHAR
STARTCHAR uni4E38
ENCODING 20024
SWIDTH 1500 0
DWIDTH 12 0
BBX 11 7 0 0
BITMAP
1000
FF00
1100
7100
1D00
2120
C1E0
ENDCHAR
STARTCHAR uni4E39
ENCODING 20025
SWIDTH 1500 0
DWIDTH 12 0
BBX 11 7 0 0
BITMAP
3F80
2880
2480
2080
FFE0
2080
4380
ENDCHAR
STARTCHAR uni4E3B
ENCODING 20027
SWIDTH 1500 0
DWIDTH 12 0
BBX 11 7 0 0
BITMAP
0800
0400
7FC0
0400
3F80
0400
FFE0
ENDCHAR
STARTCHAR uni4E43
ENCODING 20035
SWIDTH 1500 0
DWIDTH 12 0
BBX 11 7 0 0
BITMAP
7F00
0900
09E0
1020
1020
2020
C0C0
ENDCHAR
STARTCHAR uni4E45
ENCODING 20037
SWIDTH 1500 0
DWIDTH 12 0
BBX 11 7 0 0
BITMAP
0800
0F80
1080
6100
0200
0D80
F060
ENDCHAR
STARTCHAR uni4E4B
ENCODING 20043
SWIDTH 1500 0
DWIDTH 12 0
BBX 11 7 0 0
BITMAP
0400
7FC0
0080
0300
2C00
3000
CFE0
ENDCHAR
STARTCHAR uni4E4D
ENCODING 20045
SWIDTH 1500 0
DWIDTH 12 0
BBX 11 7 0 0
BITMAP
1000
1FE0
2400
C7C0
0400
07C0
0400
ENDCHAR
STARTCHAR uni4E4E
ENCODING 20046
SWIDTH 1500 0
DWIDTH 12 0
BBX 11 7 0 0
BITMAP
0180
7E00
2480
0400
FFE0
0400
1C00
ENDCHAR
STARTCHAR uni4E4F
ENCODING 20047
SWIDTH 1500 0
DWIDTH 12 0
BBX 11 7 0 0
BITMAP
3F80
0400
7F80
0080
2700
3800
C7E0
ENDCHAR
STARTCHAR uni4E57
ENCODING 20055
SWIDTH 1500 0
DWIDTH 12 0
BBX 11 7 0 0
BITMAP
0380
3C00
FFE0
2480
FFE0
1500
E4E0
ENDCHAR
STARTCHAR uni4E59
ENCODING 20057
SWIDTH 1500 0
DWIDTH 12 0
BBX 10 7 1 0
BITMAP
7F00
0100
0E00
3000
4000
8040
7FC0
ENDCHAR
STARTCHAR uni4E5D
ENCODING 20061
SWIDTH 1500 0
DWIDTH 12 0
BBX 11 7 0 0
BITMAP
1000
FF00
1100
2100
2100
4120
81E0
ENDCHAR
STARTCHAR uni4E5E
ENCODING 20062
SWIDTH 1500 0
DWIDTH 12 0
BBX 11 7 0 0
BITMAP
2000
3FC0
4000
BF80
1000
2020
1FE0
ENDCHAR
STARTCHAR uni4E5F
ENCODING 20063
SWIDTH 1500 0
DWIDTH 12 0
BBX 11 7 0 0
BITMAP
2400
27C0
3C40
E4C0
2400
2020
1FE0
ENDCHAR
STARTCHAR uni4E71
ENCODING 20081
SWIDTH 1500 0
DWIDTH 12 0
BBX 11 7 0 0
BITMAP
0D00
7100
FD00
1100
7D00
4520
7DE0
ENDCHAR
STARTCHAR uni4E73
ENCODING 20083
SWIDTH 1500 0
DWIDTH 12 0
BBX 11 7 0 0
BITMAP
7D00
A900
0100
7900
0900
FD20
31E0
ENDCHAR
STARTCHAR uni4E7E
ENCODING 20094
SWIDTH 1500 0
DWIDTH 12 0
BBX 11 7 0 0
BITMAP
2200
FBE0
7400
53C0
7100
FA20
21E0
ENDCHAR
STARTCHAR uni4E80
ENCODING 20096
SWIDTH 1500 0
DWIDTH 12 0
BBX 11 7 0 0
BITMAP
1E00
E200
3F00
7F80
4480
7FA0
03E0
ENDCHAR
STARTCHAR uni4E86
ENCODING 20102
SWIDTH 1500 0
DWIDTH 12 0
BBX 11 7 0 0
BITMAP
FFE0
0080
0700
0400
0400
0400
1C00
ENDCHAR
STARTCHAR uni4E88
ENCODING 20104
SWIDTH 1500 0
DWIDTH 12 0
BBX 11 7 0 0
BITMAP
3F80
0100
0A00
FFE0
0440
0400
1C00
ENDCHAR
STARTCHAR uni4E89
ENCODING 20105
SWIDTH 1500 0
DWIDTH 12 0
BBX 11 7 0 0
BITMAP
1E00
2200
DF80
04E0
FF80
0400
1C00
ENDCHAR
STARTCHAR uni4E8B
ENCODING 20107
SWIDTH 1500 0
DWIDTH 12 0
BBX 11 7 0 0
BITMAP
0400
FFE0
2480
FF80
04E0
FF80
0C00
ENDCHAR
STARTCHAR uni4E8C
ENCODING 20108
SWIDTH 1500 0
DWIDTH 12 0
BBX 11 6 0 0
BITMAP
3F80
0000
0000
0000
0040
FFE0
ENDCHAR
STARTCHAR uni4E91
ENCODING 20113
SWIDTH 1500 0
DWIDTH 12 0
BBX 11 7 0 0
BITMAP
3F80
0000
0000
FFE0
0800
1080
7F40
ENDCHAR
STARTCHAR uni4E92
ENCODING 20114
SWIDTH 1500 0
DWIDTH 12 0
BBX 11 7 0 0
BITMAP
FFE0
1000
1F80
2080
3F00
0100
FFE0
ENDCHAR
STARTCHAR uni4E94
ENCODING 20116
SWIDTH 1500 0
DWIDTH 12 0
BBX 11 7 0 0
BITMAP
7FC0
0800
0800
7F80
1080
2080
FFE0
ENDCHAR
STARTCHAR uni4E95
ENCODING 20117
SWIDTH 1500 0
DWIDTH 12 0
BBX 11 7 0 0
BITMAP
1100
7FC0
1100
1100
FFE0
1100
6100
ENDCHAR
STARTCHAR uni4E98
ENCODING 20120
SWIDTH 1500 0
DWIDTH 12 0
BBX 11 7 0 0
BITMAP
FFE0
3F80
2080
3F80
2080
3F80
FFE0
ENDCHAR
STARTCHAR uni4E99
ENCODING 20121
SWIDTH 1500 0
DWIDTH 12 0
BBX 11 7 0 0
BITMAP
FFE0
1000
1F80
2280
2900
0500
FFE0
ENDCHAR
STARTCHAR uni4E9B
ENCODING 20123
SWIDTH 1500 0
DWIDTH 12 0
BBX 11 7 0 0
BITMAP
1140
5D80
5120
FDE0
3F80
0000
FFE0
ENDCHAR
STARTCHAR uni4E9C
ENCODING 20124
SWIDTH 1500 0
DWIDTH 12 0
BBX 11 7 0 0
BITMAP
FFE0
0A00
7FC0
4A40
7FC0
0A00
FFE0
ENDCHAR
STARTCHAR uni4EA1
ENCODING 20129
SWIDTH 1500 0
DWIDTH 12 0
BBX 11 7 0 0
BITMAP
0400
FFE0
2000
2000
2000
2000
1FC0
ENDCHAR
STARTCHAR uni4EA4
ENCODING 20132
SWIDTH 1500 0
DWIDTH 12 0
BBX 11 7 0 0
BITMAP
0400
FFE0
2080
D160
0E00
3180
C060
ENDCHAR
STARTCHAR uni4EA5
ENCODING 20133
SWIDTH 1500 0
DWIDTH 12 0
BBX 11 7 0 0
BITMAP
0400
FFE0
1100
0E40
7880
0340
FC20
ENDCHAR
STARTCHAR uni4EA6
ENCODING 20134
SWIDTH 1500 0
DWIDTH 12 0
BBX 11 7 0 0
BITMAP
0400
FFE0
1100
5140
5120
9120
2700
ENDCHAR
STARTCHAR uni4EA8
ENCODING 20136
SWIDTH 1500 0
DWIDTH 12 0
BBX 11 7 0 0
BITMAP
0400
FFE0
2080
7F80
0200
0400
1C00
ENDCHAR
STARTCHAR uni4EAB
ENCODING 20139
SWIDTH 1500 0
DWIDTH 12 0
BBX 11 7 0 0
BITMAP
0400
FFE0
2080
3F80
0200
FFE0
0C00
ENDCHAR
STARTCHAR uni4EAC
ENCODING 20140
SWIDTH 1500 0
DWIDTH 12 0
BBX 11 7 0 0
BITMAP
0400
FFE0
2080
3F80
0400
2480
DC60
ENDCHAR
STARTCHAR uni4EAD
ENCODING 20141
SWIDTH 1500 0
DWIDTH 12 0
BBX 11 7 0 0
BITMAP
0400
FFE0
2080
FFE0
9F20
0400
1C00
ENDCHAR
STARTCHAR uni4EAE
ENCODING 20142
SWIDTH 1500 0
DWIDTH 12 0
BBX 11 7 0 0
BITMAP
0400
FFE0
2080
7FC0
4A40
1220
E3E0
ENDCHAR
STARTCHAR uni4EBA
ENCODING 20154
SWIDTH 1500 0
DWIDTH 12 0
BBX 11 7 0 0
BITMAP
0400
0400
0400
0400
0A00
3180
C060
ENDCHAR
STARTCHAR uni4EC0
ENCODING 20160
SWIDTH 1500 0
DWIDTH 12 0
BBX 11 7 0 0
BITMAP
1100
2100
6FE0
A100
2100
2100
2100
ENDCHAR
STARTCHAR uni4EC1
ENCODING 20161
SWIDTH 1500 0
DWIDTH 12 0
BBX 11 7 0 0
BITMAP
1000
27C0
6000
A000
2000
2000
2FE0
ENDCHAR
STARTCHAR uni4EC7
ENCODING 20167
SWIDTH 1500 0
DWIDTH 12 0
BBX 11 7 0 0
BITMAP
1200
2F80
6280
A280
2480
24A0
28E0
ENDCHAR
STARTCHAR uni4ECA
ENCODING 20170
SWIDTH 1500 0
DWIDTH 12 0
BBX 11 7 0 0
BITMAP
0E00
3180
CE60
0000
7FC0
0080
1F00
ENDCHAR
STARTCHAR uni4ECB
ENCODING 20171
SWIDTH 1500 0
DWIDTH 12 0
BBX 11 7 0 0
BITMAP
0E00
3180
C060
1100
1100
2100
4100
ENDCHAR
STARTCHAR uni4ECF
ENCODING 20175
SWIDTH 1500 0
DWIDTH 12 0
BBX 11 7 0 0
BITMAP
1100
2100
6200
A200
2480
2440
2FA0
ENDCHAR
STARTCHAR uni4ED4
ENCODING 20180
SWIDTH 1500 0
DWIDTH 12 0
BBX 11 7 0 0
BITMAP
17C0
2080
6100
AFE0
2100
2100
2300
ENDCHAR
STARTCHAR uni4ED5
ENCODING 20181
SWIDTH 1500 0
DWIDTH 12 0
BBX 11 7 0 0
BITMAP
1100
2100
6FE0
A100
2100
2100
27C0
ENDCHAR
STARTCHAR uni4ED6
ENCODING 20182
SWIDTH 1500 0
DWIDTH 12 0
BBX 11 7 0 0
BITMAP
1500
25E0
6720
AD60
2500
2420
23E0
ENDCHAR
STARTCHAR uni4ED8
ENCODING 20184
SWIDTH 1500 0
DWIDTH 12 0
BBX 11 7 0 0
BITMAP
1080
2FE0
6080
A480
2280
2080
2180
ENDCHAR
STARTCHAR uni4ED9
ENCODING 20185
SWIDTH 1500 0
DWIDTH 12 0
BBX 11 7 0 0
BITMAP
1100
2100
6920
A920
2920
2920
2FE0
ENDCHAR
STARTCHAR uni4EDD
ENCODING 20189
SWIDTH 1500 0
DWIDTH 12 0
BBX 11 7 0 0
BITMAP
0E00
3180
C060
3F80
0400
0400
FFE0
ENDCHAR
STARTCHAR uni4EE3
ENCODING 20195
SWIDTH 1500 0
DWIDTH 12 0
BBX 11 7 0 0
BITMAP
1140
2100
6FE0
A100
2100
20A0
2060
ENDCHAR
STARTCHAR uni4EE4
ENCODING 20196
SWIDTH 1500 0
DWIDTH 12 0
BBX 11 7 0 0
BITMAP
0E00
3180
DF60
0000
7FC0
0440
0400
ENDCHAR
STARTCHAR uni4EE5
ENCODING 20197
SWIDTH 1500 0
DWIDTH 12 0
BBX 11 7 0 0
BITMAP
2080
2C80
2280
2080
3100
C280
1C60
ENDCHAR
STARTCHAR uni4EEE
ENCODING 20206
SWIDTH 1500 0
DWIDTH 12 0
BBX 11 7 0 0
BITMAP
17E0
2400
67C0
A540
2540
2480
2B60
ENDCHAR
STARTCHAR uni4EF0
ENCODING 20208
SWIDTH 1500 0
DWIDTH 12 0
BBX 11 7 0 0
BITMAP
12E0
2CA0
68A0
A8A0
2AA0
2C80
2080
ENDCHAR
STARTCHAR uni4EF2
ENCODING 20210
SWIDTH 1500 0
DWIDTH 12 0
BBX 11 7 0 0
BITMAP
1100
2FE0
6920
A920
2FE0
2100
2100
ENDCHAR
STARTCHAR uni4EF6
ENCODING 20214
SWIDTH 1500 0
DWIDTH 12 0
BBX 11 7 0 0
BITMAP
1500
27C0
6900
A100
2FE0
2100
2100
ENDCHAR
STARTCHAR uni4EFB
ENCODING 20219
SWIDTH 1500 0
DWIDTH 12 0
BBX 11 7 0 0
BITMAP
10C0
2700
6100
AFE0
2100
2100
27C0
ENDCHAR
STARTCHAR uni4F01
ENCODING 20225
SWIDTH 1500 0
DWIDTH 12 0
BBX 11 7 0 0
BITMAP
0E00
3180
C460
2780
2400
2400
FFE0
ENDCHAR
STARTCHAR uni4F0A
ENCODING 20234
SWIDTH 1500 0
DWIDTH 12 0
BBX 11 7 0 0
BITMAP
17C0
2140
6FE0
A140
27C0
2200
2C00
ENDCHAR
STARTCHAR uni4F0D
ENCODING 20237
SWIDTH 1500 0
DWIDTH 12 0
BBX 11 7 0 0
BITMAP
17C0
2100
6100
A7C0
2240
2240
2FE0
ENDCHAR
STARTCHAR uni4F0E
ENCODING 20238
SWIDTH 1500 0
DWIDTH 12 0
BBX 11 7 0 0
BITMAP
1100
2FE0
6100
A7C0
2440
2380
2C60
ENDCHAR
STARTCHAR uni4F0F
ENCODING 20239
SWIDTH 1500 0
DWIDTH 12 0
BBX 11 7 0 0
BITMAP
1140
2100
6FE0
A100
2100
2280
2C60
ENDCHAR
STARTCHAR uni4F10
ENCODING 20240
SWIDTH 1500 0
DWIDTH 12 0
BBX 11 7 0 0
BITMAP
1140
21E0
6F00
A140
2080
21A0
2660
ENDCHAR
STARTCHAR uni4F11
ENCODING 20241
SWIDTH 1500 0
DWIDTH 12 0
BBX 11 7 0 0
BITMAP
1100
2FE0
6100
A380
2540
2920
2100
ENDCHAR
STARTCHAR uni4F1A
ENCODING 20250
SWIDTH 1500 0
DWIDTH 12 0
BBX 11 7 0 0
BITMAP
0E00
3180
DF60
0000
FFE0
1080
7F40
ENDCHAR
STARTCHAR uni4F1D
ENCODING 20253
SWIDTH 1500 0
DWIDTH 12 0
BBX 11 7 0 0
BITMAP
17C0
2000
6FE0
A100
2200
2440
2FA0
ENDCHAR
STARTCHAR uni4F2F
ENCODING 20271
SWIDTH 1500 0
DWIDTH 12 0
BBX 11 7 0 0
BITMAP
1100
27E0
6420
A7E0
2420
2420
27E0
ENDCHAR
STARTCHAR uni4F34
ENCODING 20276
SWIDTH 1500 0
DWIDTH 12 0
BBX 11 7 0 0
BITMAP
1100
2540
6100
A7C0
2100
2FE0
2100
ENDCHAR
STARTCHAR uni4F36
ENCODING 20278
SWIDTH 1500 0
DWIDTH 12 0
BBX 11 7 0 0
BITMAP
1380
2440
6BA0
A000
2FE0
2120
2100
ENDCHAR
STARTCHAR uni4F38
ENCODING 20280
SWIDTH 1500 0
DWIDTH 12 0
BBX 11 7 0 0
BITMAP
1100
2FE0
6920
AFE0
2920
2FE0
2100
ENDCHAR
STARTCHAR uni4F3A
ENCODING 20282
SWIDTH 1500 0
DWIDTH 12 0
BBX 11 7 0 0
BITMAP
17E0
23A0
6020
A7A0
24A0
27A0
2060
ENDCHAR
STARTCHAR uni4F3C
ENCODING 20284
SWIDTH 1500 0
DWIDTH 12 0
BBX 11 7 0 0
BITMAP
1440
2540
64C0
A440
2640
2CA0
2120
ENDCHAR
STARTCHAR uni4F3D
ENCODING 20285
SWIDTH 1500 0
DWIDTH 12 0
BBX 11 7 0 0
BITMAP
1400
2FE0
6520
A520
2520
29E0
2B00
ENDCHAR
STARTCHAR uni4F43
ENCODING 20291
SWIDTH 1500 0
DWIDTH 12 0
BBX 11 7 0 0
BITMAP
1FE0
2920
6920
AFE0
2920
2920
2FE0
ENDCHAR
STARTCHAR uni4F46
ENCODING 20294
SWIDTH 1500 0
DWIDTH 12 0
BBX 11 7 0 0
BITMAP
17C0
2440
67C0
A440
27C0
2000
2FE0
ENDCHAR
STARTCHAR uni4F4D
ENCODING 20301
SWIDTH 1500 0
DWIDTH 12 0
BBX 11 7 0 0
BITMAP
1100
2FE0
6040
A440
2280
2280
2FE0
ENDCHAR
STARTCHAR uni4F4E
ENCODING 20302
SWIDTH 1500 0
DWIDTH 12 0
BBX 11 7 0 0
BITMAP
10C0
2700
6500
A7C0
2480
2440
2FA0
ENDCHAR
STARTCHAR uni4F4F
ENCODING 20303
SWIDTH 1500 0
DWIDTH 12 0
BBX 11 7 0 0
BITMAP
1200
2100
6FE0
A100
27C0
2100
2FE0
ENDCHAR
STARTCHAR uni4F50
ENCODING 20304
SWIDTH 1500 0
DWIDTH 12 0
BBX 11 7 0 0
BITMAP
1100
2FE0
6200
A3C0
2480
2880
27E0
ENDCHAR
STARTCHAR uni4F51
ENCODING 20305
SWIDTH 1500 0
DWIDTH 12 0
BBX 11 7 0 0
BITMAP
1100
2FE0
6200
A7E0
2A20
2220
23E0
ENDCHAR
STARTCHAR uni4F53
ENCODING 20307
SWIDTH 1500 0
DWIDTH 12 0
BBX 11 7 0 0
BITMAP
1100
2FE0
6100
A380
2540
2BA0
2100
ENDCHAR
STARTCHAR uni4F55
ENCODING 20309
SWIDTH 1500 0
DWIDTH 12 0
BBX 11 7 0 0
BITMAP
1FE0
2040
6F40
A940
2F40
2040
21C0
ENDCHAR
STARTCHAR uni4F59
ENCODING 20313
SWIDTH 1500 0
DWIDTH 12 0
BBX 11 7 0 0
BITMAP
0E00
3180
DF60
0400
FFE0
2480
CC60
ENDCHAR
STARTCHAR uni4F5C
ENCODING 20316
SWIDTH 1500 0
DWIDTH 12 0
BBX 11 7 0 0
BITMAP
1200
23E0
6500
A9E0
2100
21E0
2100
ENDCHAR
STARTCHAR uni4F73
ENCODING 20339
SWIDTH 1500 0
DWIDTH 12 0
BBX 11 7 0 0
BITMAP
1100
27C0
6100
AFE0
27C0
2100
2FE0
ENDCHAR
STARTCHAR uni4F75
ENCODING 20341
SWIDTH 1500 0
DWIDTH 12 0
BBX 11 7 0 0
BITMAP
1440
2280
6FE0
A440
2FE0
2440
2840
ENDCHAR
STARTCHAR uni4F7C
ENCODING 20348
SWIDTH 1500 0
DWIDTH 12 0
BBX 11 7 0 0
BITMAP
1100
2FE0
6440
AAA0
2100
2280
2C60
ENDCHAR
STARTCHAR uni4F7F
ENCODING 20351
SWIDTH 1500 0
DWIDTH 12 0
BBX 11 7 0 0
BITMAP
1100
3FE0
6940
AFC0
2500
2300
2CE0
ENDCHAR
STARTCHAR uni4F83
ENCODING 20355
SWIDTH 1500 0
DWIDTH 12 0
BBX 11 7 0 0
BITMAP
17C0
2440
67C0
A000
2540
2540
2960
ENDCHAR
STARTCHAR uni4F8B
ENCODING 20363
SWIDTH 1500 0
DWIDTH 12 0
BBX 11 7 0 0
BITMAP
1E20
24A0
66A0
AAA0
2620
2420
2860
ENDCHAR
STARTCHAR uni4F8D
ENCODING 20365
SWIDTH 1500 0
DWIDTH 12 0
BBX 11 7 0 0
BITMAP
1100
27C0
6100
AFE0
2040
2440
21C0
ENDCHAR
STARTCHAR uni4F9B
ENCODING 20379
SWIDTH 1500 0
DWIDTH 12 0
BBX 11 7 0 0
BITMAP
1440
2FE0
6440
A440
2FE0
2000
2C60
ENDCHAR
STARTCHAR uni4F9D
ENCODING 20381
SWIDTH 1500 0
DWIDTH 12 0
BBX 11 7 0 0
BITMAP
1100
2FE0
6280
A4A0
2C40
2440
2F20
ENDCHAR
STARTCHAR uni4FA0
ENCODING 20384
SWIDTH 1500 0
DWIDTH 12 0
BBX 11 7 0 0
BITMAP
1100
2FE0
6540
A100
2FE0
2280
2C60
ENDCHAR
STARTCHAR uni4FA1
ENCODING 20385
SWIDTH 1500 0
DWIDTH 12 0
BBX 11 7 0 0
BITMAP
1FE0
2100
6FE0
AAA0
2AA0
2AA0
2FE0
ENDCHAR
STARTCHAR uni4FAD
ENCODING 20397
SWIDTH 1500 0
DWIDTH 12 0
BBX 11 7 0 0
BITMAP
17E0
2420
67E0
A540
28A0
2300
20C0
ENDCHAR
STARTCHAR uni4FAE
ENCODING 20398
SWIDTH 1500 0
DWIDTH 12 0
BBX 11 7 0 0
BITMAP
1800
2FE0
6540
BFE0
2A40
2FE0
2080
ENDCHAR
STARTCHAR uni4FAF
ENCODING 20399
SWIDTH 1500 0
DWIDTH 12 0
BBX 11 7 0 0
BITMAP
1780
2080
6FE0
A400
2FE0
2100
2EE0
ENDCHAR
STARTCHAR uni4FB5
ENCODING 20405
SWIDTH 1500 0
DWIDTH 12 0
BBX 11 7 0 0
BITMAP
17C0
2040
63C0
AFE0
2AA0
2100
2EE0
ENDCHAR
STARTCHAR uni4FB6
ENCODING 20406
SWIDTH 1500 0
DWIDTH 12 0
BBX 11 7 0 0
BITMAP
17C0
2440
67C0
A100
2FE0
2820
2FE0
ENDCHAR
STARTCHAR uni4FBF
ENCODING 20415
SWIDTH 1500 0
DWIDTH 12 0
BBX 11 7 0 0
BITMAP
1FE0
2540
67C0
A540
27C0
2300
2CE0
ENDCHAR
STARTCHAR uni4FC2
ENCODING 20418
SWIDTH 1500 0
DWIDTH 12 0
BBX 11 7 0 0
BITMAP
17C0
2100
6600
A140
2FE0
2540
2920
ENDCHAR
STARTCHAR uni4FC3
ENCODING 20419
SWIDTH 1500 0
DWIDTH 12 0
BBX 11 7 0 0
BITMAP
17C0
2440
67C0
A100
25C0
2500
2BE0
ENDCHAR
STARTCHAR uni4FC4
ENCODING 20420
SWIDTH 1500 0
DWIDTH 12 0
BBX 11 7 0 0
BITMAP
1EA0
2480
6FE0
A480
2EA0
2440
2DA0
ENDCHAR
STARTCHAR uni4FCA
ENCODING 20426
SWIDTH 1500 0
DWIDTH 12 0
BBX 11 7 0 0
BITMAP
1240
2FA0
6480
A9E0
2680
2100
2EE0
ENDCHAR
STARTCHAR uni4FD7
ENCODING 20439
SWIDTH 1500 0
DWIDTH 12 0
BBX 11 7 0 0
BITMAP
1440
2920
6280
A440
2FE0
2440
27C0
ENDCHAR
STARTCHAR uni4FDD
ENCODING 20445
SWIDTH 1500 0
DWIDTH 12 0
BBX 11 7 0 0
BITMAP
17C0
2440
67C0
A100
2FE0
2380
2D60
ENDCHAR
STARTCHAR uni4FE1
ENCODING 20449
SWIDTH 1500 0
DWIDTH 12 0
BBX 11 7 0 0
BITMAP
1380
2FE0
6000
A7C0
2000
27C0
27C0
ENDCHAR
STARTCHAR uni4FE3
ENCODING 20451
SWIDTH 1500 0
DWIDTH 12 0
BBX 11 7 0 0
BITMAP
17C0
2440
6FE0
A100
27C0
2280
2C60
ENDCHAR
STARTCHAR uni4FEE
ENCODING 20462
SWIDTH 1500 0
DWIDTH 12 0
BBX 11 7 0 0
BITMAP
1200
23C0
6980
AE60
2980
2840
2380
ENDCHAR
STARTCHAR uni4FF3
ENCODING 20467
SWIDTH 1500 0
DWIDTH 12 0
BBX 11 7 0 0
BITMAP
1280
2EE0
6280
AEE0
2280
2EE0
2480
ENDCHAR
STARTCHAR uni4FF5
ENCODING 20469
SWIDTH 1500 0
DWIDTH 12 0
BBX 11 7 0 0
BITMAP
1100
27C0
6100
AFC0
26A0
2A40
2720
ENDCHAR
STARTCHAR uni4FF8
ENCODING 20472
SWIDTH 1500 0
DWIDTH 12 0
BBX 11 7 0 0
BITMAP
1100
27C0
6380
AFE0
2540
2BA0
2100
ENDCHAR
STARTCHAR uni4FFA
ENCODING 20474
SWIDTH 1500 0
DWIDTH 12 0
BBX 11 7 0 0
BITMAP
1100
2FE0
6280
A7C0
2D60
27C0
20E0
ENDCHAR
STARTCHAR uni5009
ENCODING 20489
SWIDTH 1500 0
DWIDTH 12 0
BBX 11 7 0 0
BITMAP
0E00
3180
DF60
1100
1F80
2880
CF80
ENDCHAR
STARTCHAR uni500B
ENCODING 20491
SWIDTH 1500 0
DWIDTH 12 0
BBX 11 7 0 0
BITMAP
1FE0
2920
6BA0
A920
2BA0
2AA0
2FE0
ENDCHAR
STARTCHAR uni500D
ENCODING 20493
SWIDTH 1500 0
DWIDTH 12 0
BBX 11 7 0 0
BITMAP
1100
2FE0
6440
AFE0
2000
27C0
27C0
ENDCHAR
STARTCHAR uni5012
ENCODING 20498
SWIDTH 1500 0
DWIDTH 12 0
BBX 11 7 0 0
BITMAP
1E20
24A0
68A0
AEA0
2420
2E20
2060
ENDCHAR
STARTCHAR uni5016
ENCODING 20502
SWIDTH 1500 0
DWIDTH 12 0
BBX 11 7 0 0
BITMAP
1100
27C0
6FE0
A280
2FE0
27C0
2100
ENDCHAR
STARTCHAR uni5019
ENCODING 20505
SWIDTH 1500 0
DWIDTH 12 0
BBX 11 7 0 0
BITMAP
11C0
2840
6BE0
A900
2BE0
2880
2360
ENDCHAR
STARTCHAR uni501F
ENCODING 20511
SWIDTH 1500 0
DWIDTH 12 0
BBX 11 7 0 0
BITMAP
1280
27C0
6280
AFE0
27C0
2440
27C0
ENDCHAR
STARTCHAR uni5023
ENCODING 20515
SWIDTH 1500 0
DWIDTH 12 0
BBX 11 7 0 0
BITMAP
1480
3EE0
69A0
AEA0
2A40
2A40
36A0
ENDCHAR
STARTCHAR uni5024
ENCODING 20516
SWIDTH 1500 0
DWIDTH 12 0
BBX 11 7 0 0
BITMAP
1100
2FE0
6100
ABC0
2A40
2BC0
2FE0
ENDCHAR
STARTCHAR uni5026
ENCODING 20518
SWIDTH 1500 0
DWIDTH 12 0
BBX 11 7 0 0
BITMAP
1540
2380
6FE0
A540
2B20
2240
23C0
ENDCHAR
STARTCHAR uni502B
ENCODING 20523
SWIDTH 1500 0
DWIDTH 12 0
BBX 11 7 0 0
BITMAP
1380
2440
6BA0
A000
2FE0
2FE0
2AA0
ENDCHAR
STARTCHAR uni502D
ENCODING 20525
SWIDTH 1500 0
DWIDTH 12 0
BBX 11 7 0 0
BITMAP
1380
2FE0
6540
A920
27C0
2280
2F60
ENDCHAR
STARTCHAR uni5036
ENCODING 20534
SWIDTH 1500 0
DWIDTH 12 0
BBX 11 7 0 0
BITMAP
17C0
2440
67C0
A440
2FE0
2000
2C60
ENDCHAR
STARTCHAR uni5039
ENCODING 20537
SWIDTH 1500 0
DWIDTH 12 0
BBX 11 7 0 0
BITMAP
1380
2440
6FE0
A540
27C0
2280
2C60
ENDCHAR
STARTCHAR uni5049
ENCODING 20553
SWIDTH 1500 0
DWIDTH 12 0
BBX 11 7 0 0
BITMAP
1100
27C0
6240
AFE0
2480
2FE0
2080
ENDCHAR
STARTCHAR uni504F
ENCODING 20559
SWIDTH 1500 0
DWIDTH 12 0
BBX 11 7 0 0
BITMAP
1FE0
2440
67C0
A400
27E0
2BE0
22A0
ENDCHAR
STARTCHAR uni505C
ENCODING 20572
SWIDTH 1500 0
DWIDTH 12 0
BBX 11 7 0 0
BITMAP
1100
2FE0
6440
AFE0
2BA0
2100
2300
ENDCHAR
STARTCHAR uni5065
ENCODING 20581
SWIDTH 1500 0
DWIDTH 12 0
BBX 11 7 0 0
BITMAP
1DC0
24A0
69C0
A480
2DE0
2480
2BE0
ENDCHAR
STARTCHAR uni5072
ENCODING 20594
SWIDTH 1500 0
DWIDTH 12 0
BBX 11 7 0 0
BITMAP
17C0
2540
67C0
A540
27C0
2A20
29A0
ENDCHAR
STARTCHAR uni5074
ENCODING 20596
SWIDTH 1500 0
DWIDTH 12 0
BBX 11 7 0 0
BITMAP
1E20
2AA0
6EA0
AAA0
2E20
2020
2A60
ENDCHAR
STARTCHAR uni5075
ENCODING 20597
SWIDTH 1500 0
DWIDTH 12 0
BBX 11 7 0 0
BITMAP
1100
21E0
67C0
A440
27C0
27C0
2C60
ENDCHAR
STARTCHAR uni5076
ENCODING 20598
SWIDTH 1500 0
DWIDTH 12 0
BBX 11 7 0 0
BITMAP
17C0
2540
67C0
A100
2FE0
29A0
2B60
ENDCHAR
STARTCHAR uni507D
ENCODING 20605
SWIDTH 1500 0
DWIDTH 12 0
BBX 11 7 0 0
BITMAP
1480
2F80
63C0
A440
2FE0
3020
2AA0
ENDCHAR
STARTCHAR uni508D
ENCODING 20621
SWIDTH 1500 0
DWIDTH 12 0
BBX 11 7 0 0
BITMAP
1100
2FE0
6280
AFE0
2A20
23C0
2C40
ENDCHAR
STARTCHAR uni5091
ENCODING 20625
SWIDTH 1500 0
DWIDTH 12 0
BBX 11 7 0 0
BITMAP
16E0
2AC0
65E0
A840
2FE0
2540
2920
ENDCHAR
STARTCHAR uni5098
ENCODING 20632
SWIDTH 1500 0
DWIDTH 12 0
BBX 11 7 0 0
BITMAP
0E00
3180
D560
2480
5540
FFE0
0400
ENDCHAR
STARTCHAR uni5099
ENCODING 20633
SWIDTH 1500 0
DWIDTH 12 0
BBX 11 7 0 0
BITMAP
1280
27C0
6280
AFE0
3520
27E0
2520
ENDCHAR
STARTCHAR uni50AC
ENCODING 20652
SWIDTH 1500 0
DWIDTH 12 0
BBX 11 7 0 0
BITMAP
1540
27C0
6000
A500
27E0
2D00
27E0
ENDCHAR
STARTCHAR uni50AD
ENCODING 20653
SWIDTH 1500 0
DWIDTH 12 0
BBX 11 7 0 0
BITMAP
1080
2FE0
69C0
AFE0
2AA0
2BE0
32A0
ENDCHAR
STARTCHAR uni50B5
ENCODING 20661
SWIDTH 1500 0
DWIDTH 12 0
BBX 11 7 0 0
BITMAP
1100
27C0
6100
AFE0
2440
27C0
2C60
ENDCHAR
STARTCHAR uni50B7
ENCODING 20663
SWIDTH 1500 0
DWIDTH 12 0
BBX 11 7 0 0
BITMAP
1400
27E0
6A80
A380
27E0
2AA0
2560
ENDCHAR
STARTCHAR uni50BE
ENCODING 20670
SWIDTH 1500 0
DWIDTH 12 0
BBX 11 7 0 0
BITMAP
19E0
2880
6DE0
A920
2BE0
2E00
2120
ENDCHAR
STARTCHAR uni50C5
ENCODING 20677
SWIDTH 1500 0
DWIDTH 12 0
BBX 11 7 0 0
BITMAP
1280
2FE0
6280
A540
27C0
2100
2FE0
ENDCHAR
STARTCHAR uni50CD
ENCODING 20685
SWIDTH 1500 0
DWIDTH 12 0
BBX 11 7 0 0
BITMAP
1E80
25E0
6EA0
AEA0
2EA0
24A0
2F60
ENDCHAR
STARTCHAR uni50CF
ENCODING 20687
SWIDTH 1500 0
DWIDTH 12 0
BBX 11 7 0 0
BITMAP
1380
2C80
63C0
A3C0
2DA0
22C0
2DA0
ENDCHAR
STARTCHAR uni50D1
ENCODING 20689
SWIDTH 1500 0
DWIDTH 12 0
BBX 11 7 0 0
BITMAP
1380
2FE0
6440
ABA0
2280
2FE0
2BA0
ENDCHAR
STARTCHAR uni50D5
ENCODING 20693
SWIDTH 1500 0
DWIDTH 12 0
BBX 11 7 0 0
BITMAP
1AA0
2FE0
6440
AFE0
27C0
2280
2C60
ENDCHAR
STARTCHAR uni50DA
ENCODING 20698
SWIDTH 1500 0
DWIDTH 12 0
BBX 11 7 0 0
BITMAP
1100
2FE0
6440
ABA0
2380
2540
2B20
ENDCHAR
STARTCHAR uni50E7
ENCODING 20711
SWIDTH 1500 0
DWIDTH 12 0
BBX 11 7 0 0
BITMAP
1440
2FE0
6920
AFE0
27C0
2440
27C0
ENDCHAR
STARTCHAR uni50FB
ENCODING 20731
SWIDTH 1500 0
DWIDTH 12 0
BBX 11 7 0 0
BITMAP
1E40
2BE0
6EA0
A9E0
2E40
3BE0
2E40
ENDCHAR
STARTCHAR uni5100
ENCODING 20736
SWIDTH 1500 0
DWIDTH 12 0
BBX 11 7 0 0
BITMAP
1280
2FE0
6100
AFE0
24A0
2E40
24A0
ENDCHAR
STARTCHAR uni5104
ENCODING 20740
SWIDTH 1500 0
DWIDTH 12 0
BBX 11 7 0 0
BITMAP
1100
27C0
6280
AFE0
2380
24A0
2BA0
ENDCHAR
STARTCHAR uni5112
ENCODING 20754
SWIDTH 1500 0
DWIDTH 12 0
BBX 11 7 0 0
BITMAP
1380
2FE0
6AA0
A7C0
2100
2FE0
2AA0
ENDCHAR
STARTCHAR uni511F
ENCODING 20767
SWIDTH 1500 0
DWIDTH 12 0
BBX 11 7 0 0
BITMAP
1540
2FE0
6AA0
A7C0
2440
27C0
2C60
ENDCHAR
STARTCHAR uni512A
ENCODING 20778
SWIDTH 1500 0
DWIDTH 12 0
BBX 11 7 0 0
BITMAP
17E0
23C0
63C0
A7E0
2660
2180
2660
ENDCHAR
STARTCHAR uni5132
ENCODING 20786
SWIDTH 1500 0
DWIDTH 12 0
BBX 11 7 0 0
BITMAP
1440
2DE0
6040
ADE0
2080
2DE0
2CE0
ENDCHAR
STARTCHAR uni5141
ENCODING 20801
SWIDTH 1500 0
DWIDTH 12 0
BBX 11 7 0 0
BITMAP
0800
1100
2080
7F40
1100
2120
C1E0
ENDCHAR
STARTCHAR uni5143
ENCODING 20803
SWIDTH 1500 0
DWIDTH 12 0
BBX 11 7 0 0
BITMAP
3F80
0000
FFE0
1100
1100
2120
C1E0
ENDCHAR
STARTCHAR uni5144
ENCODING 20804
SWIDTH 1500 0
DWIDTH 12 0
BBX 11 7 0 0
BITMAP
3F80
2080
2080
3F80
1100
2120
C1E0
ENDCHAR
STARTCHAR uni5145
ENCODING 20805
SWIDTH 1500 0
DWIDTH 12 0
BBX 11 7 0 0
BITMAP
0400
FFE0
2080
7F40
1100
2120
C1E0
ENDCHAR
STARTCHAR uni5146
ENCODING 20806
SWIDTH 1500 0
DWIDTH 12 0
BBX 11 7 0 0
BITMAP
0A00
6AC0
1B00
2AC0
4A00
1220
E1E0
ENDCHAR
STARTCHAR uni5147
ENCODING 20807
SWIDTH 1500 0
DWIDTH 12 0
BBX 11 7 0 0
BITMAP
2A80
2480
2A80
2080
3F80
1120
E1E0
ENDCHAR
STARTCHAR uni5148
ENCODING 20808
SWIDTH 1500 0
DWIDTH 12 0
BBX 11 7 0 0
BITMAP
2400
3F80
4400
FFE0
1100
2120
C1E0
ENDCHAR
STARTCHAR uni5149
ENCODING 20809
SWIDTH 1500 0
DWIDTH 12 0
BBX 11 7 0 0
BITMAP
0400
4440
2480
FFE0
1100
2120
C1E0
ENDCHAR
STARTCHAR uni514B
ENCODING 20811
SWIDTH 1500 0
DWIDTH 12 0
BBX 11 7 0 0
BITMAP
0400
FFE0
3F80
2080
3F80
1120
E1E0
ENDCHAR
STARTCHAR uni514D
ENCODING 20813
SWIDTH 1500 0
DWIDTH 12 0
BBX 11 7 0 0
BITMAP
1F00
E100
3F80
2480
3F80
1120
E1E0
ENDCHAR
STARTCHAR uni514E
ENCODING 20814
SWIDTH 1500 0
DWIDTH 12 0
BBX 11 7 0 0
BITMAP
0380
7C00
3F80
2480
3F80
1140
E1E0
ENDCHAR
STARTCHAR uni5150
ENCODING 20816
SWIDTH 1500 0
DWIDTH 12 0
BBX 11 7 0 0
BITMAP
2780
2480
2780
2480
2780
1120
E1E0
ENDCHAR
STARTCHAR uni515A
ENCODING 20826
SWIDTH 1500 0
DWIDTH 12 0
BBX 11 7 0 0
BITMAP
2480
FFE0
BFA0
2080
3F80
1120
E1E0
ENDCHAR
STARTCHAR uni515C
ENCODING 20828
SWIDTH 1500 0
DWIDTH 12 0
BBX 11 7 0 0
BITMAP
24E0
DF20
9120
9F20
CAE0
1200
E3E0
ENDCHAR
STARTCHAR uni5165
ENCODING 20837
SWIDTH 1500 0
DWIDTH 12 0
BBX 11 7 0 0
BITMAP
3C00
0400
0400
0400
0A00
3180
C060
ENDCHAR
STARTCHAR uni5168
ENCODING 20840
SWIDTH 1500 0
DWIDTH 12 0
BBX 11 7 0 0
BITMAP
0E00
3180
DF60
0400
1F00
0400
FFE0
ENDCHAR
STARTCHAR uni516B
ENCODING 20843
SWIDTH 1500 0
DWIDTH 12 0
BBX 11 7 0 0
BITMAP
1100
1100
1100
2080
2080
4040
8020
ENDCHAR
STARTCHAR uni516C
ENCODING 20844
SWIDTH 1500 0
DWIDTH 12 0
BBX 11 7 0 0
BITMAP
1100
1100
2480
C460
0900
1080
7F40
ENDCHAR
STARTCHAR uni516D
ENCODING 20845
SWIDTH 1500 0
DWIDTH 12 0
BBX 11 7 0 0
BITMAP
0400
FFE0
0000
1100
1100
2080
C060
ENDCHAR
STARTCHAR uni5171
ENCODING 20849
SWIDTH 1500 0
DWIDTH 12 0
BBX 11 7 0 0
BITMAP
1100
7FC0
1100
1100
FFE0
2080
C060
ENDCHAR
STARTCHAR uni5175
ENCODING 20853
SWIDTH 1500 0
DWIDTH 12 0
BBX 11 7 0 0
BITMAP
0180
3E00
3FC0
2100
FFE0
2080
C060
ENDCHAR
STARTCHAR uni5176
ENCODING 20854
SWIDTH 1500 0
DWIDTH 12 0
BBX 11 7 0 0
BITMAP
1100
7FC0
1100
1F00
FFE0
2080
C060
ENDCHAR
STARTCHAR uni5177
ENCODING 20855
SWIDTH 1500 0
DWIDTH 12 0
BBX 11 7 0 0
BITMAP
3F80
2080
3F80
2080
FFE0
0000
E0E0
ENDCHAR
STARTCHAR uni5178
ENCODING 20856
SWIDTH 1500 0
DWIDTH 12 0
BBX 11 7 0 0
BITMAP
0A00
7FC0
4A40
7FC0
FFE0
2080
C060
ENDCHAR
STARTCHAR uni517C
ENCODING 20860
SWIDTH 1500 0
DWIDTH 12 0
BBX 11 7 0 0
BITMAP
2080
FFE0
0A80
7FC0
0A80
3F80
EAE0
ENDCHAR
STARTCHAR uni5185
ENCODING 20869
SWIDTH 1500 0
DWIDTH 12 0
BBX 9 7 1 0
BITMAP
0800
FF80
8880
9480
A280
8080
8380
ENDCHAR
STARTCHAR uni5186
ENCODING 20870
SWIDTH 1500 0
DWIDTH 12 0
BBX 9 7 1 0
BITMAP
FF80
8880
8880
FF80
8080
8080
8380
ENDCHAR
STARTCHAR uni518A
ENCODING 20874
SWIDTH 1500 0
DWIDTH 12 0
BBX 11 7 0 0
BITMAP
7FC0
4A40
4A40
FFE0
4A40
4A40
4AC0
ENDCHAR
STARTCHAR uni518D
ENCODING 20877
SWIDTH 1500 0
DWIDTH 12 0
BBX 11 7 0 0
BITMAP
7FC0
2480
3F80
2480
FFE0
2080
2180
ENDCHAR
STARTCHAR uni5192
ENCODING 20882
SWIDTH 1500 0
DWIDTH 12 0
BBX 9 7 1 0
BITMAP
FF80
8080
FF80
4100
7F00
4100
7F00
ENDCHAR
STARTCHAR uni5197
ENCODING 20887
SWIDTH 1500 0
DWIDTH 12 0
BBX 11 7 0 0
BITMAP
FFE0
8020
1F00
1100
1100
2120
C1E0
ENDCHAR
STARTCHAR uni5199
ENCODING 20889
SWIDTH 1500 0
DWIDTH 12 0
BBX 11 7 0 0
BITMAP
FFE0
9020
1F80
1000
FFE0
0100
0E00
ENDCHAR
STARTCHAR uni51A0
ENCODING 20896
SWIDTH 1500 0
DWIDTH 12 0
BBX 11 7 0 0
BITMAP
FFE0
80A0
77C0
0080
FA80
51A0
9FE0
ENDCHAR
STARTCHAR uni51A5
ENCODING 20901
SWIDTH 1500 0
DWIDTH 12 0
BBX 11 7 0 0
BITMAP
FFE0
9F20
1100
1F00
FFE0
2080
C060
ENDCHAR
STARTCHAR uni51A8
ENCODING 20904
SWIDTH 1500 0
DWIDTH 12 0
BBX 11 7 0 0
BITMAP
FFE0
A0A0
3F80
4440
7FC0
4440
7FC0
ENDCHAR
STARTCHAR uni51AC
ENCODING 20908
SWIDTH 1500 0
DWIDTH 12 0
BBX 11 7 0 0
BITMAP
0F00
7100
0E00
3580
C260
1C00
0300
ENDCHAR
STARTCHAR uni51B4
ENCODING 20916
SWIDTH 1500 0
DWIDTH 12 0
BBX 11 7 0 0
BITMAP
87C0
4480
0480
1FE0
0280
4480
9980
ENDCHAR
STARTCHAR uni51B6
ENCODING 20918
SWIDTH 1500 0
DWIDTH 12 0
BBX 11 7 0 0
BITMAP
8200
4440
1FA0
0000
2FC0
4840
8FC0
ENDCHAR
STARTCHAR uni51B7
ENCODING 20919
SWIDTH 1500 0
DWIDTH 12 0
BBX 11 7 0 0
BITMAP
8300
4480
1B60
0000
1FE0
4220
8200
ENDCHAR
STARTCHAR uni51C4
ENCODING 20932
SWIDTH 1500 0
DWIDTH 12 0
BBX 11 7 0 0
BITMAP
8100
5FE0
0140
1FE0
0480
4380
9C60
ENDCHAR
STARTCHAR uni51C6
ENCODING 20934
SWIDTH 1500 0
DWIDTH 12 0
BBX 11 7 0 0
BITMAP
8500
47E0
0D00
17C0
0500
4500
87E0
ENDCHAR
STARTCHAR uni51CB
ENCODING 20939
SWIDTH 1500 0
DWIDTH 12 0
BBX 11 7 0 0
BITMAP
8FE0
4920
0BA0
0920
2FE0
4AA0
93A0
ENDCHAR
STARTCHAR uni51CC
ENCODING 20940
SWIDTH 1500 0
DWIDTH 12 0
BBX 11 7 0 0
BITMAP
8100
4FC0
0100
0FE0
2480
4B00
94E0
ENDCHAR
STARTCHAR uni51CD
ENCODING 20941
SWIDTH 1500 0
DWIDTH 12 0
BBX 11 7 0 0
BITMAP
8100
5FE0
0940
0FC0
2940
4780
9960
ENDCHAR
STARTCHAR uni51DD
ENCODING 20957
SWIDTH 1500 0
DWIDTH 12 0
BBX 11 7 0 0
BITMAP
95E0
5820
11E0
0C40
1960
4940
B6E0
ENDCHAR
STARTCHAR uni51E1
ENCODING 20961
SWIDTH 1500 0
DWIDTH 12 0
BBX 11 7 0 0
BITMAP
3F80
2080
2880
2480
2480
40A0
80E0
ENDCHAR
STARTCHAR uni51E6
ENCODING 20966
SWIDTH 1500 0
DWIDTH 12 0
BBX 11 7 0 0
BITMAP
7780
5480
5480
A4A0
28E0
5000
8FE0
ENDCHAR
STARTCHAR uni51E7
ENCODING 20967
SWIDTH 1500 0
DWIDTH 12 0
BBX 11 7 0 0
BITMAP
7FC0
4440
5F40
5540
5540
5540
8460
ENDCHAR
STARTCHAR uni51EA
ENCODING 20970
SWIDTH 1500 0
DWIDTH 12 0
BBX 11 7 0 0
BITMAP
7FC0
4440
4440
5740
5440
5440
BFA0
ENDCHAR
STARTCHAR uni51F1
ENCODING 20977
SWIDTH 1500 0
DWIDTH 12 0
BBX 11 7 0 0
BITMAP
ABC0
FA40
0240
FA40
8A40
5240
FC60
ENDCHAR
STARTCHAR uni51F6
ENCODING 20982
SWIDTH 1500 0
DWIDTH 12 0
BBX 9 7 1 0
BITMAP
8280
BA80
8480
8A80
B280
8080
FF80
ENDCHAR
STARTCHAR uni51F8
ENCODING 20984
SWIDTH 1500 0
DWIDTH 12 0
BBX 9 7 1 0
BITMAP
3E00
2200
2200
E380
8080
8080
FF80
ENDCHAR
STARTCHAR uni51F9
ENCODING 20985
SWIDTH 1500 0
DWIDTH 12 0
BBX 9 7 1 0
BITMAP
F780
9480
9480
9C80
8080
8080
FF80
ENDCHAR
STARTCHAR uni51FA
ENCODING 20986
SWIDTH 1500 0
DWIDTH 12 0
BBX 9 7 1 0
BITMAP
0800
4900
4900
7F00
8880
8880
FF80
ENDCHAR
STARTCHAR uni51FD
ENCODING 20989
SWIDTH 1500 0
DWIDTH 12 0
BBX 11 7 0 0
BITMAP
FFE0
0800
ACA0
9520
A4A0
8C20
FFE0
ENDCHAR
STARTCHAR uni5200
ENCODING 20992
SWIDTH 1500 0
DWIDTH 12 0
BBX 10 7 0 0
BITMAP
7FC0
0840
0840
0840
1040
2040
C1C0
ENDCHAR
STARTCHAR uni5203
ENCODING 20995
SWIDTH 1500 0
DWIDTH 12 0
BBX 10 7 0 0
BITMAP
7FC0
0440
3440
0840
1440
2040
C1C0
ENDCHAR
STARTCHAR uni5206
ENCODING 20998
SWIDTH 1500 0
DWIDTH 12 0
BBX 11 7 0 0
BITMAP
1100
1100
2080
DFE0
0880
1080
6380
ENDCHAR
STARTCHAR uni5207
ENCODING 20999
SWIDTH 1500 0
DWIDTH 12 0
BBX 11 7 0 0
BITMAP
47E0
5120
E120
4220
5220
7420
08E0
ENDCHAR
STARTCHAR uni5208
ENCODING 21000
SWIDTH 1500 0
DWIDTH 12 0
BBX 11 7 0 0
BITMAP
0420
6520
1520
0920
1420
2420
C0E0
ENDCHAR
STARTCHAR uni520A
ENCODING 21002
SWIDTH 1500 0
DWIDTH 12 0
BBX 11 7 0 0
BITMAP
7C20
1120
1120
FD20
1020
1020
10E0
ENDCHAR
STARTCHAR uni5211
ENCODING 21009
SWIDTH 1500 0
DWIDTH 12 0
BBX 11 7 0 0
BITMAP
FC20
4920
4920
FD20
4820
4820
88E0
ENDCHAR
STARTCHAR uni5217
ENCODING 21015
SWIDTH 1500 0
DWIDTH 12 0
BBX 11 7 0 0
BITMAP
FC20
2120
3D20
C520
2820
1020
E0E0
ENDCHAR
STARTCHAR uni521D
ENCODING 21021
SWIDTH 1500 0
DWIDTH 12 0
BBX 11 7 0 0
BITMAP
27E0
F120
1120
2920
7220
AA20
24E0
ENDCHAR
STARTCHAR uni5224
ENCODING 21028
SWIDTH 1500 0
DWIDTH 12 0
BBX 11 7 0 0
BITMAP
1020
5520
1120
7D20
1020
FC20
10E0
ENDCHAR
STARTCHAR uni5225
ENCODING 21029
SWIDTH 1500 0
DWIDTH 12 0
BBX 11 7 0 0
BITMAP
FC20
8520
FD20
2120
3C20
4420
9CE0
ENDCHAR
STARTCHAR uni5229
ENCODING 21033
SWIDTH 1500 0
DWIDTH 12 0
BBX 11 7 0 0
BITMAP
7820
1120
FD20
1120
3820
D420
10E0
ENDCHAR
STARTCHAR uni5230
ENCODING 21040
SWIDTH 1500 0
DWIDTH 12 0
BBX 11 7 0 0
BITMAP
FC20
2120
4920
FD20
3020
1C20
E0E0
ENDCHAR
STARTCHAR uni5236
ENCODING 21046
SWIDTH 1500 0
DWIDTH 12 0
BBX 11 7 0 0
BITMAP
5020
7D20
9120
FD20
1020
FC20
94E0
ENDCHAR
STARTCHAR uni5237
ENCODING 21047
SWIDTH 1500 0
DWIDTH 12 0
BBX 11 7 0 0
BITMAP
7C20
4520
7D20
5120
7C20
5420
90E0
ENDCHAR
STARTCHAR uni5238
ENCODING 21048
SWIDTH 1500 0
DWIDTH 12 0
BBX 11 7 0 0
BITMAP
2480
1F00
FFE0
2080
5F40
8920
3300
ENDCHAR
STARTCHAR uni523A
ENCODING 21050
SWIDTH 1500 0
DWIDTH 12 0
BBX 11 7 0 0
BITMAP
1020
FEA0
10A0
FEA0
9220
3820
D660
ENDCHAR
STARTCHAR uni523B
ENCODING 21051
SWIDTH 1500 0
DWIDTH 12 0
BBX 11 7 0 0
BITMAP
1020
FD20
5120
2520
C820
1420
E4E0
ENDCHAR
STARTCHAR uni5243
ENCODING 21059
SWIDTH 1500 0
DWIDTH 12 0
BBX 11 7 0 0
BITMAP
4820
FD20
1520
7D20
5020
3C20
D4E0
ENDCHAR
STARTCHAR uni5247
ENCODING 21063
SWIDTH 1500 0
DWIDTH 12 0
BBX 11 7 0 0
BITMAP
F820
8920
F920
8920
F820
0020
88E0
ENDCHAR
STARTCHAR uni524A
ENCODING 21066
SWIDTH 1500 0
DWIDTH 12 0
BBX 11 7 0 0
BITMAP
A420
2920
FD20
8520
FC20
8420
9CE0
ENDCHAR
STARTCHAR uni524D
ENCODING 21069
SWIDTH 1500 0
DWIDTH 12 0
BBX 11 7 0 0
BITMAP
2080
FFE0
0000
7A40
4A40
7840
49C0
ENDCHAR
STARTCHAR uni5256
ENCODING 21078
SWIDTH 1500 0
DWIDTH 12 0
BBX 11 7 0 0
BITMAP
1020
FD20
4920
FD20
0020
7820
78E0
ENDCHAR
STARTCHAR uni525B
ENCODING 21083
SWIDTH 1500 0
DWIDTH 12 0
BBX 11 7 0 0
BITMAP
FE20
AAA0
FEA0
92A0
D620
FE20
8260
ENDCHAR
STARTCHAR uni5263
ENCODING 21091
SWIDTH 1500 0
DWIDTH 12 0
BBX 11 7 0 0
BITMAP
3820
4520
FD20
5520
7C20
2820
C4E0
ENDCHAR
STARTCHAR uni5264
ENCODING 21092
SWIDTH 1500 0
DWIDTH 12 0
BBX 11 7 0 0
BITMAP
1020
FEA0
44A0
38A0
C620
7C20
8460
ENDCHAR
STARTCHAR uni5265
ENCODING 21093
SWIDTH 1500 0
DWIDTH 12 0
BBX 11 7 0 0
BITMAP
7820
0920
FD20
1120
B420
5820
B4E0
ENDCHAR
STARTCHAR uni526F
ENCODING 21103
SWIDTH 1500 0
DWIDTH 12 0
BBX 11 7 0 0
BITMAP
FC20
4920
7920
A520
FC20
A420
FCE0
ENDCHAR
STARTCHAR uni5270
ENCODING 21104
SWIDTH 1500 0
DWIDTH 12 0
BBX 11 7 0 0
BITMAP
0C20
70A0
FEA0
54A0
FE20
3820
D660
ENDCHAR
STARTCHAR uni5272
ENCODING 21106
SWIDTH 1500 0
DWIDTH 12 0
BBX 11 7 0 0
BITMAP
1020
FEA0
BAA0
10A0
FE20
4420
7C60
ENDCHAR
STARTCHAR uni5275
ENCODING 21109
SWIDTH 1500 0
DWIDTH 12 0
BBX 11 7 0 0
BITMAP
3820
4520
B920
2920
3C20
6420
BCE0
ENDCHAR
STARTCHAR uni5283
ENCODING 21123
SWIDTH 1500 0
DWIDTH 12 0
BBX 11 7 0 0
BITMAP
1020
FCA0
16A0
FCA0
7C20
5420
FE60
ENDCHAR
STARTCHAR uni5287
ENCODING 21127
SWIDTH 1500 0
DWIDTH 12 0
BBX 11 7 0 0
BITMAP
1020
1EA0
70A0
5CA0
6A20
4C20
BA60
ENDCHAR
STARTCHAR uni5289
ENCODING 21129
SWIDTH 1500 0
DWIDTH 12 0
BBX 11 7 0 0
BITMAP
5C20
8D20
B520
5D20
B020
1C20
E060
ENDCHAR
STARTCHAR uni529B
ENCODING 21147
SWIDTH 1500 0
DWIDTH 12 0
BBX 10 7 0 0
BITMAP
0800
FFC0
0840
0840
1040
2040
C1C0
ENDCHAR
STARTCHAR uni529F
ENCODING 21151
SWIDTH 1500 0
DWIDTH 12 0
BBX 11 7 0 0
BITMAP
F200
2FE0
2220
2220
3220
C420
18E0
ENDCHAR
STARTCHAR uni52A0
ENCODING 21152
SWIDTH 1500 0
DWIDTH 12 0
BBX 11 7 0 0
BITMAP
2000
FDE0
2520
2520
4520
45E0
9C00
ENDCHAR
STARTCHAR uni52A3
ENCODING 21155
SWIDTH 1500 0
DWIDTH 12 0
BBX 11 7 0 0
BITMAP
0400
2480
CD60
0200
7FC0
0840
F1C0
ENDCHAR
STARTCHAR uni52A9
ENCODING 21161
SWIDTH 1500 0
DWIDTH 12 0
BBX 11 7 0 0
BITMAP
7900
4BE0
7920
4920
7920
4D20
F260
ENDCHAR
STARTCHAR uni52AA
ENCODING 21162
SWIDTH 1500 0
DWIDTH 12 0
BBX 11 7 0 0
BITMAP
11E0
FD20
48C0
3120
DFC0
0840
71C0
ENDCHAR
STARTCHAR uni52AB
ENCODING 21163
SWIDTH 1500 0
DWIDTH 12 0
BBX 11 7 0 0
BITMAP
1100
7BE0
1120
FD20
2120
4520
FA60
ENDCHAR
STARTCHAR uni52B1
ENCODING 21169
SWIDTH 1500 0
DWIDTH 12 0
BBX 11 7 0 0
BITMAP
7D00
43E0
7D20
5120
5D20
5520
AE60
ENDCHAR
STARTCHAR uni52B4
ENCODING 21172
SWIDTH 1500 0
DWIDTH 12 0
BBX 11 7 0 0
BITMAP
2880
FFE0
8820
7FC0
0840
1040
E1C0
ENDCHAR
STARTCHAR uni52B9
ENCODING 21177
SWIDTH 1500 0
DWIDTH 12 0
BBX 11 7 0 0
BITMAP
1080
FDE0
28A0
C4A0
28A0
1120
ED60
ENDCHAR
STARTCHAR uni52BE
ENCODING 21182
SWIDTH 1500 0
DWIDTH 12 0
BBX 11 7 0 0
BITMAP
1080
FDE0
50A0
24A0
C8A0
1520
E560
ENDCHAR
STARTCHAR uni52C3
ENCODING 21187
SWIDTH 1500 0
DWIDTH 12 0
BBX 11 7 0 0
BITMAP
1100
7BE0
FD20
8D20
1120
FD20
3260
ENDCHAR
STARTCHAR uni52C5
ENCODING 21189
SWIDTH 1500 0
DWIDTH 12 0
BBX 11 7 0 0
BITMAP
1100
FFE0
5520
7D20
1120
3A20
D460
ENDCHAR
STARTCHAR uni52C7
ENCODING 21191
SWIDTH 1500 0
DWIDTH 12 0
BBX 11 7 0 0
BITMAP
3F80
0100
3F80
2480
FFE0
1020
E0E0
ENDCHAR
STARTCHAR uni52C9
ENCODING 21193
SWIDTH 1500 0
DWIDTH 12 0
BBX 11 7 0 0
BITMAP
3880
C9E0
7CA0
54A0
7D60
2800
CFE0
ENDCHAR
STARTCHAR uni52D5
ENCODING 21205
SWIDTH 1500 0
DWIDTH 12 0
BBX 11 7 0 0
BITMAP
7C80
11E0
FEA0
54A0
7CA0
1120
FE60
ENDCHAR
STARTCHAR uni52D8
ENCODING 21208
SWIDTH 1500 0
DWIDTH 12 0
BBX 11 7 0 0
BITMAP
2880
FDE0
28A0
28A0
FCA0
5120
7E60
ENDCHAR
STARTCHAR uni52D9
ENCODING 21209
SWIDTH 1500 0
DWIDTH 12 0
BBX 11 7 0 0
BITMAP
7200
13E0
2540
F880
6BE0
A120
6660
ENDCHAR
STARTCHAR uni52DD
ENCODING 21213
SWIDTH 1500 0
DWIDTH 12 0
BBX 11 7 0 0
BITMAP
7540
5380
7FE0
5540
7BA0
5280
B580
ENDCHAR
STARTCHAR uni52DF
ENCODING 21215
SWIDTH 1500 0
DWIDTH 12 0
BBX 11 7 0 0
BITMAP
1100
FFE0
1F00
FFE0
5F40
8920
3300
ENDCHAR
STARTCHAR uni52E2
ENCODING 21218
SWIDTH 1500 0
DWIDTH 12 0
BBX 11 7 0 0
BITMAP
1100
7BC0
FD40
5260
BFC0
0840
71C0
ENDCHAR
STARTCHAR uni52E4
ENCODING 21220
SWIDTH 1500 0
DWIDTH 12 0
BBX 11 7 0 0
BITMAP
5100
FBE0
5120
A920
F920
2120
FA60
ENDCHAR
STARTCHAR uni52E7
ENCODING 21223
SWIDTH 1500 0
DWIDTH 12 0
BBX 11 7 0 0
BITMAP
2080
3DE0
50A0
FCA0
68A0
A920
3E60
ENDCHAR
STARTCHAR uni52F2
ENCODING 21234
SWIDTH 1500 0
DWIDTH 12 0
BBX 11 7 0 0
BITMAP
3080
FDE0
58A0
78A0
FD60
0000
8920
ENDCHAR
STARTCHAR uni52FA
ENCODING 21242
SWIDTH 1500 0
DWIDTH 12 0
BBX 11 7 0 0
BITMAP
2000
3FE0
4020
9820
0620
0020
00C0
ENDCHAR
STARTCHAR uni52FE
ENCODING 21246
SWIDTH 1500 0
DWIDTH 12 0
BBX 11 7 0 0
BITMAP
2000
3FE0
4820
8820
1120
3F20
00C0
ENDCHAR
STARTCHAR uni52FF
ENCODING 21247
SWIDTH 1500 0
DWIDTH 12 0
BBX 11 7 0 0
BITMAP
2000
3FE0
4920
8920
1120
6220
0CC0
ENDCHAR
STARTCHAR uni5301
ENCODING 21249
SWIDTH 1500 0
DWIDTH 12 0
BBX 11 7 0 0
BITMAP
2000
3FC0
4440
9C40
0BE0
3040
C1C0
ENDCHAR
STARTCHAR uni5302
ENCODING 21250
SWIDTH 1500 0
DWIDTH 12 0
BBX 11 7 0 0
BITMAP
2000
3FE0
5220
9C20
1120
1F20
00C0
ENDCHAR
STARTCHAR uni5305
ENCODING 21253
SWIDTH 1500 0
DWIDTH 12 0
BBX 11 7 0 0
BITMAP
2000
3FC0
5E40
8240
3EC0
2020
3FE0
ENDCHAR
STARTCHAR uni5316
ENCODING 21270
SWIDTH 1500 0
DWIDTH 12 0
BBX 11 7 0 0
BITMAP
1400
2420
64C0
A700
2400
2420
23E0
ENDCHAR
STARTCHAR uni5317
ENCODING 21271
SWIDTH 1500 0
DWIDTH 12 0
BBX 11 7 0 0
BITMAP
1200
1220
F2C0
1300
3200
D220
11E0
ENDCHAR
STARTCHAR uni5319
ENCODING 21273
SWIDTH 1500 0
DWIDTH 12 0
BBX 11 7 0 0
BITMAP
7900
4940
FD80
1120
5DE0
5000
BFE0
ENDCHAR
STARTCHAR uni531D
ENCODING 21277
SWIDTH 1500 0
DWIDTH 12 0
BBX 10 7 1 0
BITMAP
FFC0
8400
BF80
A480
A580
8400
FFC0
ENDCHAR
STARTCHAR uni5320
ENCODING 21280
SWIDTH 1500 0
DWIDTH 12 0
BBX 10 7 1 0
BITMAP
FFC0
9F00
9000
9F80
9200
A200
FFC0
ENDCHAR
STARTCHAR uni5321
ENCODING 21281
SWIDTH 1500 0
DWIDTH 12 0
BBX 10 7 1 0
BITMAP
FFC0
9F00
8400
9F00
8400
9F00
FFC0
ENDCHAR
STARTCHAR uni532A
ENCODING 21290
SWIDTH 1500 0
DWIDTH 12 0
BBX 10 7 1 0
BITMAP
FFC0
8A00
BB80
8A00
BB80
9200
FFC0
ENDCHAR
STARTCHAR uni5339
ENCODING 21305
SWIDTH 1500 0
DWIDTH 12 0
BBX 10 7 1 0
BITMAP
FFC0
9200
9200
A280
C380
8000
FFC0
ENDCHAR
STARTCHAR uni533A
ENCODING 21306
SWIDTH 1500 0
DWIDTH 12 0
BBX 10 7 1 0
BITMAP
FFC0
8100
9D00
8200
8500
B800
FFC0
ENDCHAR
STARTCHAR uni533B
ENCODING 21307
SWIDTH 1500 0
DWIDTH 12 0
BBX 10 7 1 0
BITMAP
FFC0
9F00
A400
9F80
8A00
B180
FFC0
ENDCHAR
STARTCHAR uni533F
ENCODING 21311
SWIDTH 1500 0
DWIDTH 12 0
BBX 10 7 1 0
BITMAP
FFC0
8A00
BF80
9000
AF00
8900
FFC0
ENDCHAR
STARTCHAR uni5341
ENCODING 21313
SWIDTH 1500 0
DWIDTH 12 0
BBX 11 7 0 0
BITMAP
0400
0400
FFE0
0400
0400
0400
0400
ENDCHAR
STARTCHAR uni5343
ENCODING 21315
SWIDTH 1500 0
DWIDTH 12 0
BBX 11 7 0 0
BITMAP
0380
3C00
0400
FFE0
0400
0400
0400
ENDCHAR
STARTCHAR uni5347
ENCODING 21319
SWIDTH 1500 0
DWIDTH 12 0
BBX 11 7 0 0
BITMAP
0C80
7080
1080
FFE0
1080
2080
4080
ENDCHAR
STARTCHAR uni5348
ENCODING 21320
SWIDTH 1500 0
DWIDTH 12 0
BBX 11 7 0 0
BITMAP
2000
3F80
4400
0400
FFE0
0400
0400
ENDCHAR
STARTCHAR uni534A
ENCODING 21322
SWIDTH 1500 0
DWIDTH 12 0
BBX 11 7 0 0
BITMAP
0400
2480
1500
7FC0
0400
FFE0
0400
ENDCHAR
STARTCHAR uni5351
ENCODING 21329
SWIDTH 1500 0
DWIDTH 12 0
BBX 11 7 0 0
BITMAP
0400
7FC0
4440
7FC0
1200
FFE0
0200
ENDCHAR
STARTCHAR uni5352
ENCODING 21330
SWIDTH 1500 0
DWIDTH 12 0
BBX 11 7 0 0
BITMAP
0400
FFE0
2080
5140
0400
FFE0
0400
ENDCHAR
STARTCHAR uni5353
ENCODING 21331
SWIDTH 1500 0
DWIDTH 12 0
BBX 11 7 0 0
BITMAP
0400
07C0
3F80
2080
3F80
FFE0
0400
ENDCHAR
STARTCHAR uni5354
ENCODING 21332
SWIDTH 1500 0
DWIDTH 12 0
BBX 11 7 0 0
BITMAP
4200
4FC0
E240
4480
5FE0
4AA0
5760
ENDCHAR
STARTCHAR uni5357
ENCODING 21335
SWIDTH 1500 0
DWIDTH 12 0
BBX 11 7 0 0
BITMAP
0400
FFE0
0400
7FC0
4A40
5F40
44C0
ENDCHAR
STARTCHAR uni5358
ENCODING 21336
SWIDTH 1500 0
DWIDTH 12 0
BBX 11 7 0 0
BITMAP
4840
3F80
2480
3F80
2480
FFE0
0400
ENDCHAR
STARTCHAR uni535A
ENCODING 21338
SWIDTH 1500 0
DWIDTH 12 0
BBX 11 7 0 0
BITMAP
2120
2FE0
F540
27C0
2FE0
2480
2180
ENDCHAR
STARTCHAR uni535C
ENCODING 21340
SWIDTH 1500 0
DWIDTH 12 0
BBX 7 7 3 0
BITMAP
80
80
E0
98
86
80
80
ENDCHAR
STARTCHAR uni5360
ENCODING 21344
SWIDTH 1500 0
DWIDTH 12 0
BBX 9 7 1 0
BITMAP
0800
0F80
0800
FF80
8080
8080
FF80
ENDCHAR
STARTCHAR uni5366
ENCODING 21350
SWIDTH 1500 0
DWIDTH 12 0
BBX 11 7 0 0
BITMAP
1100
7D00
1180
FD40
3120
1D00
E100
ENDCHAR
STARTCHAR uni536F
ENCODING 21359
SWIDTH 1500 0
DWIDTH 12 0
BBX 11 7 0 0
BITMAP
1BE0
6220
4A20
4A20
FAE0
1200
6200
ENDCHAR
STARTCHAR uni5370
ENCODING 21360
SWIDTH 1500 0
DWIDTH 12 0
BBX 11 7 0 0
BITMAP
1BE0
E220
8220
FA20
82E0
FA00
0200
ENDCHAR
STARTCHAR uni5371
ENCODING 21361
SWIDTH 1500 0
DWIDTH 12 0
BBX 11 7 0 0
BITMAP
1F00
E100
3FE0
2880
2B80
4820
87E0
ENDCHAR
STARTCHAR uni5373
ENCODING 21363
SWIDTH 1500 0
DWIDTH 12 0
BBX 11 7 0 0
BITMAP
79E0
4920
7920
4920
7960
4500
FD00
ENDCHAR
STARTCHAR uni5374
ENCODING 21364
SWIDTH 1500 0
DWIDTH 12 0
BBX 11 7 0 0
BITMAP
11E0
7920
1120
FD20
2160
4900
F500
ENDCHAR
STARTCHAR uni5375
ENCODING 21365
SWIDTH 1500 0
DWIDTH 12 0
BBX 11 7 0 0
BITMAP
1BE0
6220
5320
4AA0
FA20
0A60
7200
ENDCHAR
STARTCHAR uni5378
ENCODING 21368
SWIDTH 1500 0
DWIDTH 12 0
BBX 11 7 0 0
BITMAP
41E0
7D20
9120
FD20
1160
5D00
F100
ENDCHAR
STARTCHAR uni537F
ENCODING 21375
SWIDTH 1500 0
DWIDTH 12 0
BBX 11 7 0 0
BITMAP
2EE0
CAA0
AEA0
AAA0
EEA0
2880
CE80
ENDCHAR
STARTCHAR uni5384
ENCODING 21380
SWIDTH 1500 0
DWIDTH 12 0
BBX 11 7 0 0
BITMAP
7FC0
4000
5F80
5080
5380
5020
8FE0
ENDCHAR
STARTCHAR uni5398
ENCODING 21400
SWIDTH 1500 0
DWIDTH 12 0
BBX 10 7 0 0
BITMAP
7FC0
5280
5F80
5280
5F80
4200
BFC0
ENDCHAR
STARTCHAR uni539A
ENCODING 21402
SWIDTH 1500 0
DWIDTH 12 0
BBX 11 7 0 0
BITMAP
7FE0
4840
4FC0
4080
5FE0
4100
8700
ENDCHAR
STARTCHAR uni539F
ENCODING 21407
SWIDTH 1500 0
DWIDTH 12 0
BBX 11 7 0 0
BITMAP
7FC0
4200
4F80
4880
4F80
5240
A620
ENDCHAR
STARTCHAR uni53A8
ENCODING 21416
SWIDTH 1500 0
DWIDTH 12 0
BBX 11 7 0 0
BITMAP
7FE0
4040
5DE0
5440
5D40
4A40
BEC0
ENDCHAR
STARTCHAR uni53A9
ENCODING 21417
SWIDTH 1500 0
DWIDTH 12 0
BBX 11 7 0 0
BITMAP
7FC0
4000
7BE0
7940
63E0
7980
86E0
ENDCHAR
STARTCHAR uni53AD
ENCODING 21421
SWIDTH 1500 0
DWIDTH 12 0
BBX 11 7 0 0
BITMAP
7FC0
54A0
5DC0
4080
5C80
5D40
9620
ENDCHAR
STARTCHAR uni53B3
ENCODING 21427
SWIDTH 1500 0
DWIDTH 12 0
BBX 11 7 0 0
BITMAP
2880
7FC0
4800
7EE0
5520
7CC0
8520
ENDCHAR
STARTCHAR uni53BB
ENCODING 21435
SWIDTH 1500 0
DWIDTH 12 0
BBX 11 7 0 0
BITMAP
0400
3F80
0400
FFE0
0800
1080
7F40
ENDCHAR
STARTCHAR uni53C2
ENCODING 21442
SWIDTH 1500 0
DWIDTH 12 0
BBX 11 7 0 0
BITMAP
1000
2080
FFE0
2280
CC60
0300
3C00
ENDCHAR
STARTCHAR uni53C8
ENCODING 21448
SWIDTH 1500 0
DWIDTH 12 0
BBX 11 7 0 0
BITMAP
7F80
0080
1100
0A00
0400
1B00
E0E0
ENDCHAR
STARTCHAR uni53C9
ENCODING 21449
SWIDTH 1500 0
DWIDTH 12 0
BBX 11 7 0 0
BITMAP
7F80
0880
2480
1100
0E00
3180
C060
ENDCHAR
STARTCHAR uni53CA
ENCODING 21450
SWIDTH 1500 0
DWIDTH 12 0
BBX 11 7 0 0
BITMAP
7F00
0900
09C0
1440
1480
2300
DCE0
ENDCHAR
STARTCHAR uni53CB
ENCODING 21451
SWIDTH 1500 0
DWIDTH 12 0
BBX 11 7 0 0
BITMAP
0800
FFE0
1000
1F80
2880
4700
B8E0
ENDCHAR
STARTCHAR uni53CC
ENCODING 21452
SWIDTH 1500 0
DWIDTH 12 0
BBX 11 7 0 0
BITMAP
FBE0
0820
4A40
3140
1080
2940
C620
ENDCHAR
STARTCHAR uni53CD
ENCODING 21453
SWIDTH 1500 0
DWIDTH 12 0
BBX 11 7 0 0
BITMAP
7FC0
4000
7F80
4880
4500
4700
B8E0
ENDCHAR
STARTCHAR uni53CE
ENCODING 21454
SWIDTH 1500 0
DWIDTH 12 0
BBX 11 7 0 0
BITMAP
17E0
5020
5240
5140
5880
F140
1620
ENDCHAR
STARTCHAR uni53D4
ENCODING 21460
SWIDTH 1500 0
DWIDTH 12 0
BBX 11 7 0 0
BITMAP
13E0
1820
1140
FD40
1080
5540
B220
ENDCHAR
STARTCHAR uni53D6
ENCODING 21462
SWIDTH 1500 0
DWIDTH 12 0
BBX 11 7 0 0
BITMAP
FC00
4BE0
7820
7940
4C80
F940
0A20
ENDCHAR
STARTCHAR uni53D7
ENCODING 21463
SWIDTH 1500 0
DWIDTH 12 0
BBX 11 7 0 0
BITMAP
7FC0
2880
FFE0
9F20
1100
0E00
F1E0
ENDCHAR
STARTCHAR uni53D9
ENCODING 21465
SWIDTH 1500 0
DWIDTH 12 0
BBX 11 7 0 0
BITMAP
23E0
5020
FA40
2140
F880
2140
AA20
ENDCHAR
STARTCHAR uni53DB
ENCODING 21467
SWIDTH 1500 0
DWIDTH 12 0
BBX 11 7 0 0
BITMAP
B7E0
2400
F7C0
2540
F540
2480
4B60
ENDCHAR
STARTCHAR uni53E1
ENCODING 21473
SWIDTH 1500 0
DWIDTH 12 0
BBX 11 7 0 0
BITMAP
3BE0
2020
FD40
B540
4880
B540
3220
ENDCHAR
STARTCHAR uni53E2
ENCODING 21474
SWIDTH 1500 0
DWIDTH 12 0
BBX 11 7 0 0
BITMAP
4A40
FFE0
1100
FFE0
3940
F880
0B60
ENDCHAR
STARTCHAR uni53E3
ENCODING 21475
SWIDTH 1500 0
DWIDTH 12 0
BBX 9 6 1 0
BITMAP
FF80
8080
8080
8080
FF80
8080
ENDCHAR
STARTCHAR uni53E4
ENCODING 21476
SWIDTH 1500 0
DWIDTH 12 0
BBX 11 7 0 0
BITMAP
0400
0400
FFE0
0400
3F80
2080
3F80
ENDCHAR
STARTCHAR uni53E5
ENCODING 21477
SWIDTH 1500 0
DWIDTH 12 0
BBX 11 7 0 0
BITMAP
2000
3FE0
4020
9F20
1120
1F20
00C0
ENDCHAR
STARTCHAR uni53E9
ENCODING 21481
SWIDTH 1500 0
DWIDTH 12 0
BBX 11 7 0 0
BITMAP
07E0
F420
9420
9420
F4E0
0400
0400
ENDCHAR
STARTCHAR uni53EA
ENCODING 21482
SWIDTH 1500 0
DWIDTH 12 0
BBX 11 7 0 0
BITMAP
3F80
2080
2080
3F80
0000
3180
C060
ENDCHAR
STARTCHAR uni53EB
ENCODING 21483
SWIDTH 1500 0
DWIDTH 12 0
BBX 11 7 0 0
BITMAP
0080
F480
9480
9480
F4E0
0F80
0080
ENDCHAR
STARTCHAR uni53EC
ENCODING 21484
SWIDTH 1500 0
DWIDTH 12 0
BBX 10 7 0 0
BITMAP
7FC0
0840
3040
C0C0
3F80
2080
3F80
ENDCHAR
STARTCHAR uni53EF
ENCODING 21487
SWIDTH 1500 0
DWIDTH 12 0
BBX 11 7 0 0
BITMAP
FFE0
0080
3C80
2480
3C80
0080
0380
ENDCHAR
STARTCHAR uni53F0
ENCODING 21488
SWIDTH 1500 0
DWIDTH 12 0
BBX 11 7 0 0
BITMAP
0800
1080
FF60
0000
3F80
2080
3F80
ENDCHAR
STARTCHAR uni53F1
ENCODING 21489
SWIDTH 1500 0
DWIDTH 12 0
BBX 11 7 0 0
BITMAP
0400
F420
94C0
9700
F400
0420
03E0
ENDCHAR
STARTCHAR uni53F2
ENCODING 21490
SWIDTH 1500 0
DWIDTH 12 0
BBX 11 7 0 0
BITMAP
0400
7FC0
4440
7FC0
1400
0C00
F3E0
ENDCHAR
STARTCHAR uni53F3
ENCODING 21491
SWIDTH 1500 0
DWIDTH 12 0
BBX 11 7 0 0
BITMAP
0800
FFE0
1000
3FC0
D040
1040
1FC0
ENDCHAR
STARTCHAR uni53F6
ENCODING 21494
SWIDTH 1500 0
DWIDTH 12 0
BBX 11 7 0 0
BITMAP
0100
F100
9FE0
9100
F100
0100
0100
ENDCHAR
STARTCHAR uni53F7
ENCODING 21495
SWIDTH 1500 0
DWIDTH 12 0
BBX 11 7 0 0
BITMAP
3F80
2080
FFE0
1000
3F80
0080
0700
ENDCHAR
STARTCHAR uni53F8
ENCODING 21496
SWIDTH 1500 0
DWIDTH 12 0
BBX 11 7 0 0
BITMAP
FFE0
3F20
0020
3F20
2120
3F20
00E0
ENDCHAR
STARTCHAR uni5403
ENCODING 21507
SWIDTH 1500 0
DWIDTH 12 0
BBX 11 7 0 0
BITMAP
0400
F7E0
9800
97C0
F200
0420
03E0
ENDCHAR
STARTCHAR uni5404
ENCODING 21508
SWIDTH 1500 0
DWIDTH 12 0
BBX 11 7 0 0
BITMAP
1F00
7100
0E00
3180
DF60
1100
1F00
ENDCHAR
STARTCHAR uni5408
ENCODING 21512
SWIDTH 1500 0
DWIDTH 12 0
BBX 11 7 0 0
BITMAP
0E00
3180
CE60
0000
3F80
2080
3F80
ENDCHAR
STARTCHAR uni5409
ENCODING 21513
SWIDTH 1500 0
DWIDTH 12 0
BBX 11 7 0 0
BITMAP
0400
FFE0
0400
3F80
0000
3F80
3F80
ENDCHAR
STARTCHAR uni540A
ENCODING 21514
SWIDTH 1500 0
DWIDTH 12 0
BBX 11 7 0 0
BITMAP
3F80
2080
3F80
FFE0
8420
84E0
0400
ENDCHAR
STARTCHAR uni540B
ENCODING 21515
SWIDTH 1500 0
DWIDTH 12 0
BBX 11 7 0 0
BITMAP
0080
FFE0
9080
9480
F280
0080
0380
ENDCHAR
STARTCHAR uni540C
ENCODING 21516
SWIDTH 1500 0
DWIDTH 12 0
BBX 11 7 0 0
BITMAP
FFE0
8020
BFA0
8020
9F20
9120
9F60
ENDCHAR
STARTCHAR uni540D
ENCODING 21517
SWIDTH 1500 0
DWIDTH 12 0
BBX 11 7 0 0
BITMAP
0F80
1080
6B00
0400
1FE0
E820
0FE0
ENDCHAR
STARTCHAR uni540E
ENCODING 21518
SWIDTH 1500 0
DWIDTH 12 0
BBX 11 7 0 0
BITMAP
00C0
3F00
2000
3FE0
2000
4FC0
8FC0
ENDCHAR
STARTCHAR uni540F
ENCODING 21519
SWIDTH 1500 0
DWIDTH 12 0
BBX 11 7 0 0
BITMAP
0400
FFE0
2480
3F80
1400
0C00
F3E0
ENDCHAR
STARTCHAR uni5410
ENCODING 21520
SWIDTH 1500 0
DWIDTH 12 0
BBX 11 7 0 0
BITMAP
0100
F100
97C0
9100
F100
0100
0FE0
ENDCHAR
STARTCHAR uni5411
ENCODING 21521
SWIDTH 1500 0
DWIDTH 12 0
BBX 9 7 1 0
BITMAP
0800
FF80
8080
BE80
A280
BE80
8180
ENDCHAR
STARTCHAR uni541B
ENCODING 21531
SWIDTH 1500 0
DWIDTH 12 0
BBX 11 7 0 0
BITMAP
3F80
0480
FFE0
0880
1FC0
F040
1FC0
ENDCHAR
STARTCHAR uni541F
ENCODING 21535
SWIDTH 1500 0
DWIDTH 12 0
BBX 11 7 0 0
BITMAP
0380
F440
9BA0
9000
F7E0
0040
0380
ENDCHAR
STARTCHAR uni5420
ENCODING 21536
SWIDTH 1500 0
DWIDTH 12 0
BBX 11 7 0 0
BITMAP
0140
F100
9FE0
9100
F100
0280
0C60
ENDCHAR
STARTCHAR uni5426
ENCODING 21542
SWIDTH 1500 0
DWIDTH 12 0
BBX 11 7 0 0
BITMAP
7FC0
0C00
3580
C460
3F80
2080
3F80
ENDCHAR
STARTCHAR uni542B
ENCODING 21547
SWIDTH 1500 0
DWIDTH 12 0
BBX 11 7 0 0
BITMAP
0E00
3180
DF60
0200
3F80
2080
3F80
ENDCHAR
STARTCHAR uni5438
ENCODING 21560
SWIDTH 1500 0
DWIDTH 12 0
BBX 11 7 0 0
BITMAP
1F80
E480
A4C0
AA40
EA80
1100
2EE0
ENDCHAR
STARTCHAR uni5439
ENCODING 21561
SWIDTH 1500 0
DWIDTH 12 0
BBX 11 7 0 0
BITMAP
0400
F7E0
9520
9900
F100
0280
0C60
ENDCHAR
STARTCHAR uni543B
ENCODING 21563
SWIDTH 1500 0
DWIDTH 12 0
BBX 11 7 0 0
BITMAP
0400
E7E0
AAA0
A2A0
A4A0
E920
02C0
ENDCHAR
STARTCHAR uni543E
ENCODING 21566
SWIDTH 1500 0
DWIDTH 12 0
BBX 11 7 0 0
BITMAP
7FC0
0800
7F80
1080
FFE0
2080
3F80
ENDCHAR
STARTCHAR uni5442
ENCODING 21570
SWIDTH 1500 0
DWIDTH 12 0
BBX 9 7 1 0
BITMAP
7F00
4100
7F00
0800
FF80
8080
FF80
ENDCHAR
STARTCHAR uni5446
ENCODING 21574
SWIDTH 1500 0
DWIDTH 12 0
BBX 11 7 0 0
BITMAP
3F80
2080
3F80
0400
FFE0
1500
E4E0
ENDCHAR
STARTCHAR uni5448
ENCODING 21576
SWIDTH 1500 0
DWIDTH 12 0
BBX 11 7 0 0
BITMAP
3F80
2080
7FC0
0400
3F80
0400
FFE0
ENDCHAR
STARTCHAR uni5449
ENCODING 21577
SWIDTH 1500 0
DWIDTH 12 0
BBX 11 7 0 0
BITMAP
1F80
5080
7F80
0100
FFE0
2080
C060
ENDCHAR
STARTCHAR uni544A
ENCODING 21578
SWIDTH 1500 0
DWIDTH 12 0
BBX 11 7 0 0
BITMAP
2400
3F80
4400
FFE0
0000
3F80
3F80
ENDCHAR
STARTCHAR uni5451
ENCODING 21585
SWIDTH 1500 0
DWIDTH 12 0
BBX 11 7 0 0
BITMAP
0180
3E00
FFE0
2080
5F40
9120
1F00
ENDCHAR
STARTCHAR uni5468
ENCODING 21608
SWIDTH 1500 0
DWIDTH 12 0
BBX 11 7 0 0
BITMAP
3FE0
2420
2F20
2420
3FA0
4920
8F60
ENDCHAR
STARTCHAR uni546A
ENCODING 21610
SWIDTH 1500 0
DWIDTH 12 0
BBX 11 7 0 0
BITMAP
07C0
F440
9440
97C0
F280
04A0
18E0
ENDCHAR
STARTCHAR uni5473
ENCODING 21619
SWIDTH 1500 0
DWIDTH 12 0
BBX 11 7 0 0
BITMAP
0100
F7C0
9100
9FE0
F380
0540
1920
ENDCHAR
STARTCHAR uni547C
ENCODING 21628
SWIDTH 1500 0
DWIDTH 12 0
BBX 11 7 0 0
BITMAP
00C0
EF00
A540
A100
FFE0
0100
0700
ENDCHAR
STARTCHAR uni547D
ENCODING 21629
SWIDTH 1500 0
DWIDTH 12 0
BBX 11 7 0 0
BITMAP
0E00
3180
DF60
0000
7BC0
7A40
0200
ENDCHAR
STARTCHAR uni548B
ENCODING 21643
SWIDTH 1500 0
DWIDTH 12 0
BBX 11 7 0 0
BITMAP
0200
F3E0
9500
99E0
F100
01E0
0100
ENDCHAR
STARTCHAR uni548C
ENCODING 21644
SWIDTH 1500 0
DWIDTH 12 0
BBX 11 7 0 0
BITMAP
7800
11E0
FD20
1120
3920
D5E0
1000
ENDCHAR
STARTCHAR uni54B2
ENCODING 21682
SWIDTH 1500 0
DWIDTH 12 0
BBX 11 7 0 0
BITMAP
0440
F280
97C0
9100
FFE0
0280
0C60
ENDCHAR
STARTCHAR uni54B3
ENCODING 21683
SWIDTH 1500 0
DWIDTH 12 0
BBX 11 7 0 0
BITMAP
0100
EFE0
A500
A240
EC80
0140
0E20
ENDCHAR
STARTCHAR uni54BD
ENCODING 21693
SWIDTH 1500 0
DWIDTH 12 0
BBX 11 7 0 0
BITMAP
0FE0
E920
ABA0
A920
E920
0AA0
0FE0
ENDCHAR
STARTCHAR uni54C0
ENCODING 21696
SWIDTH 1500 0
DWIDTH 12 0
BBX 11 7 0 0
BITMAP
0400
FFE0
2080
3F80
1240
E180
3860
ENDCHAR
STARTCHAR uni54C1
ENCODING 21697
SWIDTH 1500 0
DWIDTH 12 0
BBX 11 7 0 0
BITMAP
3F80
2080
3F80
0000
FBE0
8A20
FBE0
ENDCHAR
STARTCHAR uni54C9
ENCODING 21705
SWIDTH 1500 0
DWIDTH 12 0
BBX 11 7 0 0
BITMAP
1100
7940
1100
FFE0
0140
7880
7B60
ENDCHAR
STARTCHAR uni54E1
ENCODING 21729
SWIDTH 1500 0
DWIDTH 12 0
BBX 11 7 0 0
BITMAP
3F80
2080
7FC0
7FC0
4040
7FC0
C060
ENDCHAR
STARTCHAR uni54E8
ENCODING 21736
SWIDTH 1500 0
DWIDTH 12 0
BBX 11 7 0 0
BITMAP
0520
F140
97E0
9420
F7E0
0420
04E0
ENDCHAR
STARTCHAR uni54E9
ENCODING 21737
SWIDTH 1500 0
DWIDTH 12 0
BBX 11 7 0 0
BITMAP
07C0
F540
97C0
9540
F7C0
0100
0FE0
ENDCHAR
STARTCHAR uni54F2
ENCODING 21746
SWIDTH 1500 0
DWIDTH 12 0
BBX 11 7 0 0
BITMAP
23C0
F200
23E0
E480
3F80
2080
3F80
ENDCHAR
STARTCHAR uni5504
ENCODING 21764
SWIDTH 1500 0
DWIDTH 12 0
BBX 11 7 0 0
BITMAP
07C0
F440
97C0
9440
F7C0
0000
0C60
ENDCHAR
STARTCHAR uni5506
ENCODING 21766
SWIDTH 1500 0
DWIDTH 12 0
BBX 11 7 0 0
BITMAP
0440
FFA0
A880
B3E0
EC80
0300
1CE0
ENDCHAR
STARTCHAR uni5507
ENCODING 21767
SWIDTH 1500 0
DWIDTH 12 0
BBX 11 7 0 0
BITMAP
7FC0
4F00
7FE0
5200
9980
3FC0
3FC0
ENDCHAR
STARTCHAR uni5510
ENCODING 21776
SWIDTH 1500 0
DWIDTH 12 0
BBX 11 7 0 0
BITMAP
0200
7FC0
4F80
42E0
5F80
4880
8F80
ENDCHAR
STARTCHAR uni5516
ENCODING 21782
SWIDTH 1500 0
DWIDTH 12 0
BBX 11 7 0 0
BITMAP
1FE0
E280
AFE0
AAA0
EFE0
0280
1FE0
ENDCHAR
STARTCHAR uni552F
ENCODING 21807
SWIDTH 1500 0
DWIDTH 12 0
BBX 11 7 0 0
BITMAP
0280
F3E0
9680
9BE0
F280
0280
03E0
ENDCHAR
STARTCHAR uni5531
ENCODING 21809
SWIDTH 1500 0
DWIDTH 12 0
BBX 11 7 0 0
BITMAP
03C0
F240
97E0
9420
F7E0
0420
07E0
ENDCHAR
STARTCHAR uni553E
ENCODING 21822
SWIDTH 1500 0
DWIDTH 12 0
BBX 11 7 0 0
BITMAP
07C0
E100
AFE0
A540
EFE0
0100
0FE0
ENDCHAR
STARTCHAR uni5544
ENCODING 21828
SWIDTH 1500 0
DWIDTH 12 0
BBX 11 7 0 0
BITMAP
07C0
F200
9340
9580
F2C0
0CA0
0300
ENDCHAR
STARTCHAR uni5546
ENCODING 21830
SWIDTH 1500 0
DWIDTH 12 0
BBX 11 7 0 0
BITMAP
0400
FFE0
2080
FFE0
AEA0
CAE0
8E20
ENDCHAR
STARTCHAR uni554F
ENCODING 21839
SWIDTH 1500 0
DWIDTH 12 0
BBX 11 7 0 0
BITMAP
F1E0
9120
F1E0
8020
9F20
9120
9F60
ENDCHAR
STARTCHAR uni5553
ENCODING 21843
SWIDTH 1500 0
DWIDTH 12 0
BBX 11 7 0 0
BITMAP
FCE0
4920
78C0
4120
BF80
2080
3F80
ENDCHAR
STARTCHAR uni5584
ENCODING 21892
SWIDTH 1500 0
DWIDTH 12 0
BBX 11 7 0 0
BITMAP
2080
7FC0
0400
FFE0
2480
FFE0
1F00
ENDCHAR
STARTCHAR uni5589
ENCODING 21897
SWIDTH 1500 0
DWIDTH 12 0
BBX 11 7 0 0
BITMAP
05C0
E840
BBE0
A900
EBE0
0880
0B60
ENDCHAR
STARTCHAR uni558B
ENCODING 21899
SWIDTH 1500 0
DWIDTH 12 0
BBX 11 7 0 0
BITMAP
0540
EFE0
A5C0
A400
EFE0
0380
0D60
ENDCHAR
STARTCHAR uni559A
ENCODING 21914
SWIDTH 1500 0
DWIDTH 12 0
BBX 11 7 0 0
BITMAP
0380
EC80
A7C0
A6C0
EFE0
0280
1C60
ENDCHAR
STARTCHAR uni559C
ENCODING 21916
SWIDTH 1500 0
DWIDTH 12 0
BBX 11 7 0 0
BITMAP
0400
FFE0
3F80
1100
FFE0
2080
3F80
ENDCHAR
STARTCHAR uni559D
ENCODING 21917
SWIDTH 1500 0
DWIDTH 12 0
BBX 11 7 0 0
BITMAP
0FC0
E840
AFC0
A400
EFE0
1420
0760
ENDCHAR
STARTCHAR uni55A7
ENCODING 21927
SWIDTH 1500 0
DWIDTH 12 0
BBX 11 7 0 0
BITMAP
0100
EFE0
ABA0
A000
E7C0
0440
0FE0
ENDCHAR
STARTCHAR uni55AA
ENCODING 21930
SWIDTH 1500 0
DWIDTH 12 0
BBX 11 7 0 0
BITMAP
0400
7FC0
3580
0400
FFE0
5100
BCE0
ENDCHAR
STARTCHAR uni55AB
ENCODING 21931
SWIDTH 1500 0
DWIDTH 12 0
BBX 11 7 0 0
BITMAP
05E0
EEA0
A4A0
AD00
E7E0
0280
0C60
ENDCHAR
STARTCHAR uni55AC
ENCODING 21932
SWIDTH 1500 0
DWIDTH 12 0
BBX 11 7 0 0
BITMAP
1F00
FFE0
2E80
CA60
7FC0
5140
5F40
ENDCHAR
STARTCHAR uni55B0
ENCODING 21936
SWIDTH 1500 0
DWIDTH 12 0
BBX 11 7 0 0
BITMAP
0780
E940
B7A0
A480
E7C0
0480
1E60
ENDCHAR
STARTCHAR uni55B6
ENCODING 21942
SWIDTH 1500 0
DWIDTH 12 0
BBX 11 7 0 0
BITMAP
2880
FFE0
9120
1F00
0400
3F80
3F80
ENDCHAR
STARTCHAR uni55E3
ENCODING 21987
SWIDTH 1500 0
DWIDTH 12 0
BBX 11 7 0 0
BITMAP
77E0
53A0
F820
ABA0
FAA0
ABA0
A860
ENDCHAR
STARTCHAR uni5606
ENCODING 22022
SWIDTH 1500 0
DWIDTH 12 0
BBX 11 7 0 0
BITMAP
0280
EFE0
A540
A7C0
EFE0
0280
0C60
ENDCHAR
STARTCHAR uni5609
ENCODING 22025
SWIDTH 1500 0
DWIDTH 12 0
BBX 11 7 0 0
BITMAP
0400
7FC0
3F80
1100
FFE0
2A40
DBC0
ENDCHAR
STARTCHAR uni5617
ENCODING 22039
SWIDTH 1500 0
DWIDTH 12 0
BBX 11 7 0 0
BITMAP
2480
FFE0
9F20
2000
3FC0
2080
3F80
ENDCHAR
STARTCHAR uni5618
ENCODING 22040
SWIDTH 1500 0
DWIDTH 12 0
BBX 11 7 0 0
BITMAP
0100
E1E0
AF00
A9E0
E800
1280
27E0
ENDCHAR
STARTCHAR uni5629
ENCODING 22057
SWIDTH 1500 0
DWIDTH 12 0
BBX 11 7 0 0
BITMAP
0280
EFE0
A540
AFE0
E540
0FE0
0100
ENDCHAR
STARTCHAR uni5631
ENCODING 22065
SWIDTH 1500 0
DWIDTH 12 0
BBX 11 7 0 0
BITMAP
0FE0
E820
AFE0
AB40
EDE0
17A0
2460
ENDCHAR
STARTCHAR uni5642
ENCODING 22082
SWIDTH 1500 0
DWIDTH 12 0
BBX 11 7 0 0
BITMAP
0280
EFE0
A6C0
A440
EFE0
0280
0180
ENDCHAR
STARTCHAR uni564C
ENCODING 22092
SWIDTH 1500 0
DWIDTH 12 0
BBX 11 7 0 0
BITMAP
0440
EFE0
A920
AFE0
E7C0
0440
07C0
ENDCHAR
STARTCHAR uni565B
ENCODING 22107
SWIDTH 1500 0
DWIDTH 12 0
BBX 11 7 0 0
BITMAP
01C0
E500
BFE0
AD60
EBA0
0D60
0FE0
ENDCHAR
STARTCHAR uni5668
ENCODING 22120
SWIDTH 1500 0
DWIDTH 12 0
BBX 11 7 0 0
BITMAP
3B80
3B80
0400
FFE0
1100
FBE0
3B80
ENDCHAR
STARTCHAR uni5674
ENCODING 22132
SWIDTH 1500 0
DWIDTH 12 0
BBX 11 7 0 0
BITMAP
0100
EFE0
A540
AFE0
A440
E7C0
0C60
ENDCHAR
STARTCHAR uni5678
ENCODING 22136
SWIDTH 1500 0
DWIDTH 12 0
BBX 11 7 0 0
BITMAP
09E0
FE40
A8E0
AAA0
FEE0
0800
0D20
ENDCHAR
STARTCHAR uni567A
ENCODING 22138
SWIDTH 1500 0
DWIDTH 12 0
BBX 11 7 0 0
BITMAP
0420
FFC0
AA80
BFE0
E4A0
0EA0
1520
ENDCHAR
STARTCHAR uni5687
ENCODING 22151
SWIDTH 1500 0
DWIDTH 12 0
BBX 10 7 0 0
BITMAP
0880
FDC0
A880
BDC0
F740
1540
2EC0
ENDCHAR
STARTCHAR uni56A2
ENCODING 22178
SWIDTH 1500 0
DWIDTH 12 0
BBX 11 7 0 0
BITMAP
0400
FFE0
2480
FFE0
9FA0
3100
DCE0
ENDCHAR
STARTCHAR uni56DA
ENCODING 22234
SWIDTH 1500 0
DWIDTH 12 0
BBX 11 7 0 0
BITMAP
FFE0
8420
8420
8A20
9120
A0A0
FFE0
ENDCHAR
STARTCHAR uni56DB
ENCODING 22235
SWIDTH 1500 0
DWIDTH 12 0
BBX 9 7 1 0
BITMAP
FF80
9480
9480
A780
C080
8080
FF80
ENDCHAR
STARTCHAR uni56DE
ENCODING 22238
SWIDTH 1500 0
DWIDTH 12 0
BBX 9 7 1 0
BITMAP
FF80
8080
BE80
A280
BE80
8080
FF80
ENDCHAR
STARTCHAR uni56E0
ENCODING 22240
SWIDTH 1500 0
DWIDTH 12 0
BBX 11 7 0 0
BITMAP
FFE0
8420
BFA0
8420
8A20
B1A0
FFE0
ENDCHAR
STARTCHAR uni56E3
ENCODING 22243
SWIDTH 1500 0
DWIDTH 12 0
BBX 11 7 0 0
BITMAP
FFE0
8220
BFA0
8220
9220
8620
FFE0
ENDCHAR
STARTCHAR uni56F0
ENCODING 22256
SWIDTH 1500 0
DWIDTH 12 0
BBX 11 7 0 0
BITMAP
FFE0
8420
BFA0
8E20
9520
A4A0
FFE0
ENDCHAR
STARTCHAR uni56F2
ENCODING 22258
SWIDTH 1500 0
DWIDTH 12 0
BBX 11 7 0 0
BITMAP
FFE0
8A20
BFA0
8A20
BFA0
9220
FFE0
ENDCHAR
STARTCHAR uni56F3
ENCODING 22259
SWIDTH 1500 0
DWIDTH 12 0
BBX 9 7 1 0
BITMAP
FF80
AA80
8280
B480
8C80
B280
FF80
ENDCHAR
STARTCHAR uni56FA
ENCODING 22266
SWIDTH 1500 0
DWIDTH 12 0
BBX 11 7 0 0
BITMAP
FFE0
8420
BFA0
8420
9F20
9120
FFE0
ENDCHAR
STARTCHAR uni56FD
ENCODING 22269
SWIDTH 1500 0
DWIDTH 12 0
BBX 11 7 0 0
BITMAP
FFE0
9F20
8420
9F20
8460
9F20
FFE0
ENDCHAR
STARTCHAR uni5703
ENCODING 22275
SWIDTH 1500 0
DWIDTH 12 0
BBX 11 7 0 0
BITMAP
FFE0
84A0
BFA0
9520
9F20
9520
FFE0
ENDCHAR
STARTCHAR uni570F
ENCODING 22287
SWIDTH 1500 0
DWIDTH 12 0
BBX 11 7 0 0
BITMAP
FFE0
9520
BFA0
9520
A8A0
8E20
FFE0
ENDCHAR
STARTCHAR uni5712
ENCODING 22290
SWIDTH 1500 0
DWIDTH 12 0
BBX 11 7 0 0
BITMAP
FFE0
8E20
BFA0
9120
9F20
A4A0
FFE0
ENDCHAR
STARTCHAR uni571F
ENCODING 22303
SWIDTH 1500 0
DWIDTH 12 0
BBX 11 7 0 0
BITMAP
0400
0400
3F80
0400
0400
0400
FFE0
ENDCHAR
STARTCHAR uni5727
ENCODING 22311
SWIDTH 1500 0
DWIDTH 12 0
BBX 10 7 0 0
BITMAP
7FC0
4200
4200
4F80
4200
4200
9FC0
ENDCHAR
STARTCHAR uni5728
ENCODING 22312
SWIDTH 1500 0
DWIDTH 12 0
BBX 11 7 0 0
BITMAP
0800
FFE0
1100
27C0
E100
2100
2FE0
ENDCHAR
STARTCHAR uni572D
ENCODING 22317
SWIDTH 1500 0
DWIDTH 12 0
BBX 11 7 0 0
BITMAP
0400
3F80
0400
FFE0
3F80
0400
FFE0
ENDCHAR
STARTCHAR uni5730
ENCODING 22320
SWIDTH 1500 0
DWIDTH 12 0
BBX 11 7 0 0
BITMAP
2500
F5E0
2720
2D60
3500
C420
03E0
ENDCHAR
STARTCHAR uni5742
ENCODING 22338
SWIDTH 1500 0
DWIDTH 12 0
BBX 11 7 0 0
BITMAP
27E0
F400
27C0
2540
3540
C880
1760
ENDCHAR
STARTCHAR uni5747
ENCODING 22343
SWIDTH 1500 0
DWIDTH 12 0
BBX 11 7 0 0
BITMAP
2400
F7E0
2820
2220
31A0
C620
00C0
ENDCHAR
STARTCHAR uni574A
ENCODING 22346
SWIDTH 1500 0
DWIDTH 12 0
BBX 11 7 0 0
BITMAP
2100
F7E0
2200
23E0
3220
C420
08E0
ENDCHAR
STARTCHAR uni5750
ENCODING 22352
SWIDTH 1500 0
DWIDTH 12 0
BBX 11 7 0 0
BITMAP
2480
2480
5540
8420
3F80
0400
FFE0
ENDCHAR
STARTCHAR uni5751
ENCODING 22353
SWIDTH 1500 0
DWIDTH 12 0
BBX 11 7 0 0
BITMAP
2100
FFE0
2000
2780
3480
C4A0
18E0
ENDCHAR
STARTCHAR uni5764
ENCODING 22372
SWIDTH 1500 0
DWIDTH 12 0
BBX 11 7 0 0
BITMAP
2100
FFE0
2920
2FE0
3920
CFE0
0100
ENDCHAR
STARTCHAR uni5766
ENCODING 22374
SWIDTH 1500 0
DWIDTH 12 0
BBX 11 7 0 0
BITMAP
27C0
F440
27C0
2440
37C0
C000
0FE0
ENDCHAR
STARTCHAR uni576A
ENCODING 22378
SWIDTH 1500 0
DWIDTH 12 0
BBX 11 7 0 0
BITMAP
27E0
F100
2540
2100
37E0
C100
0100
ENDCHAR
STARTCHAR uni5782
ENCODING 22402
SWIDTH 1500 0
DWIDTH 12 0
BBX 11 7 0 0
BITMAP
3F80
0400
FFE0
2480
FFE0
0400
7FC0
ENDCHAR
STARTCHAR uni578B
ENCODING 22411
SWIDTH 1500 0
DWIDTH 12 0
BBX 11 7 0 0
BITMAP
FC20
4920
FD20
4820
9F60
0400
FFE0
ENDCHAR
STARTCHAR uni57A2
ENCODING 22434
SWIDTH 1500 0
DWIDTH 12 0
BBX 11 7 0 0
BITMAP
20C0
F700
2400
27E0
3400
C5C0
09C0
ENDCHAR
STARTCHAR uni57A3
ENCODING 22435
SWIDTH 1500 0
DWIDTH 12 0
BBX 11 7 0 0
BITMAP
2FE0
F7C0
2440
27C0
3440
C7C0
0FE0
ENDCHAR
STARTCHAR uni57CB
ENCODING 22475
SWIDTH 1500 0
DWIDTH 12 0
BBX 11 7 0 0
BITMAP
27C0
F540
27C0
2540
37C0
C100
0FE0
ENDCHAR
STARTCHAR uni57CE
ENCODING 22478
SWIDTH 1500 0
DWIDTH 12 0
BBX 11 7 0 0
BITMAP
2040
F7E0
2440
2740
3560
C640
08A0
ENDCHAR
STARTCHAR uni57DC
ENCODING 22492
SWIDTH 1500 0
DWIDTH 12 0
BBX 11 7 0 0
BITMAP
2080
FBE0
71C0
AAA0
7FC0
0400
FFE0
ENDCHAR
STARTCHAR uni57DF
ENCODING 22495
SWIDTH 1500 0
DWIDTH 12 0
BBX 11 7 0 0
BITMAP
20A0
F7E0
2080
27A0
3540
C740
0CA0
ENDCHAR
STARTCHAR uni57E0
ENCODING 22496
SWIDTH 1500 0
DWIDTH 12 0
BBX 11 7 0 0
BITMAP
2100
F780
2480
27C0
3440
CFE0
0100
ENDCHAR
STARTCHAR uni57F4
ENCODING 22516
SWIDTH 1500 0
DWIDTH 12 0
BBX 11 7 0 0
BITMAP
2100
F7E0
2100
2BC0
3A40
CBC0
0FE0
ENDCHAR
STARTCHAR uni57F7
ENCODING 22519
SWIDTH 1500 0
DWIDTH 12 0
BBX 11 7 0 0
BITMAP
2100
77C0
F940
5340
F9C0
7240
2460
ENDCHAR
STARTCHAR uni57F9
ENCODING 22521
SWIDTH 1500 0
DWIDTH 12 0
BBX 11 7 0 0
BITMAP
2100
F7E0
2240
27E0
3000
C3C0
03C0
ENDCHAR
STARTCHAR uni57FA
ENCODING 22522
SWIDTH 1500 0
DWIDTH 12 0
BBX 11 7 0 0
BITMAP
1100
7FC0
1100
FFE0
2E80
C460
1F00
ENDCHAR
STARTCHAR uni57FC
ENCODING 22524
SWIDTH 1500 0
DWIDTH 12 0
BBX 11 7 0 0
BITMAP
2100
F7C0
2100
2280
3FE0
C540
0740
ENDCHAR
STARTCHAR uni5800
ENCODING 22528
SWIDTH 1500 0
DWIDTH 12 0
BBX 11 7 0 0
BITMAP
27E0
F420
27E0
25C0
3480
CAA0
13E0
ENDCHAR
STARTCHAR uni5802
ENCODING 22530
SWIDTH 1500 0
DWIDTH 12 0
BBX 11 7 0 0
BITMAP
2480
FFE0
9120
1F00
3F80
0400
FFE0
ENDCHAR
STARTCHAR uni5805
ENCODING 22533
SWIDTH 1500 0
DWIDTH 12 0
BBX 11 7 0 0
BITMAP
7BC0
5240
7980
5240
7F80
0400
FFE0
ENDCHAR
STARTCHAR uni5806
ENCODING 22534
SWIDTH 1500 0
DWIDTH 12 0
BBX 11 7 0 0
BITMAP
2500
F7E0
2D00
27C0
3500
C500
07E0
ENDCHAR
STARTCHAR uni5815
ENCODING 22549
SWIDTH 1500 0
DWIDTH 12 0
BBX 11 7 0 0
BITMAP
F100
A7E0
93C0
E480
83E0
0400
FFE0
ENDCHAR
STARTCHAR uni5824
ENCODING 22564
SWIDTH 1500 0
DWIDTH 12 0
BBX 11 7 0 0
BITMAP
27C0
F440
2FE0
2100
35C0
C500
0BE0
ENDCHAR
STARTCHAR uni582A
ENCODING 22570
SWIDTH 1500 0
DWIDTH 12 0
BBX 11 7 0 0
BITMAP
2480
EFC0
2480
2780
3FE0
CA80
0FE0
ENDCHAR
STARTCHAR uni5830
ENCODING 22576
SWIDTH 1500 0
DWIDTH 12 0
BBX 11 7 0 0
BITMAP
2FE0
FA40
2BC0
2E60
3980
CA40
0FE0
ENDCHAR
STARTCHAR uni5831
ENCODING 22577
SWIDTH 1500 0
DWIDTH 12 0
BBX 11 7 0 0
BITMAP
27E0
7420
FFC0
5540
FD40
7480
2560
ENDCHAR
STARTCHAR uni5834
ENCODING 22580
SWIDTH 1500 0
DWIDTH 12 0
BBX 11 7 0 0
BITMAP
27C0
F440
2FE0
2200
37E0
CAA0
0560
ENDCHAR
STARTCHAR uni5835
ENCODING 22581
SWIDTH 1500 0
DWIDTH 12 0
BBX 11 7 0 0
BITMAP
2140
F780
2100
2FE0
3400
CBC0
03C0
ENDCHAR
STARTCHAR uni583A
ENCODING 22586
SWIDTH 1500 0
DWIDTH 12 0
BBX 11 7 0 0
BITMAP
27C0
F540
27C0
2540
37C0
CAA0
0480
ENDCHAR
STARTCHAR uni5840
ENCODING 22592
SWIDTH 1500 0
DWIDTH 12 0
BBX 11 7 0 0
BITMAP
27E0
F420
27E0
2540
37E0
C940
1240
ENDCHAR
STARTCHAR uni5841
ENCODING 22593
SWIDTH 1500 0
DWIDTH 12 0
BBX 11 7 0 0
BITMAP
3F80
2480
3F80
C460
2E80
C460
1F00
ENDCHAR
STARTCHAR uni584A
ENCODING 22602
SWIDTH 1500 0
DWIDTH 12 0
BBX 11 7 0 0
BITMAP
2100
F7C0
2540
27C0
3560
C380
0CE0
ENDCHAR
STARTCHAR uni5851
ENCODING 22609
SWIDTH 1500 0
DWIDTH 12 0
BBX 11 7 0 0
BITMAP
49E0
FD20
55E0
3920
CE60
0400
FFE0
ENDCHAR
STARTCHAR uni5854
ENCODING 22612
SWIDTH 1500 0
DWIDTH 12 0
BBX 11 7 0 0
BITMAP
2280
F7E0
2100
2280
3FE0
C440
07C0
ENDCHAR
STARTCHAR uni5857
ENCODING 22615
SWIDTH 1500 0
DWIDTH 12 0
BBX 11 7 0 0
BITMAP
4380
2440
8BA0
4100
BF80
0400
FFE0
ENDCHAR
STARTCHAR uni5858
ENCODING 22616
SWIDTH 1500 0
DWIDTH 12 0
BBX 11 7 0 0
BITMAP
2080
F7E0
25C0
24E0
37C0
C520
09E0
ENDCHAR
STARTCHAR uni5859
ENCODING 22617
SWIDTH 1500 0
DWIDTH 12 0
BBX 11 7 0 0
BITMAP
2100
F7E0
2280
2380
3FE0
CAA0
0BA0
ENDCHAR
STARTCHAR uni585A
ENCODING 22618
SWIDTH 1500 0
DWIDTH 12 0
BBX 11 7 0 0
BITMAP
27E0
F420
27C0
2300
35A0
C2C0
0DA0
ENDCHAR
STARTCHAR uni585E
ENCODING 22622
SWIDTH 1500 0
DWIDTH 12 0
BBX 11 7 0 0
BITMAP
0400
FFE0
BFA0
1100
FFE0
4440
9F20
ENDCHAR
STARTCHAR uni5869
ENCODING 22633
SWIDTH 1500 0
DWIDTH 12 0
BBX 11 7 0 0
BITMAP
2400
F7E0
2A80
2380
37C0
C540
0FE0
ENDCHAR
STARTCHAR uni586B
ENCODING 22635
SWIDTH 1500 0
DWIDTH 12 0
BBX 11 7 0 0
BITMAP
2100
F7E0
23C0
2240
37E0
C000
0660
ENDCHAR
STARTCHAR uni5875
ENCODING 22645
SWIDTH 1500 0
DWIDTH 12 0
BBX 11 7 0 0
BITMAP
0200
7FC0
4F80
5100
5DC0
4200
BFE0
ENDCHAR
STARTCHAR uni587E
ENCODING 22654
SWIDTH 1500 0
DWIDTH 12 0
BBX 11 7 0 0
BITMAP
2100
FBC0
5140
79C0
A260
0400
FFE0
ENDCHAR
STARTCHAR uni5883
ENCODING 22659
SWIDTH 1500 0
DWIDTH 12 0
BBX 11 7 0 0
BITMAP
2100
F7C0
2280
2FE0
3440
C7C0
1860
ENDCHAR
STARTCHAR uni5893
ENCODING 22675
SWIDTH 1500 0
DWIDTH 12 0
BBX 11 7 0 0
BITMAP
1100
FFE0
1F00
FFE0
2E80
C460
1F00
ENDCHAR
STARTCHAR uni5897
ENCODING 22679
SWIDTH 1500 0
DWIDTH 12 0
BBX 11 7 0 0
BITMAP
2440
FFE0
2920
2FE0
37C0
C440
07C0
ENDCHAR
STARTCHAR uni589C
ENCODING 22684
SWIDTH 1500 0
DWIDTH 12 0
BBX 11 7 0 0
BITMAP
F280
AFE0
9340
ED80
8360
0400
FFE0
ENDCHAR
STARTCHAR uni58A8
ENCODING 22696
SWIDTH 1500 0
DWIDTH 12 0
BBX 11 7 0 0
BITMAP
3F80
2480
3F80
FFE0
5140
0400
FFE0
ENDCHAR
STARTCHAR uni58B3
ENCODING 22707
SWIDTH 1500 0
DWIDTH 12 0
BBX 11 7 0 0
BITMAP
2100
FFE0
2540
2FE0
3440
C7C0
0C60
ENDCHAR
STARTCHAR uni58BE
ENCODING 22718
SWIDTH 1500 0
DWIDTH 12 0
BBX 11 7 0 0
BITMAP
3BE0
D220
7BE0
AA80
5B60
0400
FFE0
ENDCHAR
STARTCHAR uni58C1
ENCODING 22721
SWIDTH 1500 0
DWIDTH 12 0
BBX 11 7 0 0
BITMAP
7880
4BE0
7140
CBE0
7880
0400
FFE0
ENDCHAR
STARTCHAR uni58C7
ENCODING 22727
SWIDTH 1500 0
DWIDTH 12 0
BBX 11 7 0 0
BITMAP
2100
FFE0
26C0
27C0
3380
C280
0FE0
ENDCHAR
STARTCHAR uni58CA
ENCODING 22730
SWIDTH 1500 0
DWIDTH 12 0
BBX 11 7 0 0
BITMAP
2100
FFE0
2540
27C0
2FE0
F680
0B60
ENDCHAR
STARTCHAR uni58CC
ENCODING 22732
SWIDTH 1500 0
DWIDTH 12 0
BBX 11 7 0 0
BITMAP
2100
EFE0
26C0
2BA0
37C0
CC80
0660
ENDCHAR
STARTCHAR uni58D5
ENCODING 22741
SWIDTH 1500 0
DWIDTH 12 0
BBX 11 7 0 0
BITMAP
2100
F7E0
2280
2FE0
29A0
F2C0
0DA0
ENDCHAR
STARTCHAR uni58EB
ENCODING 22763
SWIDTH 1500 0
DWIDTH 12 0
BBX 11 7 0 0
BITMAP
0400
0400
FFE0
0400
0400
0400
3F80
ENDCHAR
STARTCHAR uni58EC
ENCODING 22764
SWIDTH 1500 0
DWIDTH 12 0
BBX 11 7 0 0
BITMAP
0380
3C00
0400
FFE0
0400
0400
3F80
ENDCHAR
STARTCHAR uni58EE
ENCODING 22766
SWIDTH 1500 0
DWIDTH 12 0
BBX 11 7 0 0
BITMAP
2100
A100
6FE0
2100
6100
A100
27C0
ENDCHAR
STARTCHAR uni58F0
ENCODING 22768
SWIDTH 1500 0
DWIDTH 12 0
BBX 11 7 0 0
BITMAP
0400
FFE0
0400
7FC0
2480
3F80
C000
ENDCHAR
STARTCHAR uni58F1
ENCODING 22769
SWIDTH 1500 0
DWIDTH 12 0
BBX 11 7 0 0
BITMAP
0400
FFE0
0400
FFE0
BE20
2080
1F80
ENDCHAR
STARTCHAR uni58F2
ENCODING 22770
SWIDTH 1500 0
DWIDTH 12 0
BBX 11 7 0 0
BITMAP
0400
FFE0
0400
7FC0
4040
1100
E1E0
ENDCHAR
STARTCHAR uni58F7
ENCODING 22775
SWIDTH 1500 0
DWIDTH 12 0
BBX 11 7 0 0
BITMAP
0400
7FC0
0400
FFE0
AAA0
1F00
FFE0
ENDCHAR
STARTCHAR uni5909
ENCODING 22793
SWIDTH 1500 0
DWIDTH 12 0
BBX 11 7 0 0
BITMAP
0400
FFE0
2A80
4F40
3900
0E00
F1E0
ENDCHAR
STARTCHAR uni590F
ENCODING 22799
SWIDTH 1500 0
DWIDTH 12 0
BBX 11 7 0 0
BITMAP
FFE0
3F80
2080
1F80
7100
0E00
F1E0
ENDCHAR
STARTCHAR uni5915
ENCODING 22805
SWIDTH 1500 0
DWIDTH 12 0
BBX 11 7 0 0
BITMAP
0800
0FE0
3020
CE40
0180
0600
7800
ENDCHAR
STARTCHAR uni5916
ENCODING 22806
SWIDTH 1500 0
DWIDTH 12 0
BBX 11 7 0 0
BITMAP
2100
3D00
4580
B540
0920
1100
E100
ENDCHAR
STARTCHAR uni5919
ENCODING 22809
SWIDTH 1500 0
DWIDTH 12 0
BBX 11 7 0 0
BITMAP
7FC0
5F40
4840
4F40
5940
4640
9860
ENDCHAR
STARTCHAR uni591A
ENCODING 22810
SWIDTH 1500 0
DWIDTH 12 0
BBX 11 7 0 0
BITMAP
0F00
7100
0E00
F1E0
0E20
01C0
3E00
ENDCHAR
STARTCHAR uni591C
ENCODING 22812
SWIDTH 1500 0
DWIDTH 12 0
BBX 11 7 0 0
BITMAP
0400
FFE0
1200
23C0
ED40
2380
2C60
ENDCHAR
STARTCHAR uni5922
ENCODING 22818
SWIDTH 1500 0
DWIDTH 12 0
BBX 11 7 0 0
BITMAP
1100
FFE0
2A80
FFE0
9920
0600
3800
ENDCHAR
STARTCHAR uni5927
ENCODING 22823
SWIDTH 1500 0
DWIDTH 12 0
BBX 11 7 0 0
BITMAP
0400
0400
FFE0
0400
0A00
3180
C060
ENDCHAR
STARTCHAR uni5929
ENCODING 22825
SWIDTH 1500 0
DWIDTH 12 0
BBX 11 7 0 0
BITMAP
FFE0
0400
3F80
0400
0A00
3180
C060
ENDCHAR
STARTCHAR uni592A
ENCODING 22826
SWIDTH 1500 0
DWIDTH 12 0
BBX 11 7 0 0
BITMAP
0400
FFE0
0400
0A00
1100
2480
C260
ENDCHAR
STARTCHAR uni592B
ENCODING 22827
SWIDTH 1500 0
DWIDTH 12 0
BBX 11 7 0 0
BITMAP
0400
3F80
0400
FFE0
0A00
3180
C060
ENDCHAR
STARTCHAR uni592E
ENCODING 22830
SWIDTH 1500 0
DWIDTH 12 0
BBX 11 7 0 0
BITMAP
0400
3F80
2480
FFE0
0400
1B00
E0E0
ENDCHAR
STARTCHAR uni5931
ENCODING 22833
SWIDTH 1500 0
DWIDTH 12 0
BBX 11 7 0 0
BITMAP
2400
3F80
4400
FFE0
0A00
1100
E0E0
ENDCHAR
STARTCHAR uni5937
ENCODING 22839
SWIDTH 1500 0
DWIDTH 12 0
BBX 11 7 0 0
BITMAP
0400
FFE0
3F80
2400
3FC0
0A40
F1E0
ENDCHAR
STARTCHAR uni5944
ENCODING 22852
SWIDTH 1500 0
DWIDTH 12 0
BBX 11 7 0 0
BITMAP
0400
FFE0
1500
3F80
D560
1F00
03E0
ENDCHAR
STARTCHAR uni5947
ENCODING 22855
SWIDTH 1500 0
DWIDTH 12 0
BBX 11 7 0 0
BITMAP
0400
7FC0
0A00
1100
FFE0
2480
3D80
ENDCHAR
STARTCHAR uni5948
ENCODING 22856
SWIDTH 1500 0
DWIDTH 12 0
BBX 11 7 0 0
BITMAP
0400
FFE0
1100
2080
DF60
2480
CC60
ENDCHAR
STARTCHAR uni5949
ENCODING 22857
SWIDTH 1500 0
DWIDTH 12 0
BBX 11 7 0 0
BITMAP
0400
7FC0
1F00
FFE0
2480
DF60
0400
ENDCHAR
STARTCHAR uni594F
ENCODING 22863
SWIDTH 1500 0
DWIDTH 12 0
BBX 11 7 0 0
BITMAP
0400
7FC0
1F00
FFE0
2E80
C460
1B00
ENDCHAR
STARTCHAR uni5951
ENCODING 22865
SWIDTH 1500 0
DWIDTH 12 0
BBX 11 7 0 0
BITMAP
13E0
FD20
1120
FA60
3F80
0A00
F1E0
ENDCHAR
STARTCHAR uni5954
ENCODING 22868
SWIDTH 1500 0
DWIDTH 12 0
BBX 11 7 0 0
BITMAP
0400
FFE0
4440
8E20
2480
FFE0
4080
ENDCHAR
STARTCHAR uni5957
ENCODING 22871
SWIDTH 1500 0
DWIDTH 12 0
BBX 11 7 0 0
BITMAP
0400
FFE0
2E80
4840
FFE0
1080
7F40
ENDCHAR
STARTCHAR uni5965
ENCODING 22885
SWIDTH 1500 0
DWIDTH 12 0
BBX 11 7 0 0
BITMAP
0400
7FC0
4E40
5540
FFE0
0A00
F1E0
ENDCHAR
STARTCHAR uni5968
ENCODING 22888
SWIDTH 1500 0
DWIDTH 12 0
BBX 11 7 0 0
BITMAP
2FE0
A540
6FE0
A080
7FC0
0A00
F1E0
ENDCHAR
STARTCHAR uni596A
ENCODING 22890
SWIDTH 1500 0
DWIDTH 12 0
BBX 11 7 0 0
BITMAP
0400
FFE0
3480
5E40
FFE0
1100
0700
ENDCHAR
STARTCHAR uni596E
ENCODING 22894
SWIDTH 1500 0
DWIDTH 12 0
BBX 11 7 0 0
BITMAP
0400
FFE0
2C80
CE60
3F80
2480
3F80
ENDCHAR
STARTCHAR uni5973
ENCODING 22899
SWIDTH 1500 0
DWIDTH 12 0
BBX 11 7 0 0
BITMAP
0400
0400
FFE0
1080
3100
0F00
F0E0
ENDCHAR
STARTCHAR uni5974
ENCODING 22900
SWIDTH 1500 0
DWIDTH 12 0
BBX 11 7 0 0
BITMAP
13E0
1020
FA40
4940
7080
1940
E620
ENDCHAR
STARTCHAR uni597D
ENCODING 22909
SWIDTH 1500 0
DWIDTH 12 0
BBX 11 7 0 0
BITMAP
13C0
1040
F880
4FE0
7080
1880
E180
ENDCHAR
STARTCHAR uni5982
ENCODING 22914
SWIDTH 1500 0
DWIDTH 12 0
BBX 11 7 0 0
BITMAP
1000
13E0
FA20
4A20
7220
1A20
E3E0
ENDCHAR
STARTCHAR uni5983
ENCODING 22915
SWIDTH 1500 0
DWIDTH 12 0
BBX 11 7 0 0
BITMAP
13E0
1020
F820
4BE0
7200
1A20
E3E0
ENDCHAR
STARTCHAR uni5984
ENCODING 22916
SWIDTH 1500 0
DWIDTH 12 0
BBX 11 7 0 0
BITMAP
0400
FFE0
2000
3F80
FFE0
1100
7EC0
ENDCHAR
STARTCHAR uni598A
ENCODING 22922
SWIDTH 1500 0
DWIDTH 12 0
BBX 11 7 0 0
BITMAP
1040
1380
F880
4FE0
7080
1880
E3C0
ENDCHAR
STARTCHAR uni5993
ENCODING 22931
SWIDTH 1500 0
DWIDTH 12 0
BBX 11 7 0 0
BITMAP
1080
17E0
F880
4BC0
7240
1980
E660
ENDCHAR
STARTCHAR uni5996
ENCODING 22934
SWIDTH 1500 0
DWIDTH 12 0
BBX 11 7 0 0
BITMAP
10C0
1700
F900
4FE0
7100
1280
EC60
ENDCHAR
STARTCHAR uni5999
ENCODING 22937
SWIDTH 1500 0
DWIDTH 12 0
BBX 11 7 0 0
BITMAP
1080
12C0
FAA0
4D80
7040
1880
E300
ENDCHAR
STARTCHAR uni59A5
ENCODING 22949
SWIDTH 1500 0
DWIDTH 12 0
BBX 11 7 0 0
BITMAP
7F00
2440
1280
FFE0
1100
0F00
F0E0
ENDCHAR
STARTCHAR uni59A8
ENCODING 22952
SWIDTH 1500 0
DWIDTH 12 0
BBX 11 7 0 0
BITMAP
1080
17E0
F900
49E0
7120
1A20
E460
ENDCHAR
STARTCHAR uni59AC
ENCODING 22956
SWIDTH 1500 0
DWIDTH 12 0
BBX 11 7 0 0
BITMAP
17E0
1100
F900
4BE0
7620
1A20
E3E0
ENDCHAR
STARTCHAR uni59B9
ENCODING 22969
SWIDTH 1500 0
DWIDTH 12 0
BBX 11 7 0 0
BITMAP
1100
17C0
F900
4FE0
7100
1380
ED60
ENDCHAR
STARTCHAR uni59BB
ENCODING 22971
SWIDTH 1500 0
DWIDTH 12 0
BBX 11 7 0 0
BITMAP
0400
7FC0
0480
3F80
FFE0
0A00
7DC0
ENDCHAR
STARTCHAR uni59BE
ENCODING 22974
SWIDTH 1500 0
DWIDTH 12 0
BBX 11 7 0 0
BITMAP
0400
7FC0
1100
FFE0
3F80
0A00
FDE0
ENDCHAR
STARTCHAR uni59C9
ENCODING 22985
SWIDTH 1500 0
DWIDTH 12 0
BBX 11 7 0 0
BITMAP
1080
17E0
F880
4BE0
72A0
1AA0
E080
ENDCHAR
STARTCHAR uni59CB
ENCODING 22987
SWIDTH 1500 0
DWIDTH 12 0
BBX 11 7 0 0
BITMAP
1100
1240
FFA0
4800
73C0
1A40
E3C0
ENDCHAR
STARTCHAR uni59D0
ENCODING 22992
SWIDTH 1500 0
DWIDTH 12 0
BBX 11 7 0 0
BITMAP
13C0
1240
FBC0
4A40
73C0
1A40
E7E0
ENDCHAR
STARTCHAR uni59D1
ENCODING 22993
SWIDTH 1500 0
DWIDTH 12 0
BBX 11 7 0 0
BITMAP
1080
1080
FFE0
4880
73E0
1A20
E3E0
ENDCHAR
STARTCHAR uni59D3
ENCODING 22995
SWIDTH 1500 0
DWIDTH 12 0
BBX 11 7 0 0
BITMAP
1280
13E0
FC80
4880
73C0
1880
E7E0
ENDCHAR
STARTCHAR uni59D4
ENCODING 22996
SWIDTH 1500 0
DWIDTH 12 0
BBX 11 7 0 0
BITMAP
1F00
7FC0
1500
E4E0
3F80
0A00
7DC0
ENDCHAR
STARTCHAR uni59E5
ENCODING 23013
SWIDTH 1500 0
DWIDTH 12 0
BBX 11 7 0 0
BITMAP
1140
1380
F900
4FE0
7580
1920
E1E0
ENDCHAR
STARTCHAR uni59E6
ENCODING 23014
SWIDTH 1500 0
DWIDTH 12 0
BBX 11 7 0 0
BITMAP
0400
7FC0
0A00
3D80
FBE0
5140
EBA0
ENDCHAR
STARTCHAR uni59EA
ENCODING 23018
SWIDTH 1500 0
DWIDTH 12 0
BBX 11 7 0 0
BITMAP
17E0
1240
FFA0
4880
73C0
1880
E7E0
ENDCHAR
STARTCHAR uni59EB
ENCODING 23019
SWIDTH 1500 0
DWIDTH 12 0
BBX 11 7 0 0
BITMAP
13E0
1280
FBC0
4A40
73C0
1A80
E3E0
ENDCHAR
STARTCHAR uni59F6
ENCODING 23030
SWIDTH 1500 0
DWIDTH 12 0
BBX 11 7 0 0
BITMAP
1180
1240
FDA0
4800
73C0
1A40
E3C0
ENDCHAR
STARTCHAR uni59FB
ENCODING 23035
SWIDTH 1500 0
DWIDTH 12 0
BBX 11 7 0 0
BITMAP
2FE0
2920
FBA0
5920
6920
3AA0
CFE0
ENDCHAR
STARTCHAR uni59FF
ENCODING 23039
SWIDTH 1500 0
DWIDTH 12 0
BBX 11 7 0 0
BITMAP
4400
27E0
0920
C280
3FE0
0A00
FDE0
ENDCHAR
STARTCHAR uni5A01
ENCODING 23041
SWIDTH 1500 0
DWIDTH 12 0
BBX 11 7 0 0
BITMAP
0140
7FE0
5D00
4940
5480
4980
B660
ENDCHAR
STARTCHAR uni5A03
ENCODING 23043
SWIDTH 1500 0
DWIDTH 12 0
BBX 11 7 0 0
BITMAP
1080
13C0
F880
4FE0
73C0
1880
E7E0
ENDCHAR
STARTCHAR uni5A18
ENCODING 23064
SWIDTH 1500 0
DWIDTH 12 0
BBX 11 7 0 0
BITMAP
1080
13C0
FA40
4BC0
72A0
1A40
E720
ENDCHAR
STARTCHAR uni5A20
ENCODING 23072
SWIDTH 1500 0
DWIDTH 12 0
BBX 11 7 0 0
BITMAP
27E0
2400
F5C0
5400
67E0
3540
CBA0
ENDCHAR
STARTCHAR uni5A29
ENCODING 23081
SWIDTH 1500 0
DWIDTH 12 0
BBX 11 7 0 0
BITMAP
11C0
1640
FBE0
4AA0
73E0
1940
E660
ENDCHAR
STARTCHAR uni5A2F
ENCODING 23087
SWIDTH 1500 0
DWIDTH 12 0
BBX 11 7 0 0
BITMAP
10E0
12A0
FBE0
4840
77E0
1800
E660
ENDCHAR
STARTCHAR uni5A3C
ENCODING 23100
SWIDTH 1500 0
DWIDTH 12 0
BBX 11 7 0 0
BITMAP
23C0
2240
F7E0
5420
67E0
3420
C7E0
ENDCHAR
STARTCHAR uni5A41
ENCODING 23105
SWIDTH 1500 0
DWIDTH 12 0
BBX 11 7 0 0
BITMAP
0400
3F80
FFE0
2480
FFE0
1100
7EC0
ENDCHAR
STARTCHAR uni5A46
ENCODING 23110
SWIDTH 1500 0
DWIDTH 12 0
BBX 11 7 0 0
BITMAP
4100
2FE0
8920
5280
BFE0
0900
7EE0
ENDCHAR
STARTCHAR uni5A5A
ENCODING 23130
SWIDTH 1500 0
DWIDTH 12 0
BBX 11 7 0 0
BITMAP
13C0
1280
FBE0
4A40
7720
1BC0
E3C0
ENDCHAR
STARTCHAR uni5A66
ENCODING 23142
SWIDTH 1500 0
DWIDTH 12 0
BBX 11 7 0 0
BITMAP
27C0
2040
FFE0
5120
67C0
3540
C100
ENDCHAR
STARTCHAR uni5A7F
ENCODING 23167
SWIDTH 1500 0
DWIDTH 12 0
BBX 11 7 0 0
BITMAP
17E0
11A0
FB00
4DE0
7240
1BC0
E240
ENDCHAR
STARTCHAR uni5A92
ENCODING 23186
SWIDTH 1500 0
DWIDTH 12 0
BBX 11 7 0 0
BITMAP
2440
2FE0
F440
57C0
6FE0
3380
CD60
ENDCHAR
STARTCHAR uni5A9B
ENCODING 23195
SWIDTH 1500 0
DWIDTH 12 0
BBX 11 7 0 0
BITMAP
2FE0
2540
FFE0
53C0
6640
3980
C660
ENDCHAR
STARTCHAR uni5AC1
ENCODING 23233
SWIDTH 1500 0
DWIDTH 12 0
BBX 11 7 0 0
BITMAP
2100
2FE0
FBA0
5300
65A0
32C0
C5A0
ENDCHAR
STARTCHAR uni5AC9
ENCODING 23241
SWIDTH 1500 0
DWIDTH 12 0
BBX 11 7 0 0
BITMAP
2040
23E0
F600
5280
66E0
3240
C4A0
ENDCHAR
STARTCHAR uni5ACC
ENCODING 23244
SWIDTH 1500 0
DWIDTH 12 0
BBX 11 7 0 0
BITMAP
2440
2FE0
F2A0
57E0
62A0
37C0
CAA0
ENDCHAR
STARTCHAR uni5AE1
ENCODING 23265
SWIDTH 1500 0
DWIDTH 12 0
BBX 11 7 0 0
BITMAP
2100
2FE0
F280
5FE0
6920
3AA0
CBA0
ENDCHAR
STARTCHAR uni5B09
ENCODING 23305
SWIDTH 1500 0
DWIDTH 12 0
BBX 11 7 0 0
BITMAP
2100
2FE0
F7C0
5280
6FE0
3440
C7C0
ENDCHAR
STARTCHAR uni5B22
ENCODING 23330
SWIDTH 1500 0
DWIDTH 12 0
BBX 11 7 0 0
BITMAP
2100
2FE0
F6C0
5BA0
67C0
2C80
D660
ENDCHAR
STARTCHAR uni5B2C
ENCODING 23340
SWIDTH 1500 0
DWIDTH 12 0
BBX 11 7 0 0
BITMAP
2380
2FE0
FAA0
57C0
6100
2FE0
DAA0
ENDCHAR
STARTCHAR uni5B30
ENCODING 23344
SWIDTH 1500 0
DWIDTH 12 0
BBX 11 7 0 0
BITMAP
7BC0
4A40
7BC0
8420
3F80
0A00
7DC0
ENDCHAR
STARTCHAR uni5B50
ENCODING 23376
SWIDTH 1500 0
DWIDTH 12 0
BBX 11 7 0 0
BITMAP
3F80
0100
0200
FFE0
0400
0400
1C00
ENDCHAR
STARTCHAR uni5B54
ENCODING 23380
SWIDTH 1500 0
DWIDTH 12 0
BBX 11 7 0 0
BITMAP
7900
0900
1100
1D00
F100
1120
31E0
ENDCHAR
STARTCHAR uni5B57
ENCODING 23383
SWIDTH 1500 0
DWIDTH 12 0
BBX 11 7 0 0
BITMAP
0400
FFE0
9F20
0200
FFE0
0400
1C00
ENDCHAR
STARTCHAR uni5B58
ENCODING 23384
SWIDTH 1500 0
DWIDTH 12 0
BBX 11 7 0 0
BITMAP
0800
FFE0
17C0
2080
EFE0
2100
2300
ENDCHAR
STARTCHAR uni5B5C
ENCODING 23388
SWIDTH 1500 0
DWIDTH 12 0
BBX 11 7 0 0
BITMAP
F400
17E0
2C40
3280
E100
2280
6C60
ENDCHAR
STARTCHAR uni5B5D
ENCODING 23389
SWIDTH 1500 0
DWIDTH 12 0
BBX 11 7 0 0
BITMAP
0480
3F00
0400
FFE0
2080
CFC0
0200
ENDCHAR
STARTCHAR uni5B5F
ENCODING 23391
SWIDTH 1500 0
DWIDTH 12 0
BBX 11 7 0 0
BITMAP
3F80
0100
FFE0
0400
3F80
2A80
FFE0
ENDCHAR
STARTCHAR uni5B63
ENCODING 23395
SWIDTH 1500 0
DWIDTH 12 0
BBX 11 7 0 0
BITMAP
1F00
FFE0
2480
CF60
0200
FFE0
0C00
ENDCHAR
STARTCHAR uni5B64
ENCODING 23396
SWIDTH 1500 0
DWIDTH 12 0
BBX 11 7 0 0
BITMAP
F0C0
1700
2540
3540
E540
2540
6BA0
ENDCHAR
STARTCHAR uni5B66
ENCODING 23398
SWIDTH 1500 0
DWIDTH 12 0
BBX 11 7 0 0
BITMAP
2880
FFE0
9F20
0200
FFE0
0400
1C00
ENDCHAR
STARTCHAR uni5B6B
ENCODING 23403
SWIDTH 1500 0
DWIDTH 12 0
BBX 11 7 0 0
BITMAP
F7C0
1100
2600
3140
EFE0
2540
6920
ENDCHAR
STARTCHAR uni5B85
ENCODING 23429
SWIDTH 1500 0
DWIDTH 12 0
BBX 11 7 0 0
BITMAP
0400
FFE0
8720
3800
0F80
F820
0FE0
ENDCHAR
STARTCHAR uni5B87
ENCODING 23431
SWIDTH 1500 0
DWIDTH 12 0
BBX 11 7 0 0
BITMAP
0400
FFE0
9F20
0400
FFE0
0400
1C00
ENDCHAR
STARTCHAR uni5B88
ENCODING 23432
SWIDTH 1500 0
DWIDTH 12 0
BBX 11 7 0 0
BITMAP
0400
FFE0
8020
0100
FFE0
1100
0300
ENDCHAR
STARTCHAR uni5B89
ENCODING 23433
SWIDTH 1500 0
DWIDTH 12 0
BBX 11 7 0 0
BITMAP
0400
FFE0
8820
3F80
1100
0F00
F0E0
ENDCHAR
STARTCHAR uni5B8B
ENCODING 23435
SWIDTH 1500 0
DWIDTH 12 0
BBX 11 7 0 0
BITMAP
0400
FFE0
8420
3F80
1500
2480
C460
ENDCHAR
STARTCHAR uni5B8C
ENCODING 23436
SWIDTH 1500 0
DWIDTH 12 0
BBX 11 7 0 0
BITMAP
0400
FFE0
9F20
0000
FFE0
1100
E1E0
ENDCHAR
STARTCHAR uni5B8D
ENCODING 23437
SWIDTH 1500 0
DWIDTH 12 0
BBX 11 7 0 0
BITMAP
0400
FFE0
8020
0400
FFE0
2080
C060
ENDCHAR
STARTCHAR uni5B8F
ENCODING 23439
SWIDTH 1500 0
DWIDTH 12 0
BBX 11 7 0 0
BITMAP
0400
FFE0
8820
3F80
1200
2440
CFA0
ENDCHAR
STARTCHAR uni5B95
ENCODING 23445
SWIDTH 1500 0
DWIDTH 12 0
BBX 11 7 0 0
BITMAP
0400
FFE0
BFA0
1000
3F80
D080
1F80
ENDCHAR
STARTCHAR uni5B97
ENCODING 23447
SWIDTH 1500 0
DWIDTH 12 0
BBX 11 7 0 0
BITMAP
0400
FFE0
9F20
0000
FFE0
2480
CC60
ENDCHAR
STARTCHAR uni5B98
ENCODING 23448
SWIDTH 1500 0
DWIDTH 12 0
BBX 11 7 0 0
BITMAP
0400
FFE0
9F20
1100
1FC0
1040
1FC0
ENDCHAR
STARTCHAR uni5B99
ENCODING 23449
SWIDTH 1500 0
DWIDTH 12 0
BBX 11 7 0 0
BITMAP
0400
FFE0
8420
3F80
3F80
2480
3F80
ENDCHAR
STARTCHAR uni5B9A
ENCODING 23450
SWIDTH 1500 0
DWIDTH 12 0
BBX 11 7 0 0
BITMAP
0400
FFE0
9F20
0400
2780
2400
DFE0
ENDCHAR
STARTCHAR uni5B9B
ENCODING 23451
SWIDTH 1500 0
DWIDTH 12 0
BBX 11 7 0 0
BITMAP
0400
FFE0
8020
3BC0
CA40
3220
C3E0
ENDCHAR
STARTCHAR uni5B9C
ENCODING 23452
SWIDTH 1500 0
DWIDTH 12 0
BBX 11 7 0 0
BITMAP
0400
FFE0
BFA0
2080
3F80
2080
FFE0
ENDCHAR
STARTCHAR uni5B9D
ENCODING 23453
SWIDTH 1500 0
DWIDTH 12 0
BBX 11 7 0 0
BITMAP
0400
FFE0
9F20
0400
1F00
0440
FFE0
ENDCHAR
STARTCHAR uni5B9F
ENCODING 23455
SWIDTH 1500 0
DWIDTH 12 0
BBX 11 7 0 0
BITMAP
0400
FFE0
9F20
0400
7FC0
0A00
F1E0
ENDCHAR
STARTCHAR uni5BA2
ENCODING 23458
SWIDTH 1500 0
DWIDTH 12 0
BBX 11 7 0 0
BITMAP
0400
FFE0
B120
0E00
3F80
D160
1F00
ENDCHAR
STARTCHAR uni5BA3
ENCODING 23459
SWIDTH 1500 0
DWIDTH 12 0
BBX 11 7 0 0
BITMAP
0400
FFE0
9F20
0000
3F80
2080
FFE0
ENDCHAR
STARTCHAR uni5BA4
ENCODING 23460
SWIDTH 1500 0
DWIDTH 12 0
BBX 11 7 0 0
BITMAP
0400
FFE0
BFA0
0900
3E80
0400
FFE0
ENDCHAR
STARTCHAR uni5BA5
ENCODING 23461
SWIDTH 1500 0
DWIDTH 12 0
BBX 11 7 0 0
BITMAP
0400
FFE0
9020
7FC0
2880
CF80
0880
ENDCHAR
STARTCHAR uni5BAE
ENCODING 23470
SWIDTH 1500 0
DWIDTH 12 0
BBX 11 7 0 0
BITMAP
0400
FFE0
9120
1F00
0400
3F80
3F80
ENDCHAR
STARTCHAR uni5BB0
ENCODING 23472
SWIDTH 1500 0
DWIDTH 12 0
BBX 11 7 0 0
BITMAP
0400
FFE0
8420
3F80
1100
FFE0
0400
ENDCHAR
STARTCHAR uni5BB3
ENCODING 23475
SWIDTH 1500 0
DWIDTH 12 0
BBX 11 7 0 0
BITMAP
0400
FFE0
9F20
0400
FFE0
2080
3F80
ENDCHAR
STARTCHAR uni5BB4
ENCODING 23476
SWIDTH 1500 0
DWIDTH 12 0
BBX 11 7 0 0
BITMAP
0400
FFE0
9120
1F00
FFE0
0A00
7DC0
ENDCHAR
STARTCHAR uni5BB5
ENCODING 23477
SWIDTH 1500 0
DWIDTH 12 0
BBX 11 7 0 0
BITMAP
0400
FFE0
9520
3F80
2080
3F80
2080
ENDCHAR
STARTCHAR uni5BB6
ENCODING 23478
SWIDTH 1500 0
DWIDTH 12 0
BBX 11 7 0 0
BITMAP
0400
FFE0
BF20
1600
6B40
1280
EC60
ENDCHAR
STARTCHAR uni5BB9
ENCODING 23481
SWIDTH 1500 0
DWIDTH 12 0
BBX 11 7 0 0
BITMAP
0400
FFE0
9120
2480
0E00
F1E0
1F00
ENDCHAR
STARTCHAR uni5BBF
ENCODING 23487
SWIDTH 1500 0
DWIDTH 12 0
BBX 11 7 0 0
BITMAP
0400
FFE0
93A0
2100
E7C0
2440
27C0
ENDCHAR
STARTCHAR uni5BC2
ENCODING 23490
SWIDTH 1500 0
DWIDTH 12 0
BBX 11 7 0 0
BITMAP
0400
FFE0
9820
11C0
FD40
5080
B560
ENDCHAR
STARTCHAR uni5BC4
ENCODING 23492
SWIDTH 1500 0
DWIDTH 12 0
BBX 11 7 0 0
BITMAP
0400
FFE0
8A20
1100
FFE0
2480
3D80
ENDCHAR
STARTCHAR uni5BC5
ENCODING 23493
SWIDTH 1500 0
DWIDTH 12 0
BBX 11 7 0 0
BITMAP
0400
FFE0
9F20
3F80
2480
3F80
C060
ENDCHAR
STARTCHAR uni5BC6
ENCODING 23494
SWIDTH 1500 0
DWIDTH 12 0
BBX 11 7 0 0
BITMAP
0400
FFE0
AAA0
4940
1700
4440
7FC0
ENDCHAR
STARTCHAR uni5BCC
ENCODING 23500
SWIDTH 1500 0
DWIDTH 12 0
BBX 11 7 0 0
BITMAP
0400
FFE0
A0A0
3F80
7FC0
4440
7FC0
ENDCHAR
STARTCHAR uni5BD2
ENCODING 23506
SWIDTH 1500 0
DWIDTH 12 0
BBX 11 7 0 0
BITMAP
0400
FFE0
9120
7FC0
2280
CC60
0300
ENDCHAR
STARTCHAR uni5BD3
ENCODING 23507
SWIDTH 1500 0
DWIDTH 12 0
BBX 11 7 0 0
BITMAP
0400
FFE0
9F20
1500
7FC0
4540
4EC0
ENDCHAR
STARTCHAR uni5BDB
ENCODING 23515
SWIDTH 1500 0
DWIDTH 12 0
BBX 11 7 0 0
BITMAP
0400
FFE0
9120
3F80
1100
1F20
E1E0
ENDCHAR
STARTCHAR uni5BDD
ENCODING 23517
SWIDTH 1500 0
DWIDTH 12 0
BBX 11 7 0 0
BITMAP
0400
FFE0
A0A0
6FC0
2A40
6180
AE60
ENDCHAR
STARTCHAR uni5BDF
ENCODING 23519
SWIDTH 1500 0
DWIDTH 12 0
BBX 11 7 0 0
BITMAP
0400
FFE0
BBA0
2880
DF60
2480
CC60
ENDCHAR
STARTCHAR uni5BE1
ENCODING 23521
SWIDTH 1500 0
DWIDTH 12 0
BBX 11 7 0 0
BITMAP
0400
FFE0
9F20
1100
FFE0
4940
9320
ENDCHAR
STARTCHAR uni5BE7
ENCODING 23527
SWIDTH 1500 0
DWIDTH 12 0
BBX 11 7 0 0
BITMAP
0400
FFE0
92A0
2F00
FFE0
0400
1C00
ENDCHAR
STARTCHAR uni5BE9
ENCODING 23529
SWIDTH 1500 0
DWIDTH 12 0
BBX 11 7 0 0
BITMAP
0400
FFE0
AEA0
1500
FFE0
5540
9F20
ENDCHAR
STARTCHAR uni5BEE
ENCODING 23534
SWIDTH 1500 0
DWIDTH 12 0
BBX 11 7 0 0
BITMAP
0400
FFE0
AAA0
1F00
F1E0
1F00
C460
ENDCHAR
STARTCHAR uni5BF5
ENCODING 23541
SWIDTH 1500 0
DWIDTH 12 0
BBX 11 7 0 0
BITMAP
0400
FFE0
9120
FDC0
48C0
7900
49E0
ENDCHAR
STARTCHAR uni5BF8
ENCODING 23544
SWIDTH 1500 0
DWIDTH 12 0
BBX 11 7 0 0
BITMAP
0100
FFE0
0100
3100
0900
0100
0700
ENDCHAR
STARTCHAR uni5BFA
ENCODING 23546
SWIDTH 1500 0
DWIDTH 12 0
BBX 11 7 0 0
BITMAP
0400
3F80
0400
FFE0
0100
3100
0700
ENDCHAR
STARTCHAR uni5BFE
ENCODING 23550
SWIDTH 1500 0
DWIDTH 12 0
BBX 11 7 0 0
BITMAP
1040
FFE0
0840
6A40
1140
2840
C0C0
ENDCHAR
STARTCHAR uni5BFF
ENCODING 23551
SWIDTH 1500 0
DWIDTH 12 0
BBX 11 7 0 0
BITMAP
0400
3F80
7FC0
1080
FFE0
2480
C180
ENDCHAR
STARTCHAR uni5C01
ENCODING 23553
SWIDTH 1500 0
DWIDTH 12 0
BBX 11 7 0 0
BITMAP
2040
77E0
2040
FA40
6140
3840
E0C0
ENDCHAR
STARTCHAR uni5C02
ENCODING 23554
SWIDTH 1500 0
DWIDTH 12 0
BBX 11 7 0 0
BITMAP
0400
FFE0
2480
3F80
FFE0
1100
0700
ENDCHAR
STARTCHAR uni5C04
ENCODING 23556
SWIDTH 1500 0
DWIDTH 12 0
BBX 11 7 0 0
BITMAP
1040
7BE0
4840
FD40
28C0
C840
18C0
ENDCHAR
STARTCHAR uni5C06
ENCODING 23558
SWIDTH 1500 0
DWIDTH 12 0
BBX 11 7 0 0
BITMAP
2780
AA20
6540
2080
6FE0
A480
2180
ENDCHAR
STARTCHAR uni5C09
ENCODING 23561
SWIDTH 1500 0
DWIDTH 12 0
BBX 11 7 0 0
BITMAP
7C40
47E0
7C40
4240
7D40
5040
B5C0
ENDCHAR
STARTCHAR uni5C0A
ENCODING 23562
SWIDTH 1500 0
DWIDTH 12 0
BBX 11 7 0 0
BITMAP
2080
FFE0
2A80
3380
FFE0
1100
0700
ENDCHAR
STARTCHAR uni5C0B
ENCODING 23563
SWIDTH 1500 0
DWIDTH 12 0
BBX 11 7 0 0
BITMAP
3F80
0080
7BC0
2240
FFE0
1100
0700
ENDCHAR
STARTCHAR uni5C0E
ENCODING 23566
SWIDTH 1500 0
DWIDTH 12 0
BBX 11 7 0 0
BITMAP
6280
0FE0
E440
27C0
FFE0
1100
0300
ENDCHAR
STARTCHAR uni5C0F
ENCODING 23567
SWIDTH 1500 0
DWIDTH 12 0
BBX 11 7 0 0
BITMAP
0400
0400
2480
2440
C420
0400
1C00
ENDCHAR
STARTCHAR uni5C11
ENCODING 23569
SWIDTH 1500 0
DWIDTH 12 0
BBX 11 7 0 0
BITMAP
0400
2480
2440
CCA0
0100
0600
7800
ENDCHAR
STARTCHAR uni5C16
ENCODING 23574
SWIDTH 1500 0
DWIDTH 12 0
BBX 11 7 0 0
BITMAP
0400
2480
CC60
0400
FFE0
0A00
F1E0
ENDCHAR
STARTCHAR uni5C1A
ENCODING 23578
SWIDTH 1500 0
DWIDTH 12 0
BBX 11 7 0 0
BITMAP
4440
2480
FFE0
8020
9F20
9120
9F60
ENDCHAR
STARTCHAR uni5C24
ENCODING 23588
SWIDTH 1500 0
DWIDTH 12 0
BBX 11 7 0 0
BITMAP
0480
FFE0
0400
0600
0A00
1220
E3E0
ENDCHAR
STARTCHAR uni5C2D
ENCODING 23597
SWIDTH 1500 0
DWIDTH 12 0
BBX 11 7 0 0
BITMAP
0400
3F80
7FC0
1100
7FC0
0A20
F3E0
ENDCHAR
STARTCHAR uni5C31
ENCODING 23601
SWIDTH 1500 0
DWIDTH 12 0
BBX 11 7 0 0
BITMAP
10A0
FDE0
4880
78C0
1140
5540
B260
ENDCHAR
STARTCHAR uni5C3A
ENCODING 23610
SWIDTH 1500 0
DWIDTH 12 0
BBX 11 7 0 0
BITMAP
3FC0
2040
3FC0
2200
2100
4080
8060
ENDCHAR
STARTCHAR uni5C3B
ENCODING 23611
SWIDTH 1500 0
DWIDTH 12 0
BBX 11 7 0 0
BITMAP
7FC0
4040
7FC0
4400
5F80
48A0
B0E0
ENDCHAR
STARTCHAR uni5C3C
ENCODING 23612
SWIDTH 1500 0
DWIDTH 12 0
BBX 11 7 0 0
BITMAP
7FC0
4040
7FC0
5000
5F80
5020
8FE0
ENDCHAR
STARTCHAR uni5C3D
ENCODING 23613
SWIDTH 1500 0
DWIDTH 12 0
BBX 11 7 0 0
BITMAP
3FC0
2040
3FC0
2480
4240
9C20
0300
ENDCHAR
STARTCHAR uni5C3E
ENCODING 23614
SWIDTH 1500 0
DWIDTH 12 0
BBX 11 7 0 0
BITMAP
7FC0
4040
7FC0
4E00
4380
5E20
83E0
ENDCHAR
STARTCHAR uni5C3F
ENCODING 23615
SWIDTH 1500 0
DWIDTH 12 0
BBX 11 7 0 0
BITMAP
7FC0
4040
7FC0
4200
5AC0
4B00
B6E0
ENDCHAR
STARTCHAR uni5C40
ENCODING 23616
SWIDTH 1500 0
DWIDTH 12 0
BBX 11 7 0 0
BITMAP
3FC0
2040
3FC0
2000
3FE0
5120
9F60
ENDCHAR
STARTCHAR uni5C45
ENCODING 23621
SWIDTH 1500 0
DWIDTH 12 0
BBX 11 7 0 0
BITMAP
7FC0
7FC0
4100
5FE0
4100
4FC0
8FC0
ENDCHAR
STARTCHAR uni5C48
ENCODING 23624
SWIDTH 1500 0
DWIDTH 12 0
BBX 10 7 0 0
BITMAP
7FC0
4040
7FC0
4F80
4200
5240
9FC0
ENDCHAR
STARTCHAR uni5C4A
ENCODING 23626
SWIDTH 1500 0
DWIDTH 12 0
BBX 10 7 0 0
BITMAP
3FC0
2040
3FC0
2200
3FC0
5240
9FC0
ENDCHAR
STARTCHAR uni5C4B
ENCODING 23627
SWIDTH 1500 0
DWIDTH 12 0
BBX 11 7 0 0
BITMAP
7FC0
4040
7FC0
4900
5E80
4200
BFE0
ENDCHAR
STARTCHAR uni5C4D
ENCODING 23629
SWIDTH 1500 0
DWIDTH 12 0
BBX 11 7 0 0
BITMAP
7FC0
4040
7FE0
4D00
5580
4920
B1E0
ENDCHAR
STARTCHAR uni5C51
ENCODING 23633
SWIDTH 1500 0
DWIDTH 12 0
BBX 10 7 0 0
BITMAP
7FC0
7FC0
4A80
5FC0
5040
5FC0
9040
ENDCHAR
STARTCHAR uni5C55
ENCODING 23637
SWIDTH 1500 0
DWIDTH 12 0
BBX 11 7 0 0
BITMAP
7FC0
4040
7FC0
4900
7FE0
5100
BCE0
ENDCHAR
STARTCHAR uni5C5E
ENCODING 23646
SWIDTH 1500 0
DWIDTH 12 0
BBX 10 7 0 0
BITMAP
7FC0
7FC0
4F80
4200
5FC0
5340
96C0
ENDCHAR
STARTCHAR uni5C60
ENCODING 23648
SWIDTH 1500 0
DWIDTH 12 0
BBX 11 7 0 0
BITMAP
7FC0
7FC0
4F80
4300
5FE0
4A80
9380
ENDCHAR
STARTCHAR uni5C61
ENCODING 23649
SWIDTH 1500 0
DWIDTH 12 0
BBX 11 7 0 0
BITMAP
7FC0
7FC0
4A80
5FE0
4880
4780
B860
ENDCHAR
STARTCHAR uni5C64
ENCODING 23652
SWIDTH 1500 0
DWIDTH 12 0
BBX 11 7 0 0
BITMAP
7FC0
7FC0
4480
5B60
5FE0
4840
8FC0
ENDCHAR
STARTCHAR uni5C65
ENCODING 23653
SWIDTH 1500 0
DWIDTH 12 0
BBX 11 7 0 0
BITMAP
7FC0
7FC0
4940
51C0
4B40
5880
8B60
ENDCHAR
STARTCHAR uni5C6F
ENCODING 23663
SWIDTH 1500 0
DWIDTH 12 0
BBX 11 7 0 0
BITMAP
05C0
FE00
4440
4440
7FC0
0420
07E0
ENDCHAR
STARTCHAR uni5C71
ENCODING 23665
SWIDTH 1500 0
DWIDTH 12 0
BBX 9 7 1 0
BITMAP
0800
0800
8880
8880
8880
8880
FF80
ENDCHAR
STARTCHAR uni5C90
ENCODING 23696
SWIDTH 1500 0
DWIDTH 12 0
BBX 11 7 0 0
BITMAP
2080
27E0
A880
ABC0
AA40
F980
0660
ENDCHAR
STARTCHAR uni5CA1
ENCODING 23713
SWIDTH 1500 0
DWIDTH 12 0
BBX 11 7 0 0
BITMAP
FFE0
9120
8A20
BFA0
8420
9520
9F60
ENDCHAR
STARTCHAR uni5CA8
ENCODING 23720
SWIDTH 1500 0
DWIDTH 12 0
BBX 11 7 0 0
BITMAP
23C0
2240
ABC0
AA40
ABC0
FA40
07E0
ENDCHAR
STARTCHAR uni5CA9
ENCODING 23721
SWIDTH 1500 0
DWIDTH 12 0
BBX 11 7 0 0
BITMAP
2480
3F80
0000
FFE0
2000
DF80
1F80
ENDCHAR
STARTCHAR uni5CAC
ENCODING 23724
SWIDTH 1500 0
DWIDTH 12 0
BBX 11 7 0 0
BITMAP
2FE0
2920
AFE0
A920
AFE0
F900
0100
ENDCHAR
STARTCHAR uni5CB1
ENCODING 23729
SWIDTH 1500 0
DWIDTH 12 0
BBX 11 7 0 0
BITMAP
1280
2FC0
E100
20E0
0400
4440
7FC0
ENDCHAR
STARTCHAR uni5CB3
ENCODING 23731
SWIDTH 1500 0
DWIDTH 12 0
BBX 11 7 0 0
BITMAP
0300
3C00
3FC0
2100
FFE0
2480
3F80
ENDCHAR
STARTCHAR uni5CB8
ENCODING 23736
SWIDTH 1500 0
DWIDTH 12 0
BBX 11 7 0 0
BITMAP
4440
7FC0
4000
5FC0
4200
7FE0
8200
ENDCHAR
STARTCHAR uni5CE0
ENCODING 23776
SWIDTH 1500 0
DWIDTH 12 0
BBX 11 7 0 0
BITMAP
2100
21C0
A900
AFE0
A940
F920
0100
ENDCHAR
STARTCHAR uni5CE1
ENCODING 23777
SWIDTH 1500 0
DWIDTH 12 0
BBX 11 7 0 0
BITMAP
2100
2FE0
A540
A100
AFE0
F280
0C60
ENDCHAR
STARTCHAR uni5CE8
ENCODING 23784
SWIDTH 1500 0
DWIDTH 12 0
BBX 11 7 0 0
BITMAP
2EA0
2480
AFE0
A480
AEA0
F440
0DA0
ENDCHAR
STARTCHAR uni5CEF
ENCODING 23791
SWIDTH 1500 0
DWIDTH 12 0
BBX 11 7 0 0
BITMAP
4440
7FC0
1080
1F00
E4E0
1F00
0400
ENDCHAR
STARTCHAR uni5CF0
ENCODING 23792
SWIDTH 1500 0
DWIDTH 12 0
BBX 11 7 0 0
BITMAP
20C0
2340
A880
AF60
A880
FBE0
0080
ENDCHAR
STARTCHAR uni5CF6
ENCODING 23798
SWIDTH 1500 0
DWIDTH 12 0
BBX 11 7 0 0
BITMAP
0400
3F80
3F80
2000
3FE0
9220
FEE0
ENDCHAR
STARTCHAR uni5CFB
ENCODING 23803
SWIDTH 1500 0
DWIDTH 12 0
BBX 11 7 0 0
BITMAP
2240
2FA0
A480
A9E0
A680
F100
0EE0
ENDCHAR
STARTCHAR uni5D07
ENCODING 23815
SWIDTH 1500 0
DWIDTH 12 0
BBX 11 7 0 0
BITMAP
4440
7FC0
0400
FFE0
9F20
2480
CC60
ENDCHAR
STARTCHAR uni5D0E
ENCODING 23822
SWIDTH 1500 0
DWIDTH 12 0
BBX 11 7 0 0
BITMAP
2100
27C0
A100
A280
AFE0
F540
0740
ENDCHAR
STARTCHAR uni5D16
ENCODING 23830
SWIDTH 1500 0
DWIDTH 12 0
BBX 11 7 0 0
BITMAP
4440
7FC0
4F80
4200
5FC0
4200
BFE0
ENDCHAR
STARTCHAR uni5D29
ENCODING 23849
SWIDTH 1500 0
DWIDTH 12 0
BBX 11 7 0 0
BITMAP
4440
7FE0
4920
79E0
4920
79E0
8A20
ENDCHAR
STARTCHAR uni5D50
ENCODING 23888
SWIDTH 1500 0
DWIDTH 12 0
BBX 11 7 0 0
BITMAP
4440
7FC0
4E40
5540
5F40
44C0
BF60
ENDCHAR
STARTCHAR uni5D69
ENCODING 23913
SWIDTH 1500 0
DWIDTH 12 0
BBX 11 7 0 0
BITMAP
4440
7FC0
FFE0
1100
FFE0
9120
9F60
ENDCHAR
STARTCHAR uni5D6F
ENCODING 23919
SWIDTH 1500 0
DWIDTH 12 0
BBX 11 7 0 0
BITMAP
2440
2FE0
A100
AFE0
A5C0
F880
07E0
ENDCHAR
STARTCHAR uni5D8B
ENCODING 23947
SWIDTH 1500 0
DWIDTH 12 0
BBX 11 7 0 0
BITMAP
2080
23C0
ABC0
AA00
ABE0
F820
0560
ENDCHAR
STARTCHAR uni5DBA
ENCODING 23994
SWIDTH 1500 0
DWIDTH 12 0
BBX 11 7 0 0
BITMAP
4440
7FC0
2100
53C0
FA40
2BC0
2660
ENDCHAR
STARTCHAR uni5DCC
ENCODING 24012
SWIDTH 1500 0
DWIDTH 12 0
BBX 11 7 0 0
BITMAP
4440
7FC0
4A80
7FE0
5520
7CC0
8520
ENDCHAR
STARTCHAR uni5DDD
ENCODING 24029
SWIDTH 1500 0
DWIDTH 12 0
BBX 10 7 0 0
BITMAP
2040
2440
2440
2440
2440
4040
8040
ENDCHAR
STARTCHAR uni5DDE
ENCODING 24030
SWIDTH 1500 0
DWIDTH 12 0
BBX 11 7 0 0
BITMAP
2220
2220
AAA0
AAA0
2220
4220
8220
ENDCHAR
STARTCHAR uni5DE1
ENCODING 24033
SWIDTH 1500 0
DWIDTH 12 0
BBX 11 7 0 0
BITMAP
4540
2540
0A80
E540
2540
2000
DFE0
ENDCHAR
STARTCHAR uni5DE3
ENCODING 24035
SWIDTH 1500 0
DWIDTH 12 0
BBX 11 7 0 0
BITMAP
4840
3F80
2480
3F80
FFE0
1500
E4E0
ENDCHAR
STARTCHAR uni5DE5
ENCODING 24037
SWIDTH 1500 0
DWIDTH 12 0
BBX 11 6 0 0
BITMAP
7FC0
0400
0400
0400
0400
FFE0
ENDCHAR
STARTCHAR uni5DE6
ENCODING 24038
SWIDTH 1500 0
DWIDTH 12 0
BBX 11 7 0 0
BITMAP
0800
FFE0
1000
1F80
2200
C200
3FE0
ENDCHAR
STARTCHAR uni5DE7
ENCODING 24039
SWIDTH 1500 0
DWIDTH 12 0
BBX 11 7 0 0
BITMAP
F7E0
2200
2200
23C0
3440
C040
0180
ENDCHAR
STARTCHAR uni5DE8
ENCODING 24040
SWIDTH 1500 0
DWIDTH 12 0
BBX 9 7 1 0
BITMAP
FF80
8000
FF00
8100
FF00
8000
FF80
ENDCHAR
STARTCHAR uni5DEE
ENCODING 24046
SWIDTH 1500 0
DWIDTH 12 0
BBX 11 7 0 0
BITMAP
2080
7FC0
0400
FFE0
2F80
C200
3FE0
ENDCHAR
STARTCHAR uni5DF1
ENCODING 24049
SWIDTH 1500 0
DWIDTH 12 0
BBX 9 7 1 0
BITMAP
FF00
0100
0100
FF00
8000
8080
7F80
ENDCHAR
STARTCHAR uni5DF3
ENCODING 24051
SWIDTH 1500 0
DWIDTH 12 0
BBX 10 7 1 0
BITMAP
FF80
8080
8080
FF80
8000
8040
7FC0
ENDCHAR
STARTCHAR uni5DF4
ENCODING 24052
SWIDTH 1500 0
DWIDTH 12 0
BBX 10 7 1 0
BITMAP
FF80
8880
8880
FF80
8000
8040
7FC0
ENDCHAR
STARTCHAR uni5DF7
ENCODING 24055
SWIDTH 1500 0
DWIDTH 12 0
BBX 11 7 0 0
BITMAP
1100
7FC0
1100
FFE0
4C40
9120
1F00
ENDCHAR
STARTCHAR uni5DFB
ENCODING 24059
SWIDTH 1500 0
DWIDTH 12 0
BBX 11 7 0 0
BITMAP
2480
1F00
FFE0
2280
5E40
90A0
1F80
ENDCHAR
STARTCHAR uni5DFD
ENCODING 24061
SWIDTH 1500 0
DWIDTH 12 0
BBX 11 7 0 0
BITMAP
7BC0
0840
3F80
1100
FFE0
2080
C060
ENDCHAR
STARTCHAR uni5DFE
ENCODING 24062
SWIDTH 1500 0
DWIDTH 12 0
BBX 9 7 1 0
BITMAP
0800
FF80
8880
8880
8880
8980
0800
ENDCHAR
STARTCHAR uni5E02
ENCODING 24066
SWIDTH 1500 0
DWIDTH 12 0
BBX 11 7 0 0
BITMAP
0400
FFE0
0400
7FC0
4440
44C0
0400
ENDCHAR
STARTCHAR uni5E03
ENCODING 24067
SWIDTH 1500 0
DWIDTH 12 0
BBX 11 7 0 0
BITMAP
0800
FFE0
1200
3FC0
D240
12C0
0200
ENDCHAR
STARTCHAR uni5E06
ENCODING 24070
SWIDTH 1500 0
DWIDTH 12 0
BBX 11 7 0 0
BITMAP
23C0
FA40
AB40
AAC0
AA40
2240
2460
ENDCHAR
STARTCHAR uni5E0C
ENCODING 24076
SWIDTH 1500 0
DWIDTH 12 0
BBX 11 7 0 0
BITMAP
3180
0E00
1100
FFE0
2200
DFC0
1240
ENDCHAR
STARTCHAR uni5E16
ENCODING 24086
SWIDTH 1500 0
DWIDTH 12 0
BBX 11 7 0 0
BITMAP
2100
F9E0
A900
AFE0
A420
2420
27E0
ENDCHAR
STARTCHAR uni5E1D
ENCODING 24093
SWIDTH 1500 0
DWIDTH 12 0
BBX 11 7 0 0
BITMAP
0400
7FC0
1100
FFE0
8420
3F80
2480
ENDCHAR
STARTCHAR uni5E25
ENCODING 24101
SWIDTH 1500 0
DWIDTH 12 0
BBX 11 7 0 0
BITMAP
2100
F7E0
9520
E520
9520
F560
0100
ENDCHAR
STARTCHAR uni5E2B
ENCODING 24107
SWIDTH 1500 0
DWIDTH 12 0
BBX 11 7 0 0
BITMAP
23E0
F080
93E0
FAA0
8AA0
FAA0
0080
ENDCHAR
STARTCHAR uni5E2D
ENCODING 24109
SWIDTH 1500 0
DWIDTH 12 0
BBX 11 7 0 0
BITMAP
0200
7FC0
4880
7FE0
4200
5FC0
9240
ENDCHAR
STARTCHAR uni5E2F
ENCODING 24111
SWIDTH 1500 0
DWIDTH 12 0
BBX 11 7 0 0
BITMAP
2480
FFE0
2480
FFE0
8420
3F80
2480
ENDCHAR
STARTCHAR uni5E30
ENCODING 24112
SWIDTH 1500 0
DWIDTH 12 0
BBX 11 7 0 0
BITMAP
27C0
A040
AFE0
A920
27C0
4540
8100
ENDCHAR
STARTCHAR uni5E33
ENCODING 24115
SWIDTH 1500 0
DWIDTH 12 0
BBX 11 7 0 0
BITMAP
23C0
FA00
AB80
AA00
AFE0
2280
2760
ENDCHAR
STARTCHAR uni5E38
ENCODING 24120
SWIDTH 1500 0
DWIDTH 12 0
BBX 11 7 0 0
BITMAP
2480
FFE0
9120
1F00
7FC0
4440
0400
ENDCHAR
STARTCHAR uni5E3D
ENCODING 24125
SWIDTH 1500 0
DWIDTH 12 0
BBX 11 7 0 0
BITMAP
2FE0
F820
AFE0
A440
A7C0
2440
27C0
ENDCHAR
STARTCHAR uni5E45
ENCODING 24133
SWIDTH 1500 0
DWIDTH 12 0
BBX 11 7 0 0
BITMAP
2FE0
F440
A7C0
A920
AFE0
2920
2FE0
ENDCHAR
STARTCHAR uni5E4C
ENCODING 24140
SWIDTH 1500 0
DWIDTH 12 0
BBX 11 7 0 0
BITMAP
2FE0
F820
AFE0
A540
AFE0
2280
2CE0
ENDCHAR
STARTCHAR uni5E55
ENCODING 24149
SWIDTH 1500 0
DWIDTH 12 0
BBX 11 7 0 0
BITMAP
1100
FFE0
1F00
FFE0
2480
DF60
1500
ENDCHAR
STARTCHAR uni5E61
ENCODING 24161
SWIDTH 1500 0
DWIDTH 12 0
BBX 11 7 0 0
BITMAP
2FE0
F540
AFE0
A540
A920
27C0
27C0
ENDCHAR
STARTCHAR uni5E63
ENCODING 24163
SWIDTH 1500 0
DWIDTH 12 0
BBX 11 7 0 0
BITMAP
54E0
FD20
B4C0
DD20
7FC0
4440
0400
ENDCHAR
STARTCHAR uni5E72
ENCODING 24178
SWIDTH 1500 0
DWIDTH 12 0
BBX 11 7 0 0
BITMAP
3F80
0400
0400
FFE0
0400
0400
0400
ENDCHAR
STARTCHAR uni5E73
ENCODING 24179
SWIDTH 1500 0
DWIDTH 12 0
BBX 11 7 0 0
BITMAP
7FC0
2480
1500
0400
FFE0
0400
0400
ENDCHAR
STARTCHAR uni5E74
ENCODING 24180
SWIDTH 1500 0
DWIDTH 12 0
BBX 11 7 0 0
BITMAP
2000
3FC0
C400
3F80
2400
FFE0
0400
ENDCHAR
STARTCHAR uni5E78
ENCODING 24184
SWIDTH 1500 0
DWIDTH 12 0
BBX 11 7 0 0
BITMAP
0400
3F80
FFE0
1100
FFE0
3F80
0400
ENDCHAR
STARTCHAR uni5E79
ENCODING 24185
SWIDTH 1500 0
DWIDTH 12 0
BBX 11 7 0 0
BITMAP
2380
F440
7BA0
5100
7FE0
F100
2100
ENDCHAR
STARTCHAR uni5E7B
ENCODING 24187
SWIDTH 1500 0
DWIDTH 12 0
BBX 11 7 0 0
BITMAP
1000
23E0
C820
5020
2020
4820
F5C0
ENDCHAR
STARTCHAR uni5E7C
ENCODING 24188
SWIDTH 1500 0
DWIDTH 12 0
BBX 11 7 0 0
BITMAP
1100
23E0
C920
5120
2120
4A20
F460
ENDCHAR
STARTCHAR uni5E7D
ENCODING 24189
SWIDTH 1500 0
DWIDTH 12 0
BBX 11 7 0 0
BITMAP
1480
A520
94A0
A520
B5A0
8420
FFE0
ENDCHAR
STARTCHAR uni5E7E
ENCODING 24190
SWIDTH 1500 0
DWIDTH 12 0
BBX 11 7 0 0
BITMAP
1440
6580
1440
FFE0
2240
3180
C660
ENDCHAR
STARTCHAR uni5E81
ENCODING 24193
SWIDTH 1500 0
DWIDTH 12 0
BBX 11 7 0 0
BITMAP
0200
7FC0
4000
5FE0
4100
4100
8700
ENDCHAR
STARTCHAR uni5E83
ENCODING 24195
SWIDTH 1500 0
DWIDTH 12 0
BBX 11 7 0 0
BITMAP
0200
7FC0
4000
4200
4400
4840
BFA0
ENDCHAR
STARTCHAR uni5E84
ENCODING 24196
SWIDTH 1500 0
DWIDTH 12 0
BBX 11 7 0 0
BITMAP
0200
7FC0
4200
4F80
4200
4200
BFE0
ENDCHAR
STARTCHAR uni5E87
ENCODING 24199
SWIDTH 1500 0
DWIDTH 12 0
BBX 11 7 0 0
BITMAP
0200
7FC0
5100
5DC0
5100
5D20
B1E0
ENDCHAR
STARTCHAR uni5E8A
ENCODING 24202
SWIDTH 1500 0
DWIDTH 12 0
BBX 11 7 0 0
BITMAP
0200
7FC0
4200
5FC0
4700
4A80
B260
ENDCHAR
STARTCHAR uni5E8F
ENCODING 24207
SWIDTH 1500 0
DWIDTH 12 0
BBX 11 7 0 0
BITMAP
0200
7FC0
4F80
4100
5FE0
4240
8600
ENDCHAR
STARTCHAR uni5E95
ENCODING 24213
SWIDTH 1500 0
DWIDTH 12 0
BBX 11 7 0 0
BITMAP
0200
7FC0
5F80
5200
5FC0
5100
BCE0
ENDCHAR
STARTCHAR uni5E96
ENCODING 24214
SWIDTH 1500 0
DWIDTH 12 0
BBX 11 7 0 0
BITMAP
0200
7FE0
4F40
7140
4F00
4820
8FE0
ENDCHAR
STARTCHAR uni5E97
ENCODING 24215
SWIDTH 1500 0
DWIDTH 12 0
BBX 10 7 0 0
BITMAP
0200
7FC0
4200
43C0
4200
5FC0
9FC0
ENDCHAR
STARTCHAR uni5E9A
ENCODING 24218
SWIDTH 1500 0
DWIDTH 12 0
BBX 11 7 0 0
BITMAP
0200
7FC0
4F80
42E0
5F80
4500
B8E0
ENDCHAR
STARTCHAR uni5E9C
ENCODING 24220
SWIDTH 1500 0
DWIDTH 12 0
BBX 11 7 0 0
BITMAP
0200
7FC0
4880
57E0
7080
5280
9180
ENDCHAR
STARTCHAR uni5EA6
ENCODING 24230
SWIDTH 1500 0
DWIDTH 12 0
BBX 11 7 0 0
BITMAP
0200
7FC0
4880
5FC0
4880
4700
B8E0
ENDCHAR
STARTCHAR uni5EA7
ENCODING 24231
SWIDTH 1500 0
DWIDTH 12 0
BBX 11 7 0 0
BITMAP
0200
7FC0
4A80
4A80
5740
4200
BFE0
ENDCHAR
STARTCHAR uni5EAB
ENCODING 24235
SWIDTH 1500 0
DWIDTH 12 0
BBX 11 7 0 0
BITMAP
0200
7FE0
4940
4FC0
4940
5FE0
8100
ENDCHAR
STARTCHAR uni5EAD
ENCODING 24237
SWIDTH 1500 0
DWIDTH 12 0
BBX 11 7 0 0
BITMAP
0200
7FC0
59C0
4880
53E0
4880
B7E0
ENDCHAR
STARTCHAR uni5EB5
ENCODING 24245
SWIDTH 1500 0
DWIDTH 12 0
BBX 11 7 0 0
BITMAP
0200
7FC0
4A80
5FC0
6AA0
4F80
81E0
ENDCHAR
STARTCHAR uni5EB6
ENCODING 24246
SWIDTH 1500 0
DWIDTH 12 0
BBX 11 7 0 0
BITMAP
0200
7FC0
4480
5FE0
4780
4000
92A0
ENDCHAR
STARTCHAR uni5EB7
ENCODING 24247
SWIDTH 1500 0
DWIDTH 12 0
BBX 11 7 0 0
BITMAP
0200
7FC0
4F80
42E0
5780
4A80
B660
ENDCHAR
STARTCHAR uni5EB8
ENCODING 24248
SWIDTH 1500 0
DWIDTH 12 0
BBX 10 7 0 0
BITMAP
0200
7FC0
4280
7FC0
5240
5FC0
9240
ENDCHAR
STARTCHAR uni5EC3
ENCODING 24259
SWIDTH 1500 0
DWIDTH 12 0
BBX 11 7 0 0
BITMAP
0200
7FC0
6FA0
5540
6FA0
4500
B9E0
ENDCHAR
STARTCHAR uni5EC9
ENCODING 24265
SWIDTH 1500 0
DWIDTH 12 0
BBX 11 7 0 0
BITMAP
0200
7FE0
4540
5FE0
4540
5FC0
A520
ENDCHAR
STARTCHAR uni5ECA
ENCODING 24266
SWIDTH 1500 0
DWIDTH 12 0
BBX 11 7 0 0
BITMAP
0200
7FC0
48A0
5CC0
5CA0
52E0
BE80
ENDCHAR
STARTCHAR uni5ED3
ENCODING 24275
SWIDTH 1500 0
DWIDTH 12 0
BBX 11 7 0 0
BITMAP
0200
7FE0
48A0
7EC0
54A0
7EC0
8880
ENDCHAR
STARTCHAR uni5EDF
ENCODING 24287
SWIDTH 1500 0
DWIDTH 12 0
BBX 11 7 0 0
BITMAP
0400
7FC0
4800
7EE0
54A0
7EE0
8920
ENDCHAR
STARTCHAR uni5EE0
ENCODING 24288
SWIDTH 1500 0
DWIDTH 12 0
BBX 11 7 0 0
BITMAP
0200
7FC0
6A80
48E0
7EA0
6240
AAA0
ENDCHAR
STARTCHAR uni5EF6
ENCODING 24310
SWIDTH 1500 0
DWIDTH 12 0
BBX 11 7 0 0
BITMAP
F060
1780
60C0
1280
57E0
2000
DFE0
ENDCHAR
STARTCHAR uni5EF7
ENCODING 24311
SWIDTH 1500 0
DWIDTH 12 0
BBX 11 7 0 0
BITMAP
F040
1380
6080
17E0
5080
23C0
DFE0
ENDCHAR
STARTCHAR uni5EFA
ENCODING 24314
SWIDTH 1500 0
DWIDTH 12 0
BBX 11 7 0 0
BITMAP
F7C0
1160
67C0
1100
57C0
2100
DFE0
ENDCHAR
STARTCHAR uni5EFB
ENCODING 24315
SWIDTH 1500 0
DWIDTH 12 0
BBX 11 7 0 0
BITMAP
EFE0
2820
4BA0
2AA0
ABA0
4820
BFE0
ENDCHAR
STARTCHAR uni5EFC
ENCODING 24316
SWIDTH 1500 0
DWIDTH 12 0
BBX 11 7 0 0
BITMAP
F7E0
1240
67E0
1660
5420
27E0
DFE0
ENDCHAR
STARTCHAR uni5EFF
ENCODING 24319
SWIDTH 1500 0
DWIDTH 12 0
BBX 11 7 0 0
BITMAP
2080
2080
FFE0
2080
2080
2080
3F80
ENDCHAR
STARTCHAR uni5F01
ENCODING 24321
SWIDTH 1500 0
DWIDTH 12 0
BBX 11 7 0 0
BITMAP
0800
1080
7FC0
1100
FFE0
1100
6100
ENDCHAR
STARTCHAR uni5F04
ENCODING 24324
SWIDTH 1500 0
DWIDTH 12 0
BBX 11 7 0 0
BITMAP
7FC0
0400
3F80
1100
FFE0
1100
6100
ENDCHAR
STARTCHAR uni5F0A
ENCODING 24330
SWIDTH 1500 0
DWIDTH 12 0
BBX 11 7 0 0
BITMAP
54E0
FD20
B4C0
DD20
7FC0
1100
6100
ENDCHAR
STARTCHAR uni5F0F
ENCODING 24335
SWIDTH 1500 0
DWIDTH 12 0
BBX 11 7 0 0
BITMAP
0140
FFE0
0100
7D00
1080
1CA0
E060
ENDCHAR
STARTCHAR uni5F10
ENCODING 24336
SWIDTH 1500 0
DWIDTH 12 0
BBX 11 7 0 0
BITMAP
7940
0100
FFE0
0100
7080
06A0
F860
ENDCHAR
STARTCHAR uni5F13
ENCODING 24339
SWIDTH 1500 0
DWIDTH 12 0
BBX 10 7 1 0
BITMAP
FF00
0100
7F00
8000
FFC0
0040
0380
ENDCHAR
STARTCHAR uni5F14
ENCODING 24340
SWIDTH 1500 0
DWIDTH 12 0
BBX 10 7 1 0
BITMAP
FF80
0880
7F80
8800
FFC0
0840
0980
ENDCHAR
STARTCHAR uni5F15
ENCODING 24341
SWIDTH 1500 0
DWIDTH 12 0
BBX 9 7 1 0
BITMAP
F880
0880
7880
8080
F880
0880
3080
ENDCHAR
STARTCHAR uni5F17
ENCODING 24343
SWIDTH 1500 0
DWIDTH 12 0
BBX 11 7 0 0
BITMAP
1100
7FC0
1140
7FC0
5100
3FE0
C120
ENDCHAR
STARTCHAR uni5F18
ENCODING 24344
SWIDTH 1500 0
DWIDTH 12 0
BBX 11 7 0 0
BITMAP
F100
1100
7200
8200
F480
1440
6FA0
ENDCHAR
STARTCHAR uni5F1B
ENCODING 24347
SWIDTH 1500 0
DWIDTH 12 0
BBX 11 7 0 0
BITMAP
F500
15E0
7720
8D60
F500
1420
63E0
ENDCHAR
STARTCHAR uni5F1F
ENCODING 24351
SWIDTH 1500 0
DWIDTH 12 0
BBX 11 7 0 0
BITMAP
2080
7FC0
0440
3FC0
2400
1FE0
E420
ENDCHAR
STARTCHAR uni5F25
ENCODING 24357
SWIDTH 1500 0
DWIDTH 12 0
BBX 11 7 0 0
BITMAP
F200
13E0
7480
82C0
F2A0
14A0
6180
ENDCHAR
STARTCHAR uni5F26
ENCODING 24358
SWIDTH 1500 0
DWIDTH 12 0
BBX 11 7 0 0
BITMAP
F100
1FE0
7200
8680
F100
1240
6FA0
ENDCHAR
STARTCHAR uni5F27
ENCODING 24359
SWIDTH 1500 0
DWIDTH 12 0
BBX 11 7 0 0
BITMAP
F0C0
1700
7540
8540
F540
1540
6BA0
ENDCHAR
STARTCHAR uni5F31
ENCODING 24369
SWIDTH 1500 0
DWIDTH 12 0
BBX 11 7 0 0
BITMAP
FBE0
0820
79E0
4100
38E0
CB20
38E0
ENDCHAR
STARTCHAR uni5F35
ENCODING 24373
SWIDTH 1500 0
DWIDTH 12 0
BBX 11 7 0 0
BITMAP
F3C0
1200
7380
8200
FFE0
1280
6760
ENDCHAR
STARTCHAR uni5F37
ENCODING 24375
SWIDTH 1500 0
DWIDTH 12 0
BBX 11 7 0 0
BITMAP
F200
1440
6FE0
8540
F7C0
1120
6FE0
ENDCHAR
STARTCHAR uni5F3C
ENCODING 24380
SWIDTH 1500 0
DWIDTH 12 0
BBX 11 7 0 0
BITMAP
EEE0
2420
EEE0
8A80
EEE0
2A20
6E60
ENDCHAR
STARTCHAR uni5F3E
ENCODING 24382
SWIDTH 1500 0
DWIDTH 12 0
BBX 11 7 0 0
BITMAP
F540
17C0
7540
87C0
F540
1FE0
7100
ENDCHAR
STARTCHAR uni5F4A
ENCODING 24394
SWIDTH 1500 0
DWIDTH 12 0
BBX 11 7 0 0
BITMAP
F7E0
13C0
73C0
87E0
F3C0
13C0
67E0
ENDCHAR
STARTCHAR uni5F53
ENCODING 24403
SWIDTH 1500 0
DWIDTH 12 0
BBX 9 7 1 0
BITMAP
4900
2A00
FF80
0080
7F80
0080
FF80
ENDCHAR
STARTCHAR uni5F62
ENCODING 24418
SWIDTH 1500 0
DWIDTH 12 0
BBX 11 7 0 0
BITMAP
FC40
4980
4840
FD80
4820
4840
8B80
ENDCHAR
STARTCHAR uni5F66
ENCODING 24422
SWIDTH 1500 0
DWIDTH 12 0
BBX 11 7 0 0
BITMAP
0400
7FC0
1100
7FE0
4F00
4060
9F80
ENDCHAR
STARTCHAR uni5F69
ENCODING 24425
SWIDTH 1500 0
DWIDTH 12 0
BBX 11 7 0 0
BITMAP
7040
0580
A840
1180
FC20
3840
D580
ENDCHAR
STARTCHAR uni5F6A
ENCODING 24426
SWIDTH 1500 0
DWIDTH 12 0
BBX 11 7 0 0
BITMAP
0840
0D80
7840
4D80
4020
55C0
A7E0
ENDCHAR
STARTCHAR uni5F6B
ENCODING 24427
SWIDTH 1500 0
DWIDTH 12 0
BBX 11 7 0 0
BITMAP
7E40
5280
7A40
5280
7E20
AA40
BA80
ENDCHAR
STARTCHAR uni5F6C
ENCODING 24428
SWIDTH 1500 0
DWIDTH 12 0
BBX 11 7 0 0
BITMAP
2420
FEC0
2420
6EC0
B400
2420
25C0
ENDCHAR
STARTCHAR uni5F70
ENCODING 24432
SWIDTH 1500 0
DWIDTH 12 0
BBX 11 7 0 0
BITMAP
1040
7C80
2840
FE80
4420
FE40
1180
ENDCHAR
STARTCHAR uni5F71
ENCODING 24433
SWIDTH 1500 0
DWIDTH 12 0
BBX 11 7 0 0
BITMAP
7840
4980
FC40
4980
7820
9440
3180
ENDCHAR
STARTCHAR uni5F79
ENCODING 24441
SWIDTH 1500 0
DWIDTH 12 0
BBX 11 7 0 0
BITMAP
2780
C4A0
28E0
6780
A480
2300
2CE0
ENDCHAR
STARTCHAR uni5F7C
ENCODING 24444
SWIDTH 1500 0
DWIDTH 12 0
BBX 11 7 0 0
BITMAP
2100
CFE0
2920
6FC0
AA40
2980
3660
ENDCHAR
STARTCHAR uni5F80
ENCODING 24448
SWIDTH 1500 0
DWIDTH 12 0
BBX 11 7 0 0
BITMAP
2200
C100
2FE0
6100
A7C0
2100
2FE0
ENDCHAR
STARTCHAR uni5F81
ENCODING 24449
SWIDTH 1500 0
DWIDTH 12 0
BBX 11 7 0 0
BITMAP
2FE0
C100
2100
65C0
A500
2500
2FE0
ENDCHAR
STARTCHAR uni5F84
ENCODING 24452
SWIDTH 1500 0
DWIDTH 12 0
BBX 11 7 0 0
BITMAP
2FC0
C440
2380
6D60
A380
2100
2FE0
ENDCHAR
STARTCHAR uni5F85
ENCODING 24453
SWIDTH 1500 0
DWIDTH 12 0
BBX 11 7 0 0
BITMAP
2100
C7C0
2100
6FE0
A040
2440
21C0
ENDCHAR
STARTCHAR uni5F8B
ENCODING 24459
SWIDTH 1500 0
DWIDTH 12 0
BBX 11 7 0 0
BITMAP
2100
CFC0
2160
6FC0
A100
2FE0
2100
ENDCHAR
STARTCHAR uni5F8C
ENCODING 24460
SWIDTH 1500 0
DWIDTH 12 0
BBX 11 7 0 0
BITMAP
2180
C600
2120
6FE0
A540
2880
2760
ENDCHAR
STARTCHAR uni5F90
ENCODING 24464
SWIDTH 1500 0
DWIDTH 12 0
BBX 11 7 0 0
BITMAP
2380
C440
2BA0
6100
AFE0
2540
2B20
ENDCHAR
STARTCHAR uni5F92
ENCODING 24466
SWIDTH 1500 0
DWIDTH 12 0
BBX 11 7 0 0
BITMAP
2100
C7C0
2100
6FE0
A180
2500
2BE0
ENDCHAR
STARTCHAR uni5F93
ENCODING 24467
SWIDTH 1500 0
DWIDTH 12 0
BBX 11 7 0 0
BITMAP
2440
CFE0
2100
65C0
A500
2500
2BE0
ENDCHAR
STARTCHAR uni5F97
ENCODING 24471
SWIDTH 1500 0
DWIDTH 12 0
BBX 11 7 0 0
BITMAP
27C0
C440
2FE0
6080
AFE0
2480
2180
ENDCHAR
STARTCHAR uni5FA1
ENCODING 24481
SWIDTH 1500 0
DWIDTH 12 0
BBX 11 7 0 0
BITMAP
28E0
CFA0
22A0
6FA0
A2A0
2B80
2C80
ENDCHAR
STARTCHAR uni5FA9
ENCODING 24489
SWIDTH 1500 0
DWIDTH 12 0
BBX 11 7 0 0
BITMAP
2400
C7E0
2A40
63C0
AC40
2380
2C60
ENDCHAR
STARTCHAR uni5FAA
ENCODING 24490
SWIDTH 1500 0
DWIDTH 12 0
BBX 11 7 0 0
BITMAP
2FC0
C900
2FE0
6900
ABC0
33C0
23C0
ENDCHAR
STARTCHAR uni5FAE
ENCODING 24494
SWIDTH 1500 0
DWIDTH 12 0
BBX 11 7 0 0
BITMAP
5540
9F60
20A0
7FA0
AA40
3340
20A0
ENDCHAR
STARTCHAR uni5FB3
ENCODING 24499
SWIDTH 1500 0
DWIDTH 12 0
BBX 11 7 0 0
BITMAP
2100
CFE0
2540
67C0
A000
24A0
2BA0
ENDCHAR
STARTCHAR uni5FB4
ENCODING 24500
SWIDTH 1500 0
DWIDTH 12 0
BBX 11 7 0 0
BITMAP
3540
DF60
24A0
6EA0
A440
3F40
20A0
ENDCHAR
STARTCHAR uni5FB9
ENCODING 24505
SWIDTH 1500 0
DWIDTH 12 0
BBX 11 7 0 0
BITMAP
2480
DEE0
29A0
7EA0
AA40
2E40
2AA0
ENDCHAR
STARTCHAR uni5FBD
ENCODING 24509
SWIDTH 1500 0
DWIDTH 12 0
BBX 11 7 0 0
BITMAP
5540
9F60
24A0
6AA0
AE40
3540
24A0
ENDCHAR
STARTCHAR uni5FC3
ENCODING 24515
SWIDTH 1500 0
DWIDTH 12 0
BBX 11 7 0 0
BITMAP
1C00
0300
1000
5040
5020
90A0
0F80
ENDCHAR
STARTCHAR uni5FC5
ENCODING 24517
SWIDTH 1500 0
DWIDTH 12 0
BBX 11 7 0 0
BITMAP
1C00
0240
1080
5140
9620
1840
67C0
ENDCHAR
STARTCHAR uni5FCC
ENCODING 24524
SWIDTH 1500 0
DWIDTH 12 0
BBX 11 7 0 0
BITMAP
3F00
0100
3F00
2080
3F80
5240
8F20
ENDCHAR
STARTCHAR uni5FCD
ENCODING 24525
SWIDTH 1500 0
DWIDTH 12 0
BBX 11 7 0 0
BITMAP
3FC0
1240
0C40
72C0
0000
5240
8F20
ENDCHAR
STARTCHAR uni5FD7
ENCODING 24535
SWIDTH 1500 0
DWIDTH 12 0
BBX 11 7 0 0
BITMAP
0400
FFE0
0400
3F80
0000
5240
8F20
ENDCHAR
STARTCHAR uni5FD8
ENCODING 24536
SWIDTH 1500 0
DWIDTH 12 0
BBX 11 7 0 0
BITMAP
0400
FFE0
2000
3F80
0200
5140
8F20
ENDCHAR
STARTCHAR uni5FD9
ENCODING 24537
SWIDTH 1500 0
DWIDTH 12 0
BBX 11 7 0 0
BITMAP
2100
AFE0
A400
A400
2400
2400
23C0
ENDCHAR
STARTCHAR uni5FDC
ENCODING 24540
SWIDTH 1500 0
DWIDTH 12 0
BBX 11 7 0 0
BITMAP
0200
7FC0
4200
4100
5440
54A0
A780
ENDCHAR
STARTCHAR uni5FE0
ENCODING 24544
SWIDTH 1500 0
DWIDTH 12 0
BBX 11 7 0 0
BITMAP
0400
7FC0
4440
7FC0
0400
5240
8F20
ENDCHAR
STARTCHAR uni5FEB
ENCODING 24555
SWIDTH 1500 0
DWIDTH 12 0
BBX 11 7 0 0
BITMAP
2100
B7C0
A140
AFE0
2100
2280
2C60
ENDCHAR
STARTCHAR uni5FF5
ENCODING 24565
SWIDTH 1500 0
DWIDTH 12 0
BBX 11 7 0 0
BITMAP
0E00
3180
DF60
0100
0200
5140
8F20
ENDCHAR
STARTCHAR uni5FFD
ENCODING 24573
SWIDTH 1500 0
DWIDTH 12 0
BBX 11 7 0 0
BITMAP
2000
3FC0
CA40
14C0
0000
5240
8F20
ENDCHAR
STARTCHAR uni6012
ENCODING 24594
SWIDTH 1500 0
DWIDTH 12 0
BBX 11 7 0 0
BITMAP
11E0
FD20
48C0
F520
0000
5240
8F20
ENDCHAR
STARTCHAR uni6016
ENCODING 24598
SWIDTH 1500 0
DWIDTH 12 0
BBX 11 7 0 0
BITMAP
2200
B7E0
A280
A7E0
2AA0
22A0
2080
ENDCHAR
STARTCHAR uni601C
ENCODING 24604
SWIDTH 1500 0
DWIDTH 12 0
BBX 11 7 0 0
BITMAP
2380
A440
ABA0
A000
2FE0
2120
2100
ENDCHAR
STARTCHAR uni601D
ENCODING 24605
SWIDTH 1500 0
DWIDTH 12 0
BBX 11 7 0 0
BITMAP
3F80
2480
3F80
2480
3F80
5240
8F20
ENDCHAR
STARTCHAR uni6020
ENCODING 24608
SWIDTH 1500 0
DWIDTH 12 0
BBX 11 7 0 0
BITMAP
0800
1080
FFE0
2080
3F80
5240
8F20
ENDCHAR
STARTCHAR uni6025
ENCODING 24613
SWIDTH 1500 0
DWIDTH 12 0
BBX 11 7 0 0
BITMAP
0F00
7100
1F80
0080
1F80
5240
8F20
ENDCHAR
STARTCHAR uni6027
ENCODING 24615
SWIDTH 1500 0
DWIDTH 12 0
BBX 11 7 0 0
BITMAP
2500
A7C0
A900
A100
27C0
2100
2FE0
ENDCHAR
STARTCHAR uni6028
ENCODING 24616
SWIDTH 1500 0
DWIDTH 12 0
BBX 11 7 0 0
BITMAP
3BC0
CA40
3220
C3E0
1400
5140
8F20
ENDCHAR
STARTCHAR uni602A
ENCODING 24618
SWIDTH 1500 0
DWIDTH 12 0
BBX 11 7 0 0
BITMAP
2FC0
A440
A380
AD60
2380
2100
2FE0
ENDCHAR
STARTCHAR uni602F
ENCODING 24623
SWIDTH 1500 0
DWIDTH 12 0
BBX 11 7 0 0
BITMAP
2100
B7C0
A100
AFE0
2200
2440
2FA0
ENDCHAR
STARTCHAR uni604B
ENCODING 24651
SWIDTH 1500 0
DWIDTH 12 0
BBX 11 7 0 0
BITMAP
0400
FFE0
2A80
5640
0000
5240
8F20
ENDCHAR
STARTCHAR uni6050
ENCODING 24656
SWIDTH 1500 0
DWIDTH 12 0
BBX 11 7 0 0
BITMAP
F7C0
2440
3540
C860
0200
5140
8F20
ENDCHAR
STARTCHAR uni6052
ENCODING 24658
SWIDTH 1500 0
DWIDTH 12 0
BBX 11 7 0 0
BITMAP
2FE0
B7C0
A440
A7C0
2440
27C0
2FE0
ENDCHAR
STARTCHAR uni6055
ENCODING 24661
SWIDTH 1500 0
DWIDTH 12 0
BBX 11 7 0 0
BITMAP
11E0
FD20
4920
F5E0
0000
5240
8F20
ENDCHAR
STARTCHAR uni6062
ENCODING 24674
SWIDTH 1500 0
DWIDTH 12 0
BBX 11 7 0 0
BITMAP
27E0
B480
A6A0
A6C0
2480
2540
2A20
ENDCHAR
STARTCHAR uni6065
ENCODING 24677
SWIDTH 1500 0
DWIDTH 12 0
BBX 11 7 0 0
BITMAP
F900
5080
7100
7520
5520
F540
11C0
ENDCHAR
STARTCHAR uni6068
ENCODING 24680
SWIDTH 1500 0
DWIDTH 12 0
BBX 11 7 0 0
BITMAP
27C0
B440
A7C0
A440
27C0
2480
2E60
ENDCHAR
STARTCHAR uni6069
ENCODING 24681
SWIDTH 1500 0
DWIDTH 12 0
BBX 11 7 0 0
BITMAP
3F80
2E80
2480
2A80
3F80
5240
8F20
ENDCHAR
STARTCHAR uni606D
ENCODING 24685
SWIDTH 1500 0
DWIDTH 12 0
BBX 11 7 0 0
BITMAP
1100
7FC0
1100
FFE0
2880
C860
2A80
ENDCHAR
STARTCHAR uni606F
ENCODING 24687
SWIDTH 1500 0
DWIDTH 12 0
BBX 11 7 0 0
BITMAP
0400
3F80
2080
3F80
3F80
5240
8F20
ENDCHAR
STARTCHAR uni6070
ENCODING 24688
SWIDTH 1500 0
DWIDTH 12 0
BBX 11 7 0 0
BITMAP
2380
A440
ABA0
A000
27C0
2440
27C0
ENDCHAR
STARTCHAR uni6075
ENCODING 24693
SWIDTH 1500 0
DWIDTH 12 0
BBX 11 7 0 0
BITMAP
0400
FFE0
3F80
2480
3F80
5240
8F20
ENDCHAR
STARTCHAR uni6089
ENCODING 24713
SWIDTH 1500 0
DWIDTH 12 0
BBX 11 7 0 0
BITMAP
7FC0
2480
FFE0
1500
E4E0
5240
8F20
ENDCHAR
STARTCHAR uni608C
ENCODING 24716
SWIDTH 1500 0
DWIDTH 12 0
BBX 11 7 0 0
BITMAP
2440
AFE0
A120
A7E0
2500
23E0
2D20
ENDCHAR
STARTCHAR uni6094
ENCODING 24724
SWIDTH 1500 0
DWIDTH 12 0
BBX 11 7 0 0
BITMAP
2800
AFE0
A540
BFE0
2A40
2FE0
2080
ENDCHAR
STARTCHAR uni609F
ENCODING 24735
SWIDTH 1500 0
DWIDTH 12 0
BBX 11 7 0 0
BITMAP
27C0
B100
A7C0
A240
2FE0
2440
27C0
ENDCHAR
STARTCHAR uni60A0
ENCODING 24736
SWIDTH 1500 0
DWIDTH 12 0
BBX 11 7 0 0
BITMAP
11C0
2A40
E980
2A60
0000
5240
8F20
ENDCHAR
STARTCHAR uni60A3
ENCODING 24739
SWIDTH 1500 0
DWIDTH 12 0
BBX 11 7 0 0
BITMAP
0400
1F00
1F00
2480
3F80
5240
8F20
ENDCHAR
STARTCHAR uni60A6
ENCODING 24742
SWIDTH 1500 0
DWIDTH 12 0
BBX 11 7 0 0
BITMAP
2440
AFE0
A820
AFE0
2480
24A0
28E0
ENDCHAR
STARTCHAR uni60A9
ENCODING 24745
SWIDTH 1500 0
DWIDTH 12 0
BBX 11 7 0 0
BITMAP
2540
B040
A280
A920
2AA0
2820
2FE0
ENDCHAR
STARTCHAR uni60AA
ENCODING 24746
SWIDTH 1500 0
DWIDTH 12 0
BBX 11 7 0 0
BITMAP
FFE0
2A80
3F80
0A00
FFE0
5240
8F20
ENDCHAR
STARTCHAR uni60B2
ENCODING 24754
SWIDTH 1500 0
DWIDTH 12 0
BBX 11 7 0 0
BITMAP
0A00
7BC0
0A00
7BC0
0A00
5140
8F20
ENDCHAR
STARTCHAR uni60B6
ENCODING 24758
SWIDTH 1500 0
DWIDTH 12 0
BBX 11 7 0 0
BITMAP
F1E0
9120
F5E0
8220
8820
9920
AEA0
ENDCHAR
STARTCHAR uni60BC
ENCODING 24764
SWIDTH 1500 0
DWIDTH 12 0
BBX 11 7 0 0
BITMAP
2100
B1E0
A7C0
A440
27C0
2FE0
2100
ENDCHAR
STARTCHAR uni60C5
ENCODING 24773
SWIDTH 1500 0
DWIDTH 12 0
BBX 11 7 0 0
BITMAP
2100
B7C0
A100
AFE0
2440
27C0
2440
ENDCHAR
STARTCHAR uni60C7
ENCODING 24775
SWIDTH 1500 0
DWIDTH 12 0
BBX 11 7 0 0
BITMAP
2100
AFE0
A440
A7C0
2080
2FE0
2300
ENDCHAR
STARTCHAR uni60D1
ENCODING 24785
SWIDTH 1500 0
DWIDTH 12 0
BBX 11 7 0 0
BITMAP
0140
FFE0
4880
FB60
0000
5240
8F20
ENDCHAR
STARTCHAR uni60DA
ENCODING 24794
SWIDTH 1500 0
DWIDTH 12 0
BBX 11 7 0 0
BITMAP
2400
B7E0
AAA0
A560
2000
24A0
2BA0
ENDCHAR
STARTCHAR uni60DC
ENCODING 24796
SWIDTH 1500 0
DWIDTH 12 0
BBX 11 7 0 0
BITMAP
2280
B7C0
A280
AFE0
27C0
2440
27C0
ENDCHAR
STARTCHAR uni60DF
ENCODING 24799
SWIDTH 1500 0
DWIDTH 12 0
BBX 11 7 0 0
BITMAP
2280
B3E0
A680
ABE0
2280
2280
23E0
ENDCHAR
STARTCHAR uni60E3
ENCODING 24803
SWIDTH 1500 0
DWIDTH 12 0
BBX 11 7 0 0
BITMAP
5200
7BE0
9560
FAA0
1000
5240
8F20
ENDCHAR
STARTCHAR uni60E8
ENCODING 24808
SWIDTH 1500 0
DWIDTH 12 0
BBX 11 7 0 0
BITMAP
2200
B440
AFE0
A440
2B20
2080
2700
ENDCHAR
STARTCHAR uni60F0
ENCODING 24816
SWIDTH 1500 0
DWIDTH 12 0
BBX 11 7 0 0
BITMAP
2200
AFE0
A480
ABE0
2240
23C0
2240
ENDCHAR
STARTCHAR uni60F3
ENCODING 24819
SWIDTH 1500 0
DWIDTH 12 0
BBX 11 7 0 0
BITMAP
11E0
FD20
39E0
D520
01E0
5240
8F20
ENDCHAR
STARTCHAR uni60F9
ENCODING 24825
SWIDTH 1500 0
DWIDTH 12 0
BBX 11 7 0 0
BITMAP
1100
FFE0
1000
7FC0
0F00
5240
8F20
ENDCHAR
STARTCHAR uni6101
ENCODING 24833
SWIDTH 1500 0
DWIDTH 12 0
BBX 11 7 0 0
BITMAP
7080
FAA0
7080
AB60
0000
5240
8F20
ENDCHAR
STARTCHAR uni6108
ENCODING 24840
SWIDTH 1500 0
DWIDTH 12 0
BBX 11 7 0 0
BITMAP
0E00
3B80
EAE0
3880
2980
5240
8F20
ENDCHAR
STARTCHAR uni6109
ENCODING 24841
SWIDTH 1500 0
DWIDTH 12 0
BBX 11 7 0 0
BITMAP
2380
A440
ABA0
A000
2EA0
2EA0
2A60
ENDCHAR
STARTCHAR uni610F
ENCODING 24847
SWIDTH 1500 0
DWIDTH 12 0
BBX 11 7 0 0
BITMAP
0400
7FC0
1100
FFE0
1F00
5240
8F20
ENDCHAR
STARTCHAR uni611A
ENCODING 24858
SWIDTH 1500 0
DWIDTH 12 0
BBX 11 7 0 0
BITMAP
3F80
2480
7FC0
5D40
0000
5240
8F20
ENDCHAR
STARTCHAR uni611B
ENCODING 24859
SWIDTH 1500 0
DWIDTH 12 0
BBX 11 7 0 0
BITMAP
7FC0
2880
FFE0
A4A0
5940
0F00
F0E0
ENDCHAR
STARTCHAR uni611F
ENCODING 24863
SWIDTH 1500 0
DWIDTH 12 0
BBX 11 7 0 0
BITMAP
0140
7FE0
5480
9D60
0000
5240
8F20
ENDCHAR
STARTCHAR uni6148
ENCODING 24904
SWIDTH 1500 0
DWIDTH 12 0
BBX 11 7 0 0
BITMAP
2080
FFE0
1080
6300
39C0
5240
8F20
ENDCHAR
STARTCHAR uni614B
ENCODING 24907
SWIDTH 1500 0
DWIDTH 12 0
BBX 11 7 0 0
BITMAP
2500
FDE0
4400
7D00
45E0
1240
8F20
ENDCHAR
STARTCHAR uni614C
ENCODING 24908
SWIDTH 1500 0
DWIDTH 12 0
BBX 11 7 0 0
BITMAP
2280
AFE0
A400
A7C0
2000
2540
2960
ENDCHAR
STARTCHAR uni614E
ENCODING 24910
SWIDTH 1500 0
DWIDTH 12 0
BBX 11 7 0 0
BITMAP
2100
AFE0
A7C0
A440
2FE0
2000
2C60
ENDCHAR
STARTCHAR uni6155
ENCODING 24917
SWIDTH 1500 0
DWIDTH 12 0
BBX 11 7 0 0
BITMAP
1100
FFE0
1F00
FFE0
2080
C860
2A80
ENDCHAR
STARTCHAR uni6162
ENCODING 24930
SWIDTH 1500 0
DWIDTH 12 0
BBX 11 7 0 0
BITMAP
27C0
B440
AFE0
AFE0
2440
2380
2C60
ENDCHAR
STARTCHAR uni6163
ENCODING 24931
SWIDTH 1500 0
DWIDTH 12 0
BBX 11 7 0 0
BITMAP
27C0
AD60
A7C0
A7C0
2440
27C0
2C60
ENDCHAR
STARTCHAR uni6167
ENCODING 24935
SWIDTH 1500 0
DWIDTH 12 0
BBX 11 7 0 0
BITMAP
2080
FBE0
2080
FFE0
1F80
5240
8F20
ENDCHAR
STARTCHAR uni6168
ENCODING 24936
SWIDTH 1500 0
DWIDTH 12 0
BBX 11 7 0 0
BITMAP
21E0
AEA0
AAA0
AFE0
2840
2EC0
2160
ENDCHAR
STARTCHAR uni616E
ENCODING 24942
SWIDTH 1500 0
DWIDTH 12 0
BBX 11 7 0 0
BITMAP
0200
03C0
7E00
4FE0
4F00
5240
AF20
ENDCHAR
STARTCHAR uni6170
ENCODING 24944
SWIDTH 1500 0
DWIDTH 12 0
BBX 11 7 0 0
BITMAP
7C40
47E0
7D40
50C0
9400
5140
8F20
ENDCHAR
STARTCHAR uni6176
ENCODING 24950
SWIDTH 1500 0
DWIDTH 12 0
BBX 11 7 0 0
BITMAP
0200
7FE0
5540
7FE0
54A0
6300
9CE0
ENDCHAR
STARTCHAR uni617E
ENCODING 24958
SWIDTH 1500 0
DWIDTH 12 0
BBX 11 7 0 0
BITMAP
5200
8BE0
2120
DA80
7000
1240
8F20
ENDCHAR
STARTCHAR uni6182
ENCODING 24962
SWIDTH 1500 0
DWIDTH 12 0
BBX 11 7 0 0
BITMAP
FFE0
1F00
1F00
FFE0
D160
0E00
F1E0
ENDCHAR
STARTCHAR uni618E
ENCODING 24974
SWIDTH 1500 0
DWIDTH 12 0
BBX 11 7 0 0
BITMAP
2440
AFE0
A920
AFE0
27C0
2440
27C0
ENDCHAR
STARTCHAR uni6190
ENCODING 24976
SWIDTH 1500 0
DWIDTH 12 0
BBX 11 7 0 0
BITMAP
2540
B380
AD60
A300
2540
22E0
2C40
ENDCHAR
STARTCHAR uni61A4
ENCODING 24996
SWIDTH 1500 0
DWIDTH 12 0
BBX 11 7 0 0
BITMAP
2100
AFE0
A540
AFE0
2440
27C0
2C60
ENDCHAR
STARTCHAR uni61A7
ENCODING 24999
SWIDTH 1500 0
DWIDTH 12 0
BBX 11 7 0 0
BITMAP
2100
A7C0
A280
AFE0
27C0
2100
2FE0
ENDCHAR
STARTCHAR uni61A9
ENCODING 25001
SWIDTH 1500 0
DWIDTH 12 0
BBX 11 7 0 0
BITMAP
7880
13E0
FE20
7BE0
0000
5240
8F20
ENDCHAR
STARTCHAR uni61B2
ENCODING 25010
SWIDTH 1500 0
DWIDTH 12 0
BBX 11 7 0 0
BITMAP
0400
FFE0
9F20
2A80
3F80
5240
8F20
ENDCHAR
STARTCHAR uni61B6
ENCODING 25014
SWIDTH 1500 0
DWIDTH 12 0
BBX 11 7 0 0
BITMAP
2100
B7C0
A280
AFE0
2380
24A0
2BA0
ENDCHAR
STARTCHAR uni61BE
ENCODING 25022
SWIDTH 1500 0
DWIDTH 12 0
BBX 11 7 0 0
BITMAP
20A0
B7E0
A540
AB20
2000
24A0
2BA0
ENDCHAR
STARTCHAR uni61C7
ENCODING 25031
SWIDTH 1500 0
DWIDTH 12 0
BBX 11 7 0 0
BITMAP
3BE0
D220
7BE0
AA80
1B60
5400
8F20
ENDCHAR
STARTCHAR uni61D0
ENCODING 25040
SWIDTH 1500 0
DWIDTH 12 0
BBX 11 7 0 0
BITMAP
2100
AFE0
A540
A7C0
2FE0
2680
2B60
ENDCHAR
STARTCHAR uni61F2
ENCODING 25074
SWIDTH 1500 0
DWIDTH 12 0
BBX 11 7 0 0
BITMAP
2A60
CEA0
2440
EEA0
2000
5240
8F20
ENDCHAR
STARTCHAR uni61F8
ENCODING 25080
SWIDTH 1500 0
DWIDTH 12 0
BBX 11 7 0 0
BITMAP
3BC0
A900
FB80
54A0
0000
5240
8F20
ENDCHAR
STARTCHAR uni620A
ENCODING 25098
SWIDTH 1500 0
DWIDTH 12 0
BBX 11 7 0 0
BITMAP
0280
7FC0
4200
4280
4100
46A0
9860
ENDCHAR
STARTCHAR uni620E
ENCODING 25102
SWIDTH 1500 0
DWIDTH 12 0
BBX 11 7 0 0
BITMAP
0140
FFE0
2100
3940
E080
21A0
4660
ENDCHAR
STARTCHAR uni6210
ENCODING 25104
SWIDTH 1500 0
DWIDTH 12 0
BBX 11 7 0 0
BITMAP
0140
7FE0
4100
7D40
4480
58A0
8360
ENDCHAR
STARTCHAR uni6211
ENCODING 25105
SWIDTH 1500 0
DWIDTH 12 0
BBX 11 7 0 0
BITMAP
7940
1100
FFE0
1100
F940
1080
7760
ENDCHAR
STARTCHAR uni6212
ENCODING 25106
SWIDTH 1500 0
DWIDTH 12 0
BBX 11 7 0 0
BITMAP
0140
FFE0
0100
4940
FC80
4940
8A20
ENDCHAR
STARTCHAR uni6216
ENCODING 25110
SWIDTH 1500 0
DWIDTH 12 0
BBX 11 7 0 0
BITMAP
0140
FFE0
0100
7940
4880
3D40
E220
ENDCHAR
STARTCHAR uni621A
ENCODING 25114
SWIDTH 1500 0
DWIDTH 12 0
BBX 11 7 0 0
BITMAP
0140
7FE0
4D00
4940
7D40
4880
AB60
ENDCHAR
STARTCHAR uni621F
ENCODING 25119
SWIDTH 1500 0
DWIDTH 12 0
BBX 11 7 0 0
BITMAP
2140
F900
77E0
5080
70A0
F840
23A0
ENDCHAR
STARTCHAR uni6226
ENCODING 25126
SWIDTH 1500 0
DWIDTH 12 0
BBX 11 7 0 0
BITMAP
A4A0
7C80
55E0
7C80
54A0
FE40
11A0
ENDCHAR
STARTCHAR uni622F
ENCODING 25135
SWIDTH 1500 0
DWIDTH 12 0
BBX 11 7 0 0
BITMAP
10A0
1C80
73E0
5C80
40A0
A840
7DA0
ENDCHAR
STARTCHAR uni6234
ENCODING 25140
SWIDTH 1500 0
DWIDTH 12 0
BBX 11 7 0 0
BITMAP
1140
7D00
FFE0
3880
38A0
FE40
44A0
ENDCHAR
STARTCHAR uni6238
ENCODING 25144
SWIDTH 1500 0
DWIDTH 12 0
BBX 11 7 0 0
BITMAP
FFE0
0000
3F80
2080
3F80
2000
C000
ENDCHAR
STARTCHAR uni623B
ENCODING 25147
SWIDTH 1500 0
DWIDTH 12 0
BBX 11 7 0 0
BITMAP
FFE0
2040
3FC0
2100
2FE0
4280
9C60
ENDCHAR
STARTCHAR uni623F
ENCODING 25151
SWIDTH 1500 0
DWIDTH 12 0
BBX 11 7 0 0
BITMAP
FFE0
2040
3FC0
2100
2FE0
4440
99C0
ENDCHAR
STARTCHAR uni6240
ENCODING 25152
SWIDTH 1500 0
DWIDTH 12 0
BBX 11 7 0 0
BITMAP
F860
0380
7A00
4BE0
7A40
4440
8840
ENDCHAR
STARTCHAR uni6247
ENCODING 25159
SWIDTH 1500 0
DWIDTH 12 0
BBX 11 7 0 0
BITMAP
FFE0
3F80
2000
3DE0
2520
54A0
AD60
ENDCHAR
STARTCHAR uni6249
ENCODING 25161
SWIDTH 1500 0
DWIDTH 12 0
BBX 11 7 0 0
BITMAP
FFE0
2040
3FC0
2EE0
2280
5EE0
8480
ENDCHAR
STARTCHAR uni624B
ENCODING 25163
SWIDTH 1500 0
DWIDTH 12 0
BBX 11 7 0 0
BITMAP
3F80
0400
7FC0
0400
FFE0
0400
1C00
ENDCHAR
STARTCHAR uni624D
ENCODING 25165
SWIDTH 1500 0
DWIDTH 12 0
BBX 11 7 0 0
BITMAP
0100
FFE0
0100
0380
1D00
E100
0700
ENDCHAR
STARTCHAR uni6253
ENCODING 25171
SWIDTH 1500 0
DWIDTH 12 0
BBX 11 7 0 0
BITMAP
2FE0
F080
2080
3080
E080
2080
6380
ENDCHAR
STARTCHAR uni6255
ENCODING 25173
SWIDTH 1500 0
DWIDTH 12 0
BBX 11 7 0 0
BITMAP
2100
F100
2200
3200
E480
2440
6FA0
ENDCHAR
STARTCHAR uni6258
ENCODING 25176
SWIDTH 1500 0
DWIDTH 12 0
BBX 11 7 0 0
BITMAP
20C0
F700
2100
31E0
EF00
2120
61E0
ENDCHAR
STARTCHAR uni626E
ENCODING 25198
SWIDTH 1500 0
DWIDTH 12 0
BBX 11 7 0 0
BITMAP
2280
F280
2440
2BE0
E140
2240
6CC0
ENDCHAR
STARTCHAR uni6271
ENCODING 25201
SWIDTH 1500 0
DWIDTH 12 0
BBX 11 7 0 0
BITMAP
2F80
F280
22E0
3520
E540
2880
6760
ENDCHAR
STARTCHAR uni6276
ENCODING 25206
SWIDTH 1500 0
DWIDTH 12 0
BBX 11 7 0 0
BITMAP
2100
F7C0
2100
2FE0
E100
2280
6C60
ENDCHAR
STARTCHAR uni6279
ENCODING 25209
SWIDTH 1500 0
DWIDTH 12 0
BBX 11 7 0 0
BITMAP
2480
F4A0
26C0
3480
E480
26A0
6CE0
ENDCHAR
STARTCHAR uni627F
ENCODING 25215
SWIDTH 1500 0
DWIDTH 12 0
BBX 11 7 0 0
BITMAP
3F80
0100
EEA0
24C0
2E80
4440
8C20
ENDCHAR
STARTCHAR uni6280
ENCODING 25216
SWIDTH 1500 0
DWIDTH 12 0
BBX 11 7 0 0
BITMAP
2100
F7E0
2100
37C0
E240
2180
6E60
ENDCHAR
STARTCHAR uni6284
ENCODING 25220
SWIDTH 1500 0
DWIDTH 12 0
BBX 11 7 0 0
BITMAP
2100
F540
2520
2B00
E040
2180
6E00
ENDCHAR
STARTCHAR uni628A
ENCODING 25226
SWIDTH 1500 0
DWIDTH 12 0
BBX 11 7 0 0
BITMAP
2FE0
E920
2920
2FE0
E800
2820
67E0
ENDCHAR
STARTCHAR uni6291
ENCODING 25233
SWIDTH 1500 0
DWIDTH 12 0
BBX 11 7 0 0
BITMAP
22E0
ECA0
28A0
28A0
EAA0
2C80
6080
ENDCHAR
STARTCHAR uni6295
ENCODING 25237
SWIDTH 1500 0
DWIDTH 12 0
BBX 11 7 0 0
BITMAP
2780
F4A0
28E0
3780
E480
2300
6CE0
ENDCHAR
STARTCHAR uni6297
ENCODING 25239
SWIDTH 1500 0
DWIDTH 12 0
BBX 11 7 0 0
BITMAP
2100
FFE0
2000
3780
E480
24A0
68E0
ENDCHAR
STARTCHAR uni6298
ENCODING 25240
SWIDTH 1500 0
DWIDTH 12 0
BBX 11 7 0 0
BITMAP
20C0
F700
2400
37E0
E480
2480
6880
ENDCHAR
STARTCHAR uni629C
ENCODING 25244
SWIDTH 1500 0
DWIDTH 12 0
BBX 11 7 0 0
BITMAP
2200
F7E0
2200
33C0
E540
2880
6760
ENDCHAR
STARTCHAR uni629E
ENCODING 25246
SWIDTH 1500 0
DWIDTH 12 0
BBX 11 7 0 0
BITMAP
27C0
F440
27C0
3480
E480
2440
6820
ENDCHAR
STARTCHAR uni62AB
ENCODING 25259
SWIDTH 1500 0
DWIDTH 12 0
BBX 11 7 0 0
BITMAP
2080
F7E0
24A0
37C0
E540
2480
6B60
ENDCHAR
STARTCHAR uni62B1
ENCODING 25265
SWIDTH 1500 0
DWIDTH 12 0
BBX 11 7 0 0
BITMAP
2400
E7E0
2B20
3160
E700
2420
67E0
ENDCHAR
STARTCHAR uni62B5
ENCODING 25269
SWIDTH 1500 0
DWIDTH 12 0
BBX 11 7 0 0
BITMAP
20C0
F700
2500
37C0
E480
2440
6FA0
ENDCHAR
STARTCHAR uni62B9
ENCODING 25273
SWIDTH 1500 0
DWIDTH 12 0
BBX 11 7 0 0
BITMAP
2100
EFE0
2100
37C0
E100
2380
6D60
ENDCHAR
STARTCHAR uni62BC
ENCODING 25276
SWIDTH 1500 0
DWIDTH 12 0
BBX 11 7 0 0
BITMAP
2FE0
F920
2FE0
3920
EFE0
2100
6100
ENDCHAR
STARTCHAR uni62BD
ENCODING 25277
SWIDTH 1500 0
DWIDTH 12 0
BBX 11 7 0 0
BITMAP
2100
F7E0
2520
37E0
E520
2520
67E0
ENDCHAR
STARTCHAR uni62C5
ENCODING 25285
SWIDTH 1500 0
DWIDTH 12 0
BBX 11 7 0 0
BITMAP
27C0
F440
27C0
3440
E7C0
2000
6FE0
ENDCHAR
STARTCHAR uni62CD
ENCODING 25293
SWIDTH 1500 0
DWIDTH 12 0
BBX 11 7 0 0
BITMAP
2100
F7E0
2420
37E0
E420
2420
67E0
ENDCHAR
STARTCHAR uni62D0
ENCODING 25296
SWIDTH 1500 0
DWIDTH 12 0
BBX 11 7 0 0
BITMAP
27C0
F440
27C0
3000
EFE0
2220
6CE0
ENDCHAR
STARTCHAR uni62D2
ENCODING 25298
SWIDTH 1500 0
DWIDTH 12 0
BBX 11 7 0 0
BITMAP
27E0
F400
27C0
3440
E7C0
2400
67E0
ENDCHAR
STARTCHAR uni62D3
ENCODING 25299
SWIDTH 1500 0
DWIDTH 12 0
BBX 11 7 0 0
BITMAP
27E0
F200
2200
37E0
EA20
2220
63E0
ENDCHAR
STARTCHAR uni62D8
ENCODING 25304
SWIDTH 1500 0
DWIDTH 12 0
BBX 11 7 0 0
BITMAP
2400
F7E0
2820
37A0
E4A0
27A0
6060
ENDCHAR
STARTCHAR uni62D9
ENCODING 25305
SWIDTH 1500 0
DWIDTH 12 0
BBX 11 7 0 0
BITMAP
2100
F540
2540
37C0
E920
2920
6FE0
ENDCHAR
STARTCHAR uni62DB
ENCODING 25307
SWIDTH 1500 0
DWIDTH 12 0
BBX 11 7 0 0
BITMAP
2FE0
F220
2420
3860
E7C0
2440
67C0
ENDCHAR
STARTCHAR uni62DD
ENCODING 25309
SWIDTH 1500 0
DWIDTH 12 0
BBX 11 7 0 0
BITMAP
2FE0
F7C0
2100
37C0
E100
2FE0
6100
ENDCHAR
STARTCHAR uni62E0
ENCODING 25312
SWIDTH 1500 0
DWIDTH 12 0
BBX 11 7 0 0
BITMAP
24E0
F6A0
2AA0
2AA0
F520
2400
6BE0
ENDCHAR
STARTCHAR uni62E1
ENCODING 25313
SWIDTH 1500 0
DWIDTH 12 0
BBX 11 7 0 0
BITMAP
2080
F7E0
2400
3480
E480
2520
6BE0
ENDCHAR
STARTCHAR uni62EC
ENCODING 25324
SWIDTH 1500 0
DWIDTH 12 0
BBX 11 7 0 0
BITMAP
20C0
F700
2FE0
3100
E7C0
2440
67C0
ENDCHAR
STARTCHAR uni62ED
ENCODING 25325
SWIDTH 1500 0
DWIDTH 12 0
BBX 11 7 0 0
BITMAP
20A0
F7E0
2080
3780
E240
2340
6C20
ENDCHAR
STARTCHAR uni62F3
ENCODING 25331
SWIDTH 1500 0
DWIDTH 12 0
BBX 11 7 0 0
BITMAP
2480
1F00
FFE0
2480
5F40
8420
1C00
ENDCHAR
STARTCHAR uni62F6
ENCODING 25334
SWIDTH 1500 0
DWIDTH 12 0
BBX 11 7 0 0
BITMAP
24A0
F940
24A0
31C0
E640
2180
6E00
ENDCHAR
STARTCHAR uni62F7
ENCODING 25335
SWIDTH 1500 0
DWIDTH 12 0
BBX 11 7 0 0
BITMAP
2120
F7C0
2100
2FE0
E580
2840
61C0
ENDCHAR
STARTCHAR uni62FE
ENCODING 25342
SWIDTH 1500 0
DWIDTH 12 0
BBX 11 7 0 0
BITMAP
2380
F440
2BA0
3000
E7C0
2440
67C0
ENDCHAR
STARTCHAR uni6301
ENCODING 25345
SWIDTH 1500 0
DWIDTH 12 0
BBX 11 7 0 0
BITMAP
2100
F7C0
2100
37E0
E040
2440
61C0
ENDCHAR
STARTCHAR uni6307
ENCODING 25351
SWIDTH 1500 0
DWIDTH 12 0
BBX 11 7 0 0
BITMAP
2440
F780
2420
37E0
E000
27C0
67C0
ENDCHAR
STARTCHAR uni6309
ENCODING 25353
SWIDTH 1500 0
DWIDTH 12 0
BBX 11 7 0 0
BITMAP
2100
EFE0
2920
27C0
E280
2180
6E60
ENDCHAR
STARTCHAR uni6311
ENCODING 25361
SWIDTH 1500 0
DWIDTH 12 0
BBX 11 7 0 0
BITMAP
2280
EAA0
22C0
26A0
EA80
22A0
6CE0
ENDCHAR
STARTCHAR uni6319
ENCODING 25369
SWIDTH 1500 0
DWIDTH 12 0
BBX 11 7 0 0
BITMAP
2880
FFE0
1100
2E80
C460
3F80
0C00
ENDCHAR
STARTCHAR uni631F
ENCODING 25375
SWIDTH 1500 0
DWIDTH 12 0
BBX 11 7 0 0
BITMAP
2100
EFE0
2540
3100
EFE0
2280
6C60
ENDCHAR
STARTCHAR uni6328
ENCODING 25384
SWIDTH 1500 0
DWIDTH 12 0
BBX 11 7 0 0
BITMAP
2100
F240
2FA0
3400
EFE0
2280
6C60
ENDCHAR
STARTCHAR uni632B
ENCODING 25387
SWIDTH 1500 0
DWIDTH 12 0
BBX 11 7 0 0
BITMAP
2540
F540
2BA0
3100
E7C0
2100
6FE0
ENDCHAR
STARTCHAR uni632F
ENCODING 25391
SWIDTH 1500 0
DWIDTH 12 0
BBX 11 7 0 0
BITMAP
27E0
F400
25C0
3400
E7E0
2540
6BA0
ENDCHAR
STARTCHAR uni633A
ENCODING 25402
SWIDTH 1500 0
DWIDTH 12 0
BBX 11 7 0 0
BITMAP
2E20
F2C0
2440
32E0
E640
22E0
6DE0
ENDCHAR
STARTCHAR uni633D
ENCODING 25405
SWIDTH 1500 0
DWIDTH 12 0
BBX 11 7 0 0
BITMAP
2380
EC80
27C0
3540
E7C0
22A0
6CE0
ENDCHAR
STARTCHAR uni633F
ENCODING 25407
SWIDTH 1500 0
DWIDTH 12 0
BBX 11 7 0 0
BITMAP
20C0
F700
2100
2FE0
F540
27C0
6100
ENDCHAR
STARTCHAR uni6349
ENCODING 25417
SWIDTH 1500 0
DWIDTH 12 0
BBX 11 7 0 0
BITMAP
27C0
F440
27C0
3100
E5C0
2500
6BE0
ENDCHAR
STARTCHAR uni634C
ENCODING 25420
SWIDTH 1500 0
DWIDTH 12 0
BBX 11 7 0 0
BITMAP
2E20
FAA0
2EA0
34A0
E720
2520
6B60
ENDCHAR
STARTCHAR uni6355
ENCODING 25429
SWIDTH 1500 0
DWIDTH 12 0
BBX 11 7 0 0
BITMAP
2140
F7E0
2100
37E0
E520
27E0
6520
ENDCHAR
STARTCHAR uni6357
ENCODING 25431
SWIDTH 1500 0
DWIDTH 12 0
BBX 11 7 0 0
BITMAP
2100
F5C0
2500
3FE0
E540
28A0
6300
ENDCHAR
STARTCHAR uni635C
ENCODING 25436
SWIDTH 1500 0
DWIDTH 12 0
BBX 11 7 0 0
BITMAP
2100
EFE0
2920
2FE0
E440
2380
6C60
ENDCHAR
STARTCHAR uni6367
ENCODING 25447
SWIDTH 1500 0
DWIDTH 12 0
BBX 11 7 0 0
BITMAP
2100
F7C0
2380
2FE0
E540
2BA0
6100
ENDCHAR
STARTCHAR uni6368
ENCODING 25448
SWIDTH 1500 0
DWIDTH 12 0
BBX 11 7 0 0
BITMAP
2380
F540
2BA0
3100
EFE0
2440
67C0
ENDCHAR
STARTCHAR uni636E
ENCODING 25454
SWIDTH 1500 0
DWIDTH 12 0
BBX 11 7 0 0
BITMAP
27E0
F7E0
2440
35E0
E440
25E0
69E0
ENDCHAR
STARTCHAR uni6372
ENCODING 25458
SWIDTH 1500 0
DWIDTH 12 0
BBX 11 7 0 0
BITMAP
2540
F380
2FE0
3540
EB20
2240
63C0
ENDCHAR
STARTCHAR uni6377
ENCODING 25463
SWIDTH 1500 0
DWIDTH 12 0
BBX 11 7 0 0
BITMAP
2100
F7E0
2140
37C0
E1E0
2500
6BE0
ENDCHAR
STARTCHAR uni637A
ENCODING 25466
SWIDTH 1500 0
DWIDTH 12 0
BBX 11 7 0 0
BITMAP
2100
EFE0
2280
2440
EBA0
2540
6B20
ENDCHAR
STARTCHAR uni637B
ENCODING 25467
SWIDTH 1500 0
DWIDTH 12 0
BBX 11 7 0 0
BITMAP
2380
E440
2BA0
2080
E100
24A0
6BA0
ENDCHAR
STARTCHAR uni6383
ENCODING 25475
SWIDTH 1500 0
DWIDTH 12 0
BBX 11 7 0 0
BITMAP
27C0
F040
2FE0
2920
F7C0
2540
6100
ENDCHAR
STARTCHAR uni6388
ENCODING 25480
SWIDTH 1500 0
DWIDTH 12 0
BBX 11 7 0 0
BITMAP
2FE0
F540
2FE0
2BA0
F280
2100
6EE0
ENDCHAR
ENDFONT
